<svg width="1070" height="465" viewBox="0 0 1070 465" fill="none" xmlns="http://www.w3.org/2000/svg">
<path d="M171.016 374.259L163.319 325.664L36.1051 345.813L27.2822 290.108L79.8052 105.215L157.24 92.9504L107.146 270.169L153.37 262.847L145.611 213.858L210.403 203.596L218.162 252.585L252.534 247.141L262.483 309.958L228.112 315.402L235.808 363.997L171.016 374.259Z" fill="#1C222E"/>
<path d="M926.214 369.702L933.911 321.107L806.697 300.958L815.52 245.253L922.607 85.6399L1000.04 97.9044L897.636 250.969L943.86 258.29L951.619 209.301L1016.41 219.563L1008.65 268.552L1043.02 273.996L1033.07 336.813L998.703 331.369L991.007 379.964L926.214 369.702Z" fill="#1C222E"/>
<path opacity="0.55" d="M535.419 357.266C655.075 357.266 752.076 352.145 752.076 345.828C752.076 339.511 655.075 334.39 535.419 334.39C415.762 334.39 318.762 339.511 318.762 345.828C318.762 352.145 415.762 357.266 535.419 357.266Z" fill="#DADFE9"/>
<path opacity="0.55" d="M532.36 365.379C585.1 365.379 627.854 361.508 627.854 356.734C627.854 351.959 585.1 348.089 532.36 348.089C479.62 348.089 436.866 351.959 436.866 356.734C436.866 361.508 479.62 365.379 532.36 365.379Z" fill="#DADFE9"/>
<path d="M590.215 396.634C601.013 396.634 609.766 395.026 609.766 393.043C609.766 391.06 601.013 389.452 590.215 389.452C579.417 389.452 570.664 391.06 570.664 393.043C570.664 395.026 579.417 396.634 590.215 396.634Z" fill="#DADFE9"/>
<path opacity="0.55" d="M462.269 433.475C513.76 433.475 555.502 428.354 555.502 422.037C555.502 415.72 513.76 410.599 462.269 410.599C410.778 410.599 369.036 415.72 369.036 422.037C369.036 428.354 410.778 433.475 462.269 433.475Z" fill="#DADFE9"/>
<path opacity="0.55" d="M746.623 410.333C775.344 410.333 798.626 405.986 798.626 400.624C798.626 395.262 775.344 390.915 746.623 390.915C717.903 390.915 694.62 395.262 694.62 400.624C694.62 405.986 717.903 410.333 746.623 410.333Z" fill="#DADFE9"/>
<path d="M550.448 71.848C550.448 71.848 572.659 75.439 584.895 104.433C597.131 133.427 590.215 150.318 569.866 129.57C549.517 108.822 551.113 82.887 550.448 71.848Z" fill="#3A12DE"/>
<path d="M653.257 71.981C653.257 71.981 677.064 79.163 686.241 109.221C695.95 141.141 674.271 158.032 660.173 132.496C648.203 110.684 651.661 83.02 653.257 71.981Z" fill="#3A12DE"/>
<path d="M536.882 209.503C534.089 210.035 531.429 208.04 531.03 205.247C528.104 184.499 519.592 106.827 551.645 57.617C568.935 31.017 586.89 16.653 604.845 14.658C616.815 13.461 628.652 17.983 638.228 27.559C649.799 39.13 656.449 62.139 658.976 72.38C659.641 75.173 657.912 77.966 655.119 78.498C652.459 79.03 649.932 77.434 649.267 74.774C646.873 65.464 640.888 44.317 631.179 34.608C625.992 29.421 617.347 23.436 605.909 24.633C591.279 26.096 575.452 39.396 560.024 63.07C530.232 108.822 538.212 184.233 540.872 203.917C541.404 206.577 539.542 208.971 536.882 209.503Z" fill="#07102E"/>
<path d="M497.78 142.072C503.1 149.121 522.917 141.673 531.828 122.654C540.739 103.635 542.202 82.488 542.202 82.488C542.202 82.488 524.646 86.079 508.819 106.827C493.125 127.708 493.391 136.353 497.78 142.072Z" fill="#313641"/>
<path d="M654.188 71.981C654.188 71.981 666.557 91.532 654.454 118.265C641.686 146.461 616.283 144.998 622.002 118.531C627.056 96.054 646.341 78.764 654.188 71.981Z" fill="#313641"/>
<path d="M654.055 72.114C654.055 72.114 676 64.799 699.009 82.754C723.481 101.773 715.9 126.245 691.561 114.275C670.946 104.3 658.843 81.424 654.055 72.114Z" fill="#313641"/>
<path d="M747.82 325.346L687.039 348.754C687.039 348.754 671.079 341.838 659.242 332.129C652.592 326.676 647.405 320.292 646.873 313.775L720.555 280.259C720.555 280.259 727.737 283.052 735.451 294.756C736.648 296.618 737.845 298.613 739.175 300.874C748.219 317.765 747.82 325.346 747.82 325.346Z" fill="#D0EBC3"/>
<path d="M735.451 294.889L659.242 332.262C652.592 326.809 647.405 320.425 646.873 313.908L720.555 280.392C720.555 280.392 727.737 283.318 735.451 294.889Z" fill="#34B166"/>
<path d="M726.939 348.621C726.939 349.02 726.939 349.286 726.939 349.286C726.939 349.286 724.146 349.552 719.092 349.818C705.127 350.749 673.473 352.478 635.834 352.877C587.688 353.276 486.209 353.808 465.594 351.414C458.811 350.616 414.655 348.089 387.656 342.237C374.755 339.444 365.711 335.853 366.642 331.331C368.105 324.415 377.016 318.962 385.528 315.371C394.04 311.78 402.286 309.785 402.419 309.785C402.286 309.652 384.464 292.495 391.247 270.018C398.03 247.408 421.305 250.334 421.305 250.334C421.305 250.334 428.886 209.503 463.599 200.459C498.312 191.415 514.139 215.222 514.139 215.222C514.139 215.222 547.522 178.248 591.545 191.548C635.701 204.848 635.302 243.551 635.302 243.551C635.302 243.551 655.518 241.955 662.434 255.388C669.35 268.821 661.902 283.85 661.902 283.85C661.902 283.85 680.788 282.653 686.241 303.268C691.162 321.489 683.182 329.602 681.32 331.198C683.182 329.735 692.492 324.016 709.117 329.07C725.875 333.991 726.939 345.695 726.939 348.621Z" fill="#FEC272"/>
<path d="M719.092 350.483C705.127 351.281 673.473 352.744 635.834 353.01C587.688 353.409 486.209 353.808 465.594 351.813C458.811 351.148 414.655 349.02 387.656 344.099C387.656 343.567 387.656 343.035 387.656 342.503C388.72 324.149 412.793 324.149 412.793 324.149C412.793 324.149 395.237 310.583 403.483 295.554C412.793 278.663 436.068 278.663 436.068 278.663C436.068 278.663 432.344 260.708 454.555 249.403C483.549 234.64 515.336 254.59 515.336 254.59C515.336 254.59 544.064 234.906 583.432 241.29C622.8 247.674 622.933 272.279 622.933 272.279C622.933 272.279 636.765 271.348 642.617 281.323C650.198 293.958 640.09 305.795 640.09 305.795C640.09 305.795 656.582 301.938 665.892 315.504C675.069 328.804 667.621 343.035 667.355 343.567C667.887 343.301 679.325 339.178 698.477 341.705C713.107 343.567 717.629 348.089 719.092 350.483Z" fill="#F7A561"/>
<path d="M608.968 284.382C608.968 284.382 603.515 299.677 606.84 304.997C610.165 310.184 619.741 301.805 608.968 284.382Z" fill="white"/>
<path d="M500.839 287.574C507.083 287.574 512.144 282.513 512.144 276.269C512.144 270.025 507.083 264.964 500.839 264.964C494.596 264.964 489.534 270.025 489.534 276.269C489.534 282.513 494.596 287.574 500.839 287.574Z" fill="#07102E"/>
<path d="M594.338 287.574C600.582 287.574 605.643 282.513 605.643 276.269C605.643 270.025 600.582 264.964 594.338 264.964C588.095 264.964 583.033 270.025 583.033 276.269C583.033 282.513 588.095 287.574 594.338 287.574Z" fill="#07102E"/>
<path d="M477.165 249.802C476.101 244.615 489.002 238.098 495.652 233.31C502.302 228.522 512.277 226.66 517.464 235.438C522.784 244.216 504.696 252.595 498.046 254.058C491.529 255.388 478.362 255.521 477.165 249.802Z" fill="#07102E"/>
<path d="M610.963 247.142C611.362 242.354 599.392 237.3 593.141 233.443C586.89 229.453 577.846 228.389 574.122 236.635C570.265 244.881 586.89 251.265 592.875 252.196C598.86 252.994 610.431 252.462 610.963 247.142Z" fill="#07102E"/>
<path d="M523.449 426.293C523.05 426.426 522.518 426.426 522.119 426.559C508.154 428.288 454.422 427.623 429.551 424.431C421.172 423.367 414.256 421.771 408.803 419.909C394.173 414.855 390.449 407.141 399.094 398.496C410.931 386.659 438.861 389.585 438.861 389.585C438.861 389.585 452.826 366.576 484.347 365.911C510.947 365.246 515.602 399.294 515.602 399.294C515.602 399.294 528.104 396.102 535.02 406.077C541.803 416.052 536.483 424.165 523.449 426.293Z" fill="#FEC272"/>
<path d="M523.449 426.293C523.05 426.426 522.518 426.426 522.119 426.559C508.154 428.288 454.422 427.623 429.551 424.431C421.172 423.367 414.256 421.771 408.803 419.909C408.271 419.643 407.872 419.377 407.34 418.978C407.34 418.978 398.03 409.668 413.857 403.151C429.684 396.634 447.506 403.55 447.506 403.55C447.506 403.55 454.688 379.876 481.155 379.876C507.755 379.876 503.765 408.87 503.765 408.87C503.765 408.87 519.326 402.22 527.04 412.86C530.232 416.983 529.434 422.436 523.449 426.293Z" fill="#F7A561"/>
<path d="M603.515 392.112C603.249 392.245 603.116 392.378 602.85 392.511C598.062 394.905 583.831 395.171 577.58 392.112C575.452 391.048 574.255 389.718 574.521 387.856C575.718 380.275 591.678 381.605 591.678 381.605C603.116 381.871 608.835 388.521 603.515 392.112Z" fill="#FEC272"/>
<path d="M602.85 392.511C598.062 394.905 583.831 395.171 577.58 392.112C577.181 391.713 577.048 391.181 577.181 390.516C578.245 385.063 591.678 385.994 591.678 385.994C599.924 386.26 604.579 389.851 602.85 392.511Z" fill="#F7A561"/>
<path d="M782.001 397.299C779.74 399.028 776.947 400.358 773.489 401.422C760.987 405.146 742.899 404.481 731.461 402.619C725.875 401.688 721.885 400.491 720.821 399.427C717.762 396.102 714.969 385.462 722.55 381.206C730.131 376.95 736.781 383.068 736.781 383.068C744.894 368.039 764.312 353.808 781.735 369.369C790.513 377.083 791.843 389.851 782.001 397.299Z" fill="#FEC272"/>
<path d="M782.001 397.299C779.74 399.028 776.947 400.358 773.489 401.422C760.987 405.146 742.899 404.481 731.461 402.619C725.875 399.959 720.156 393.442 726.274 388.787C732.259 384.132 740.638 391.713 740.638 391.713C740.638 391.713 760.189 373.226 775.484 378.945C786.39 383.068 783.198 393.974 782.001 397.299Z" fill="#F7A561"/>
<path d="M292.162 148.722C286.044 146.062 286.842 137.284 293.226 135.688C304.664 132.895 321.289 129.437 343.367 126.777C363.716 124.383 377.814 123.452 386.592 123.186C392.843 123.053 397.764 128.373 396.966 134.491L394.04 157.766L300.807 152.313L292.162 148.722Z" fill="#279654"/>
<path d="M455.486 252.063L451.23 284.914L443.782 343.301L442.984 349.685C442.984 349.685 420.773 352.611 396.833 352.079C394.439 352.079 392.178 351.946 389.784 351.68C368.504 349.951 349.086 342.902 349.086 342.902L327.407 273.077L316.634 238.231L302.27 191.681L287.64 145.264C286.177 140.343 290.3 135.555 295.354 136.353C305.063 137.949 320.491 139.944 338.712 141.008C346.958 141.54 355.603 141.673 364.647 141.673C391.646 141.407 410 140.343 419.975 139.545C424.763 139.146 428.753 143.269 428.354 148.057L423.965 197.666L421.97 219.212L455.486 252.063Z" fill="#34B166"/>
<path d="M389.651 351.68C368.371 349.951 348.953 342.902 348.953 342.902L327.274 273.077L316.501 238.231L302.137 191.681L287.64 145.264C286.177 140.343 290.3 135.555 295.354 136.353C305.063 137.949 320.491 139.944 338.712 141.008L389.651 351.68Z" fill="#6BC412"/>
<path d="M428.354 148.057L423.965 197.666C409.069 198.73 389.651 199.661 368.238 199.395C362.918 199.395 357.598 199.129 352.677 198.863C331.264 197.666 313.708 194.341 302.004 191.548L287.64 145.264C286.177 140.343 290.3 135.555 295.354 136.353C297.083 136.619 298.945 136.885 300.94 137.151C302.403 137.417 303.999 137.55 305.728 137.816C305.861 137.816 305.994 137.816 306.127 137.816C307.191 137.949 308.122 138.082 309.186 138.215C309.851 138.348 310.516 138.348 311.181 138.481C312.378 138.614 313.575 138.747 314.772 138.88C317.299 139.146 320.092 139.412 322.885 139.678C324.88 139.811 326.875 140.077 328.87 140.21H329.402C330.865 140.343 332.461 140.476 333.924 140.609C334.19 140.609 334.323 140.609 334.589 140.609C335.121 140.609 335.653 140.742 336.318 140.742C337.249 140.742 338.047 140.875 338.978 140.875C347.224 141.407 355.869 141.54 364.913 141.54C391.912 141.274 410.266 140.21 420.241 139.412C424.896 139.146 428.886 143.269 428.354 148.057Z" fill="#D0EBC3"/>
<path d="M451.23 284.914L443.782 343.301C432.211 321.755 408.936 285.047 378.612 272.146C375.553 270.816 372.627 269.752 369.701 268.954C351.48 263.767 337.249 267.491 327.274 272.944L316.501 238.098C326.476 234.64 341.904 230.517 360.258 229.586C363.849 229.453 367.573 229.32 371.43 229.453C404.547 230.65 435.802 264.831 451.23 284.914Z" fill="#D0EBC3"/>
<path d="M352.677 198.863C331.264 197.666 313.708 194.341 302.004 191.548L287.64 145.264C286.177 140.343 290.3 135.555 295.354 136.353C297.083 136.619 298.945 136.885 300.94 137.151C302.403 137.417 303.999 137.55 305.728 137.816C305.861 137.816 305.994 137.816 306.127 137.816C307.191 137.949 308.122 138.082 309.186 138.215C309.851 138.348 310.516 138.348 311.181 138.481C312.378 138.614 313.575 138.747 314.772 138.88C317.299 139.146 320.092 139.412 322.885 139.678C324.88 139.811 326.875 140.077 328.87 140.21H329.402C330.865 140.343 332.461 140.476 333.924 140.609C334.19 140.609 334.323 140.609 334.589 140.609C335.121 140.609 335.653 140.742 336.318 140.742C337.249 140.742 338.047 140.875 338.978 140.875L352.677 198.863Z" fill="#E4FFD7"/>
<path d="M369.701 268.954C351.48 263.767 337.249 267.491 327.274 272.944L316.501 238.098C326.476 234.64 341.904 230.517 360.258 229.586L369.701 268.954Z" fill="#E4FFD7"/>
<path d="M613.756 355.67L546.325 365.113L531.562 367.241L456.949 351.015L489.002 330.267L521.454 309.253C528.503 304.731 537.547 304.731 544.463 309.386L613.756 355.67Z" fill="#D0EBC3"/>
<path d="M546.325 365.113L531.562 367.241L456.949 351.015L489.002 330.267C499.908 332.129 514.804 336.385 528.237 346.759C536.084 352.611 541.936 359.128 546.325 365.113Z" fill="#34B166"/>
</svg>
