<svg width="69" height="68" viewBox="0 0 69 68" fill="none" xmlns="http://www.w3.org/2000/svg">
<path d="M34.2485 0L41.0187 7.03206L50.2814 3.95177L53.0082 13.3246L62.6414 14.9018L60.7001 24.4682L68.4969 30.3415L62.3322 37.91L66.5065 46.7339L57.5307 50.5705L57.1262 60.3236L47.3955 59.5496L42.5048 67.9975L34.2485 62.79L25.9921 67.9975L21.1014 59.5496L11.3707 60.3236L10.9662 50.5705L1.99039 46.7339L6.16472 37.91L0 30.3415L7.79685 24.4682L5.85551 14.9018L15.4887 13.3246L18.2155 3.95177L27.4782 7.03206L34.2485 0Z" fill="#34B166"/>
<path d="M34.2485 0L41.0187 7.03206L50.2814 3.95177L53.0082 13.3246L62.6414 14.9018L60.7001 24.4682L68.4969 30.3415L62.3322 37.91L66.5065 46.7339L57.5307 50.5705L57.1262 60.3236L47.3955 59.5496L42.5048 67.9975L34.2485 62.79L25.9921 67.9975L21.1014 59.5496L11.3707 60.3236L10.9662 50.5705L1.99039 46.7339L6.16472 37.91L0 30.3415L7.79685 24.4682L5.85551 14.9018L15.4887 13.3246L18.2155 3.95177L27.4782 7.03206L34.2485 0Z" fill="#34B166"/>
<path fill-rule="evenodd" clip-rule="evenodd" d="M41.0187 7.03206L34.2485 0L27.4782 7.03206L18.2155 3.95177L15.4887 13.3246L5.85551 14.9018L7.79685 24.4682L0 30.3415L6.16472 37.91L1.99039 46.7339L10.9662 50.5705L11.3707 60.3236L21.1014 59.5496L25.9921 67.9975L34.2485 62.79L42.5048 67.9975L47.3955 59.5496L57.1262 60.3236L57.5307 50.5705L66.5065 46.7339L62.3322 37.91L68.4969 30.3415L60.7001 24.4682L62.6414 14.9018L53.0082 13.3246L50.2814 3.95177L41.0187 7.03206ZM48.9413 6.5051L40.4528 9.32793L34.2485 2.88364L28.0441 9.32793L19.5556 6.5051L17.0567 15.0945L8.2287 16.5399L10.0078 25.3067L2.86261 30.6891L8.51206 37.625L4.68664 45.7113L12.9123 49.2273L13.2829 58.1652L22.2003 57.4558L26.6822 65.1977L34.2485 60.4254L41.8147 65.1977L46.2966 57.4558L55.214 58.1652L55.5847 49.2273L63.8103 45.7113L59.9848 37.625L65.6343 30.6891L58.4891 25.3067L60.2682 16.5399L51.4402 15.0945L48.9413 6.5051Z" fill="#130F26"/>
<path fill-rule="evenodd" clip-rule="evenodd" d="M44.748 23L23.748 23L23.748 21L44.748 21L44.748 23Z" fill="#1C222E"/>
<path fill-rule="evenodd" clip-rule="evenodd" d="M44.748 47L23.748 47L23.748 45L44.748 45L44.748 47Z" fill="#1C222E"/>
</svg>
