<svg width="1080" height="1300" viewBox="0 0 1080 1300" fill="none" xmlns="http://www.w3.org/2000/svg" preserveAspectRatio="none">
<path d="M0 1300L-5.68248e-05 0L1080 318.5L1080 1300L0 1300Z" fill="#130F26"/>
<mask id="mask0_1128_1930" style="mask-type:alpha" maskUnits="userSpaceOnUse" x="0" y="4" width="1080" height="1296">
<path d="M0 1300L-5.665e-05 3.99998L1080 321.52L1080 1300L0 1300Z" fill="#4B4AEF"/>
</mask>
<g mask="url(#mask0_1128_1930)">
<path d="M757.747 1187.99C677.671 1333.77 708.07 1514.77 733.279 1587.05C851.91 1589.35 1090.95 1592.58 1098.07 1587.05C1105.19 1581.51 1101.04 712.81 1098.07 279.151L982.404 279.151C911.226 371.418 851.169 459.073 882.309 728.956C906.096 935.101 857.842 1005.76 757.747 1187.99Z" fill="white" fill-opacity="0.1"/>
<path d="M904.577 1113.63C857.08 1247.99 887.572 1409.6 908.755 1473.61C990.628 1470.92 1155.53 1464.23 1160.14 1458.97C1164.75 1453.7 1116.09 672.376 1091.19 282.372L1011.48 287.015C967.291 372.877 930.526 454.142 966.215 695.681C993.475 880.176 963.947 945.677 904.577 1113.63Z" fill="white" fill-opacity="0.1"/>
<path d="M300.419 1009.98C287.844 1279.02 445.643 1333.72 409.198 1420.81C234.991 1424.74 -107.691 1473.54 -118.189 1466.95C-128.687 1460.37 -108.645 523.024 -107.756 1.92536L62.1138 0.802183C167.386 110.977 194.974 23.0866 189.735 423.155C186.033 705.788 314.494 708.827 300.419 1009.98Z" fill="white" fill-opacity="0.1"/>
<path d="M195.629 1120.84C184.023 1369.16 329.673 1419.66 296.034 1500.05C135.238 1503.67 -181.064 1548.71 -190.753 1542.63C-200.443 1536.56 -181.944 671.371 -181.123 190.387L-24.3306 189.351C72.8379 291.044 98.302 209.92 93.4658 579.19C90.0492 840.065 208.621 842.87 195.629 1120.84Z" fill="white" fill-opacity="0.1"/>
</g>
</svg>
