<svg width="1310" height="1080" viewBox="0 0 1310 1080" fill="none" xmlns="http://www.w3.org/2000/svg" preserveAspectRatio="none">
<path d="M0 0L1310 0L989.05 1080H0V0Z" fill="#130F26"/>
<mask id="mask0_945_4018" style="mask-type:alpha" maskUnits="userSpaceOnUse" x="0" y="0" width="1300" height="1080">
<path d="M0 0L1300 0L981.5 1080H0V0Z" fill="#4B4AEF"/>
</mask>
<g mask="url(#mask0_945_4018)">
<path d="M112.356 757.747C-33.8768 677.671 -215.434 708.07 -287.934 733.279C-290.248 851.91 -293.487 1090.95 -287.934 1098.07C-282.381 1105.19 589.003 1101.04 1024 1098.07V982.404C931.447 911.226 843.522 851.169 572.806 882.309C366.025 906.096 295.148 857.842 112.356 757.747Z" fill="white" fill-opacity="0.1"/>
<path d="M186.946 904.576C52.1691 857.08 -109.937 887.571 -174.143 908.754C-171.448 990.628 -164.738 1155.53 -159.456 1160.14C-154.174 1164.75 629.561 1116.09 1020.77 1091.19L1016.11 1011.48C929.985 967.291 848.469 930.526 606.184 966.214C421.12 993.474 355.416 963.947 186.946 904.576Z" fill="white" fill-opacity="0.1"/>
<path d="M290.919 300.419C21.049 287.844 -33.8269 445.643 -121.185 409.198C-125.121 234.991 -174.072 -107.691 -167.469 -118.189C-160.866 -128.687 779.373 -108.645 1302.08 -107.755L1303.21 62.1138C1192.69 167.386 1280.85 194.974 879.551 189.735C596.046 186.033 592.997 314.494 290.919 300.419Z" fill="white" fill-opacity="0.1"/>
<path d="M179.717 195.628C-69.3782 184.022 -120.03 329.672 -200.663 296.033C-204.296 135.237 -249.479 -181.064 -243.384 -190.754C-237.289 -200.444 630.569 -181.944 1113.04 -181.124L1114.08 -24.3315C1012.07 72.837 1093.44 98.3011 723.034 93.4648C461.354 90.0482 458.54 208.62 179.717 195.628Z" fill="white" fill-opacity="0.1"/>
</g>
</svg>
