<svg width="34" height="34" viewBox="0 0 34 34" fill="none" xmlns="http://www.w3.org/2000/svg">
<path d="M11.3335 29.75V9.91667C11.3335 8.59921 11.3335 7.94048 11.4783 7.40002C11.8713 5.93338 13.0169 4.7878 14.4835 4.39482C15.024 4.25 15.6827 4.25 17.0002 4.25C18.3176 4.25 18.9764 4.25 19.5168 4.39482C20.9835 4.7878 22.129 5.93338 22.522 7.40002C22.6668 7.94048 22.6668 8.59921 22.6668 9.91667V29.75M7.36683 29.75H26.6335C28.2203 29.75 29.0137 29.75 29.6198 29.4412C30.1529 29.1695 30.5864 28.7361 30.858 28.203C31.1668 27.5969 31.1668 26.8035 31.1668 25.2167V14.45C31.1668 12.8632 31.1668 12.0698 30.858 11.4637C30.5864 10.9306 30.1529 10.4971 29.6198 10.2255C29.0137 9.91667 28.2203 9.91667 26.6335 9.91667H7.36683C5.78001 9.91667 4.98661 9.91667 4.38052 10.2255C3.8474 10.4971 3.41395 10.9306 3.14231 11.4637C2.8335 12.0698 2.8335 12.8632 2.8335 14.45V25.2167C2.8335 26.8035 2.8335 27.5969 3.14231 28.203C3.41395 28.7361 3.8474 29.1695 4.38052 29.4412C4.98661 29.75 5.78001 29.75 7.36683 29.75Z" stroke="#1C222E" stroke-width="2" stroke-linecap="round" stroke-linejoin="round"/>
</svg>
