<svg width="34" height="34" viewBox="0 0 34 34" fill="none" xmlns="http://www.w3.org/2000/svg">
<g clip-path="url(#clip0_1058_10996)">
<path d="M33.8776 26.6852L31.9029 20.9382C32.8548 18.9923 33.3578 16.8283 33.3612 14.6509C33.367 10.8649 31.9022 7.28509 29.2365 4.57106C26.5703 1.8565 23.0175 0.328424 19.2323 0.268459C15.3073 0.206436 11.6181 1.69938 8.84447 4.47291C6.17002 7.1473 4.68664 10.673 4.63969 14.4406C2.00375 16.4253 0.447919 19.5195 0.453033 22.8244C0.45549 24.3711 0.803592 25.9084 1.46321 27.2986L0.103005 31.257C-0.130812 31.9375 0.0399851 32.6763 0.548791 33.1851C0.906854 33.5432 1.37894 33.7339 1.86443 33.7339C2.0687 33.7339 2.27536 33.7002 2.4769 33.6309L6.43532 32.2707C7.82554 32.9303 9.36291 33.2784 10.9095 33.2809C10.9151 33.2809 10.9204 33.2809 10.926 33.2809C14.2802 33.2807 17.3979 31.6848 19.3753 28.9842C21.4331 28.93 23.469 28.4319 25.3096 27.5315L31.0567 29.5063C31.2961 29.5886 31.5417 29.6287 31.7844 29.6287C32.3614 29.6287 32.9224 29.4021 33.348 28.9765C33.9525 28.3718 34.1555 27.4939 33.8776 26.6852ZM10.9258 31.2571C10.9215 31.2571 10.917 31.2571 10.9126 31.2571C9.54373 31.255 8.18433 30.9175 6.98164 30.2812C6.73435 30.1505 6.44402 30.1278 6.17959 30.2187L2.12063 31.6134L3.51536 27.5545C3.60621 27.29 3.58363 26.9997 3.45281 26.7525C2.8165 25.5497 2.47902 24.1904 2.4769 22.8214C2.47351 20.6194 3.33009 18.5323 4.82802 16.9695C5.3173 19.9522 6.73886 22.7008 8.94236 24.8651C11.1296 27.0134 13.8789 28.3813 16.8454 28.8284C15.2791 30.3723 13.1676 31.2571 10.9258 31.2571ZM31.9168 27.5454C31.8592 27.603 31.7909 27.6187 31.7142 27.5922L25.5617 25.4781C25.4549 25.4414 25.3437 25.4232 25.233 25.4232C25.0697 25.4232 24.907 25.4627 24.7598 25.5407C23.0031 26.47 21.0181 26.9628 19.0191 26.9659C19.0126 26.9659 19.0066 26.9659 19 26.9659C12.3021 26.9659 6.76954 21.5249 6.66342 14.8286C6.60997 11.4561 7.8928 8.28663 10.2755 5.9039C12.6583 3.52118 15.8283 2.2388 19.2003 2.29193C25.9031 2.39824 31.3477 7.94098 31.3374 14.6477C31.3343 16.6467 30.8415 18.6317 29.9122 20.3883C29.7814 20.6355 29.7588 20.9258 29.8497 21.1903L31.9637 27.3427C31.9901 27.4198 31.9743 27.488 31.9168 27.5454Z" fill="#1C222E"/>
<path d="M25.028 9.26473H12.9713C12.4124 9.26473 11.9594 9.71782 11.9594 10.2766C11.9594 10.8355 12.4125 11.2885 12.9713 11.2885H25.028C25.5869 11.2885 26.0399 10.8354 26.0399 10.2766C26.0399 9.71782 25.5869 9.26473 25.028 9.26473Z" fill="#1C222E"/>
<path d="M25.028 13.4265H12.9713C12.4124 13.4265 11.9594 13.8796 11.9594 14.4384C11.9594 14.9972 12.4125 15.4503 12.9713 15.4503H25.028C25.5869 15.4503 26.0399 14.9972 26.0399 14.4384C26.0399 13.8796 25.5869 13.4265 25.028 13.4265Z" fill="#1C222E"/>
<path d="M20.387 17.5881H12.9712C12.4124 17.5881 11.9593 18.0412 11.9593 18.6C11.9593 19.1589 12.4124 19.6119 12.9712 19.6119H20.387C20.9458 19.6119 21.3989 19.1588 21.3989 18.6C21.3989 18.0412 20.9459 17.5881 20.387 17.5881Z" fill="#1C222E"/>
</g>
<defs>
<clipPath id="clip0_1058_10996">
<rect width="34" height="34" fill="white"/>
</clipPath>
</defs>
</svg>
