<svg width="128" height="128" viewBox="0 0 128 128" fill="none" xmlns="http://www.w3.org/2000/svg">
<!--<rect width="128" height="128" fill="#D9D9D9"/>-->
<path d="M88.8536 35.1464C89.0488 35.3417 89.0488 35.6583 88.8536 35.8536L71.8536 52.8536C71.6583 53.0488 71.3417 53.0488 71.1464 52.8536C70.9512 52.6583 70.9512 52.3417 71.1464 52.1464L88.1464 35.1464C88.3417 34.9512 88.6583 34.9512 88.8536 35.1464Z" fill="#12161D"/>
<path d="M71.8536 56.8536L84.8536 43.8536C85.0488 43.6583 85.0488 43.3417 84.8536 43.1464C84.6583 42.9512 84.3417 42.9512 84.1464 43.1464L71.1464 56.1464C70.9512 56.3417 70.9512 56.6583 71.1464 56.8536C71.3417 57.0488 71.6583 57.0488 71.8536 56.8536Z" fill="#12161D"/>
<path fill-rule="evenodd" clip-rule="evenodd" d="M65.5 13C65.2239 13 65 13.2239 65 13.5V83.5C65 83.7761 65.2239 84 65.5 84H95.5C95.7761 84 96 83.7761 96 83.5V13.5C96 13.2239 95.7761 13 95.5 13H65.5ZM66 83V14H95V83H66Z" fill="#12161D"/>
<path fill-rule="evenodd" clip-rule="evenodd" d="M31 83.5C31 83.7761 31.2239 84 31.5 84H61.5C61.7761 84 62 83.7761 62 83.5V13.5C62 13.2239 61.7761 13 61.5 13H31.5C31.2239 13 31 13.2239 31 13.5V83.5ZM61 73H32V64H61V73ZM61 74H32V83H61V74ZM61 63H32V54H61V63ZM61 53H32V44H61V53ZM61 43H32V34H61V43ZM61 33H32V24H61V33ZM61 23H32V14H61V23Z" fill="#12161D"/>
<path d="M55.5 95C55.7761 95 56 95.2239 56 95.5V103.5C56 103.776 55.7761 104 55.5 104C55.2239 104 55 103.776 55 103.5V95.5C55 95.2239 55.2239 95 55.5 95Z" fill="#12161D"/>
<path d="M71 95.5V103.5C71 103.776 71.2239 104 71.5 104C71.7761 104 72 103.776 72 103.5V95.5C72 95.2239 71.7761 95 71.5 95C71.2239 95 71 95.2239 71 95.5Z" fill="#12161D"/>
<path fill-rule="evenodd" clip-rule="evenodd" d="M27 9.5C27 9.22386 27.2239 9 27.5 9H99.5C99.7761 9 100 9.22386 100 9.5V119.5C100 119.776 99.7761 120 99.5 120H27.5C27.2239 120 27 119.776 27 119.5V9.5ZM28 87H99V10H28V87ZM28 88V119H63V88H28ZM64 88V119H99V88H64Z" fill="#12161D"/>
</svg>
