<svg width="34" height="34" viewBox="0 0 34 34" fill="none" xmlns="http://www.w3.org/2000/svg">
<path d="M19.8332 3.21533V9.06693C19.8332 9.86034 19.8332 10.257 19.9876 10.5601C20.1234 10.8266 20.3401 11.0434 20.6067 11.1792C20.9097 11.3336 21.3064 11.3336 22.0998 11.3336H27.9514M19.8332 2.8335H12.4665C10.0863 2.8335 8.89617 2.8335 7.98704 3.29672C7.18736 3.70418 6.53719 4.35435 6.12973 5.15404C5.6665 6.06316 5.6665 7.25327 5.6665 9.6335V24.3668C5.6665 26.7471 5.6665 27.9372 6.12973 28.8463C6.53719 29.646 7.18736 30.2961 7.98704 30.7036C8.89617 31.1668 10.0863 31.1668 12.4665 31.1668H21.5332C23.9134 31.1668 25.1035 31.1668 26.0126 30.7036C26.8123 30.2961 27.4625 29.646 27.8699 28.8463C28.3332 27.9372 28.3332 26.7471 28.3332 24.3668V11.3335L19.8332 2.8335ZM16.996 16.7602C15.863 15.4724 13.9737 15.126 12.5542 16.3052C11.1346 17.4844 10.9348 19.4559 12.0495 20.8506C13.1643 22.2452 16.996 25.5002 16.996 25.5002C16.996 25.5002 20.8276 22.2452 21.9424 20.8506C23.0571 19.4559 22.8817 17.472 21.4377 16.3052C19.9938 15.1384 18.1289 15.4724 16.996 16.7602Z" stroke="#1C222E" stroke-width="2" stroke-linecap="round" stroke-linejoin="round"/>
</svg>
