<?xml version="1.0" standalone="no"?>
<!DOCTYPE svg PUBLIC "-//W3C//DTD SVG 20010904//EN"
 "http://www.w3.org/TR/2001/REC-SVG-20010904/DTD/svg10.dtd">
<svg version="1.0" xmlns="http://www.w3.org/2000/svg"
 width="700.000000pt" height="700.000000pt" viewBox="0 0 700.000000 700.000000"
 preserveAspectRatio="xMidYMid meet">
<metadata>
Created by potrace 1.14, written by Peter Selinger 2001-2017
</metadata>
<g transform="translate(0.000000,700.000000) scale(0.100000,-0.100000)"
fill="#000000" stroke="none">
<path d="M0 3500 l0 -3500 3500 0 3500 0 0 3500 0 3500 -3500 0 -3500 0 0
-3500z m3675 2585 c107 -27 212 -88 385 -224 l165 -130 553 -1 c489 0 557 -2
585 -16 46 -23 66 -44 89 -87 18 -36 20 -68 25 -456 l6 -416 129 -100 c241
-186 332 -319 367 -535 7 -43 11 -553 11 -1522 l0 -1458 48 0 c81 -1 165 -54
191 -123 16 -42 13 -113 -5 -150 -24 -46 -44 -66 -89 -89 -39 -20 -50 -21
-2635 -21 -2585 0 -2596 1 -2635 21 -68 34 -105 93 -105 167 0 111 82 192 196
194 l41 1 6 962 c4 529 7 1187 7 1462 1 532 5 590 50 709 29 77 109 196 169
249 98 88 1883 1471 1934 1499 156 84 342 107 512 64z"/>
<path d="M3398 5706 c-21 -7 -50 -22 -65 -31 -16 -10 -440 -339 -943 -731
-563 -438 -924 -726 -939 -748 -42 -64 -53 -113 -57 -261 -2 -77 -6 -737 -8
-1468 l-4 -1327 644 0 644 0 0 378 c0 285 4 393 14 443 35 163 159 322 306
391 127 60 150 63 515 63 284 0 339 -3 394 -18 185 -51 325 -182 400 -375 l26
-67 3 -407 3 -408 640 0 639 0 -2 1468 c-3 1120 -6 1475 -16 1502 -34 100 -31
98 -982 837 -501 389 -934 721 -962 737 -43 25 -64 30 -132 33 -52 2 -94 -2
-118 -11z m-457 -1576 c79 -15 177 -67 235 -124 57 -58 109 -156 124 -235 5
-29 10 -152 10 -271 0 -246 -7 -298 -52 -390 -58 -120 -185 -215 -317 -240
-89 -17 -614 -13 -690 5 -85 20 -149 56 -211 119 -59 60 -85 100 -113 176 -19
51 -21 77 -21 330 0 266 0 277 23 335 60 151 166 249 311 287 54 14 116 17
356 17 160 1 316 -4 345 -9z m1791 -1 c189 -39 333 -196 358 -390 12 -95 12
-382 0 -479 -24 -188 -160 -342 -341 -385 -76 -18 -602 -22 -690 -5 -173 33
-308 162 -354 337 -21 81 -21 505 0 586 44 169 183 304 345 336 67 13 619 13
682 0z"/>
<path d="M2330 3749 c-13 -5 -28 -15 -32 -22 -4 -7 -8 -110 -8 -229 0 -239 1
-242 63 -253 18 -3 145 -5 284 -3 226 3 254 5 270 21 16 16 18 40 18 237 0
197 -2 221 -18 237 -16 16 -43 18 -285 20 -163 2 -277 -2 -292 -8z"/>
<path d="M4120 3751 c-46 -13 -51 -39 -48 -263 3 -184 5 -209 21 -225 16 -16
42 -18 296 -18 260 0 280 1 300 19 20 18 21 28 21 236 0 208 -1 218 -21 236
-19 18 -41 19 -283 21 -143 1 -272 -2 -286 -6z"/>
<path d="M4747 5327 c15 -13 99 -78 186 -145 l157 -122 0 145 0 145 -186 0
-186 0 29 -23z"/>
<path d="M3159 2010 c-47 -25 -86 -71 -99 -118 -6 -22 -10 -179 -10 -394 l0
-358 450 0 450 0 0 353 c0 223 -4 367 -11 392 -15 54 -52 101 -99 125 -37 19
-59 20 -342 20 -279 -1 -306 -2 -339 -20z"/>
</g>
</svg>
