<svg xmlns="http://www.w3.org/2000/svg" xmlns:xlink="http://www.w3.org/1999/xlink"><defs><style>
    .sprite-symbol-usage {display: none;}
    .sprite-symbol-usage:target {display: inline;}
  </style><symbol viewBox="0 0 37 37" id="icon-arrow-bottom">
<path d="M19.6563 6.16669C19.6563 5.52811 19.1387 5.01044 18.5001 5.01044C17.8615 5.01044 17.3438 5.52811 17.3438 6.16669L17.3438 29.3394C17.1795 29.2386 16.9971 29.1087 16.7899 28.9424C16.1524 28.4304 15.4 27.6737 14.3067 26.5707L11.613 23.8528C11.1635 23.3992 10.4314 23.3959 9.97781 23.8455C9.52426 24.295 9.52099 25.0271 9.97052 25.4806L12.7128 28.2475C13.7456 29.2896 14.5898 30.1414 15.3419 30.7454C16.124 31.3735 16.9179 31.8282 17.8708 31.9497C18.2887 32.0029 18.7115 32.0029 19.1293 31.9497C20.0823 31.8282 20.8761 31.3735 21.6582 30.7454C22.4104 30.1414 23.2545 29.2896 24.2873 28.2475L27.0296 25.4806C27.4792 25.0271 27.4759 24.295 27.0224 23.8455C26.5688 23.3959 25.8367 23.3992 25.3872 23.8528L22.6934 26.5707C21.6002 27.6737 20.8478 28.4304 20.2102 28.9424C20.0031 29.1087 19.8207 29.2386 19.6563 29.3394L19.6563 6.16669Z" />
</symbol><symbol viewBox="0 0 24 24" id="icon-arrow-left">
<path d="M15 20.67C14.81 20.67 14.62 20.6 14.47 20.45L7.95003 13.93C6.89003 12.87 6.89003 11.13 7.95003 10.07L14.47 3.55002C14.76 3.26002 15.24 3.26002 15.53 3.55002C15.82 3.84002 15.82 4.32002 15.53 4.61002L9.01003 11.13C8.53003 11.61 8.53003 12.39 9.01003 12.87L15.53 19.39C15.82 19.68 15.82 20.16 15.53 20.45C15.38 20.59 15.19 20.67 15 20.67Z" />
</symbol><symbol viewBox="0 0 16 16" id="icon-arrow-more">
<path fill-rule="evenodd" clip-rule="evenodd" d="M3.29289 5.29289C3.68342 4.90237 4.31658 4.90237 4.70711 5.29289L8 8.58579L11.2929 5.29289C11.6834 4.90237 12.3166 4.90237 12.7071 5.29289C13.0976 5.68342 13.0976 6.31658 12.7071 6.70711L8.70711 10.7071C8.31658 11.0976 7.68342 11.0976 7.29289 10.7071L3.29289 6.70711C2.90237 6.31658 2.90237 5.68342 3.29289 5.29289Z" />
</symbol><symbol viewBox="0 0 24 24" id="icon-arrow-right">
<path d="M8.9101 20.67C8.7201 20.67 8.5301 20.6 8.3801 20.45C8.0901 20.16 8.0901 19.68 8.3801 19.39L14.9001 12.87C15.3801 12.39 15.3801 11.61 14.9001 11.13L8.3801 4.61002C8.0901 4.32002 8.0901 3.84002 8.3801 3.55002C8.6701 3.26002 9.1501 3.26002 9.4401 3.55002L15.9601 10.07C16.4701 10.58 16.7601 11.27 16.7601 12C16.7601 12.73 16.4801 13.42 15.9601 13.93L9.4401 20.45C9.2901 20.59 9.1001 20.67 8.9101 20.67Z" />
</symbol><symbol viewBox="0 0 37 37" id="icon-arrow-top">
<path d="M19.1293 5.05038C18.7115 4.99712 18.2887 4.99712 17.8708 5.05038C16.9179 5.17184 16.124 5.62653 15.3419 6.25465C14.5898 6.85868 13.7456 7.71041 12.7128 8.75254L9.97052 11.5194C9.52099 11.973 9.52426 12.7051 9.97781 13.1546C10.4314 13.6041 11.1635 13.6008 11.613 13.1473L14.3067 10.4294C15.4 9.32633 16.1524 8.56967 16.7899 8.05768C16.9971 7.8913 17.1795 7.76148 17.3438 7.66068L17.3438 30.8334C17.3438 31.4719 17.8615 31.9896 18.5001 31.9896C19.1387 31.9896 19.6563 31.4719 19.6563 30.8334L19.6563 7.66068C19.8207 7.76148 20.0031 7.8913 20.2102 8.05769C20.8478 8.56967 21.6002 9.32633 22.6934 10.4294L25.3872 13.1473C25.8367 13.6008 26.5688 13.6041 27.0224 13.1546C27.4759 12.7051 27.4792 11.973 27.0296 11.5194L24.2873 8.75252C23.2545 7.7104 22.4104 6.85868 21.6582 6.25465C20.8761 5.62653 20.0823 5.17184 19.1293 5.05038Z" />
</symbol><symbol viewBox="0 0 24 24" id="icon-bag">
<path d="M16.6203 22H7.3797C4.68923 22 2.5 19.8311 2.5 17.1646V11.8354C2.5 9.16894 4.68923 7 7.3797 7H16.6203C19.3108 7 21.5 9.16894 21.5 11.8354V17.1646C21.5 19.8311 19.3108 22 16.6203 22" />
<path d="M15.7551 10C15.344 10 15.0103 9.67634 15.0103 9.27754V6.35689C15.0103 4.75111 13.6635 3.44491 12.0089 3.44491C11.2472 3.44491 10.4477 3.7416 9.87861 4.28778C9.30854 4.83588 8.99272 5.56508 8.98974 6.34341V9.27754C8.98974 9.67634 8.65604 10 8.24487 10C7.8337 10 7.5 9.67634 7.5 9.27754V6.35689C7.50497 5.17303 7.97771 4.08067 8.82984 3.26285C9.68098 2.44311 10.7814 2.03179 12.0119 2C14.4849 2 16.5 3.95449 16.5 6.35689V9.27754C16.5 9.67634 16.1663 10 15.7551 10" />
</symbol><symbol viewBox="0 0 27 27" id="icon-ball">
<path fill-rule="evenodd" clip-rule="evenodd" d="M2.04288 12.5H6.87594C6.79071 11.8808 6.62647 11.2737 6.38623 10.6937C6.01769 9.80393 5.47752 8.99551 4.79656 8.31455C4.46863 7.98662 4.11115 7.69135 3.72926 7.43217C2.79895 8.92702 2.20215 10.651 2.04288 12.5ZM4.93046 5.83087C5.38721 6.14767 5.81584 6.5054 6.21077 6.90034C7.07745 7.76702 7.76494 8.79592 8.23399 9.92829C8.57495 10.7514 8.79562 11.6175 8.89072 12.5H10.0278C10.5801 12.5 11.0278 12.9477 11.0278 13.5C11.0278 14.0523 10.5801 14.5 10.0278 14.5H8.89072C8.79562 15.3825 8.57495 16.2486 8.23399 17.0717C7.76494 18.2041 7.07745 19.233 6.21077 20.0997C5.81584 20.4946 5.38721 20.8523 4.93046 21.1691C7.03612 23.5204 10.0953 25 13.5 25C16.9047 25 19.9639 23.5204 22.0695 21.1691C21.6128 20.8523 21.1841 20.4946 20.7892 20.0997C19.9225 19.233 19.235 18.2041 18.766 17.0717C18.425 16.2486 18.2043 15.3825 18.1092 14.5H14.5V21.8333C14.5 22.3856 14.0523 22.8333 13.5 22.8333C12.9477 22.8333 12.5 22.3856 12.5 21.8333V2.04288C9.49918 2.30136 6.82776 3.71226 4.93046 5.83087ZM14.5 2.04288V12.5H18.1092C18.2043 11.6176 18.425 10.7514 18.766 9.92829C19.235 8.79592 19.9225 7.76702 20.7892 6.90034C21.1841 6.5054 21.6128 6.14767 22.0695 5.83086C20.1722 3.71226 17.5008 2.30136 14.5 2.04288ZM23.2707 7.43215C22.8888 7.69134 22.5313 7.98662 22.2034 8.31456C21.5224 8.99552 20.9823 9.80394 20.6137 10.6937C20.3735 11.2737 20.2093 11.8808 20.124 12.5H24.9571C24.7979 10.651 24.201 8.92701 23.2707 7.43215ZM24.9571 14.5H20.124C20.2093 15.1192 20.3735 15.7264 20.6137 16.3064C20.9823 17.1961 21.5224 18.0045 22.2034 18.6855C22.5313 19.0134 22.8888 19.3087 23.2707 19.5679C24.201 18.073 24.7979 16.349 24.9571 14.5ZM3.72926 19.5678C4.11115 19.3087 4.46863 19.0134 4.79656 18.6854C5.47752 18.0045 6.01769 17.1961 6.38623 16.3063C6.62647 15.7263 6.79071 15.1192 6.87594 14.5H2.04288C2.20215 16.349 2.79895 18.073 3.72926 19.5678ZM0 13.5C0 6.04416 6.04416 0 13.5 0C20.9558 0 27 6.04416 27 13.5C27 20.9558 20.9558 27 13.5 27C6.04416 27 0 20.9558 0 13.5Z" />
</symbol><symbol viewBox="0 0 18 18" id="icon-calendar">
<path fill-rule="evenodd" clip-rule="evenodd" d="M2.25 12.6526V6.94287H15.75V12.6984C15.75 15.0526 14.2681 16.5001 11.8971 16.5001H6.0955C3.74671 16.5001 2.25 15.0226 2.25 12.6526ZM5.96954 10.8076C5.6287 10.8234 5.34715 10.5526 5.33233 10.2084C5.33233 9.86337 5.59907 9.57837 5.9399 9.56262C6.27333 9.56262 6.54748 9.82587 6.55488 10.1626C6.5697 10.5084 6.30296 10.7934 5.96954 10.8076ZM9.01482 10.8076C8.67399 10.8234 8.39243 10.5526 8.37761 10.2084C8.37761 9.86337 8.64435 9.57837 8.98518 9.56262C9.31861 9.56262 9.59276 9.82587 9.60016 10.1626C9.61498 10.5084 9.34824 10.7934 9.01482 10.8076ZM12.0379 13.5676C11.697 13.5601 11.4229 13.2751 11.4229 12.9301C11.4155 12.5851 11.6896 12.3009 12.0305 12.2934H12.0379C12.3861 12.2934 12.6677 12.5784 12.6677 12.9301C12.6677 13.2826 12.3861 13.5676 12.0379 13.5676ZM8.37761 12.9301C8.39243 13.2751 8.67399 13.5459 9.01482 13.5301C9.34824 13.5159 9.61498 13.2309 9.60016 12.8859C9.59276 12.5484 9.31861 12.2851 8.98518 12.2851C8.64435 12.3009 8.37761 12.5851 8.37761 12.9301ZM5.32492 12.9301C5.33974 13.2751 5.6213 13.5459 5.96213 13.5301C6.29555 13.5159 6.56229 13.2309 6.54748 12.8859C6.54007 12.5484 6.26592 12.2851 5.93249 12.2851C5.59166 12.3009 5.32492 12.5851 5.32492 12.9301ZM11.4303 10.2009C11.4303 9.85587 11.697 9.57837 12.0379 9.57087C12.3713 9.57087 12.638 9.84012 12.6529 10.1709C12.6603 10.5159 12.3935 10.8009 12.0601 10.8076C11.7193 10.8151 11.4377 10.5526 11.4303 10.2084V10.2009Z" />
<path opacity="0.4" d="M2.25244 6.94268C2.26207 6.50243 2.29912 5.62868 2.36877 5.34743C2.72442 3.76568 3.93216 2.76068 5.65856 2.61743H12.3419C14.0535 2.76818 15.276 3.77993 15.6317 5.34743C15.7006 5.62118 15.7376 6.50168 15.7473 6.94268H2.25244Z" />
<path d="M6.22873 4.9425C6.55475 4.9425 6.79926 4.69575 6.79926 4.365V2.07825C6.79926 1.7475 6.55475 1.5 6.22873 1.5C5.90271 1.5 5.6582 1.7475 5.6582 2.07825V4.365C5.6582 4.69575 5.90271 4.9425 6.22873 4.9425" />
<path d="M11.7712 4.9425C12.0898 4.9425 12.3417 4.69575 12.3417 4.365V2.07825C12.3417 1.7475 12.0898 1.5 11.7712 1.5C11.4452 1.5 11.2007 1.7475 11.2007 2.07825V4.365C11.2007 4.69575 11.4452 4.9425 11.7712 4.9425" />
</symbol><symbol viewBox="0 0 21 21" id="icon-check">
<path fill-rule="evenodd" clip-rule="evenodd" d="M18.2071 4.54289C18.5976 4.93342 18.5976 5.56658 18.2071 5.95711L8.58211 15.5821C8.19158 15.9726 7.55842 15.9726 7.16789 15.5821L2.79289 11.2071C2.40237 10.8166 2.40237 10.1834 2.79289 9.79289C3.18342 9.40237 3.81658 9.40237 4.20711 9.79289L7.875 13.4608L16.7929 4.54289C17.1834 4.15237 17.8166 4.15237 18.2071 4.54289Z" />
</symbol><symbol viewBox="0 0 16 16" id="icon-comments">
<path fill-rule="evenodd" clip-rule="evenodd" d="M1.3335 7.99992C1.3335 4.49325 4.14016 1.33325 8.0135 1.33325C11.8002 1.33325 14.6668 4.43325 14.6668 7.97992C14.6668 12.0933 11.3068 14.6466 8.00016 14.6466C6.90683 14.6466 5.69416 14.3533 4.72083 13.7799C4.38016 13.5733 4.0935 13.4199 3.72683 13.5399L2.38016 13.9399C2.04016 14.0466 1.7335 13.7799 1.8335 13.4199L2.28016 11.9266C2.3535 11.7199 2.34016 11.4999 2.2335 11.3266C1.66016 10.2733 1.3335 9.11992 1.3335 7.99992ZM7.13366 8.00007C7.13366 8.47341 7.51366 8.85341 7.98699 8.86007C8.46032 8.86007 8.84032 8.47341 8.84032 8.00674C8.84032 7.53341 8.46032 7.15341 7.98699 7.15341C7.52032 7.14674 7.13366 7.53341 7.13366 8.00007ZM4.06006 8.00678C4.06006 8.47345 4.44673 8.86011 4.91339 8.86011C5.38673 8.85345 5.76673 8.47345 5.76673 8.00678C5.76673 7.53345 5.38673 7.15345 4.91339 7.15345C4.44006 7.15345 4.06006 7.53345 4.06006 8.00678ZM11.0602 8.86007C10.5869 8.86007 10.2069 8.4734 10.2069 8.00674C10.2069 7.53341 10.5869 7.15341 11.0602 7.15341C11.5335 7.15341 11.9135 7.53341 11.9135 8.00674C11.9135 8.4734 11.5335 8.86007 11.0602 8.86007Z" />
</symbol><symbol viewBox="0 0 16 16" id="icon-dots">
<path d="M1.5 9C2.32843 9 3 8.32843 3 7.5C3 6.67157 2.32843 6 1.5 6C0.671573 6 0 6.67157 0 7.5C0 8.32843 0.671573 9 1.5 9Z" />
<path d="M8 9C8.82843 9 9.5 8.32843 9.5 7.5C9.5 6.67157 8.82843 6 8 6C7.17157 6 6.5 6.67157 6.5 7.5C6.5 8.32843 7.17157 9 8 9Z" />
<path d="M16 7.5C16 8.32843 15.3284 9 14.5 9C13.6716 9 13 8.32843 13 7.5C13 6.67157 13.6716 6 14.5 6C15.3284 6 16 6.67157 16 7.5Z" />
</symbol><symbol viewBox="0 0 16 16" id="icon-dots-vertical">
<path d="M9 14.5C9 13.6716 8.32843 13 7.5 13C6.67157 13 6 13.6716 6 14.5C6 15.3284 6.67157 16 7.5 16C8.32843 16 9 15.3284 9 14.5Z" />
<path d="M9 8C9 7.17157 8.32843 6.5 7.5 6.5C6.67157 6.5 6 7.17157 6 8C6 8.82843 6.67157 9.5 7.5 9.5C8.32843 9.5 9 8.82843 9 8Z" />
<path d="M7.5 0C8.32843 0 9 0.6716 9 1.5C9 2.3284 8.32843 3 7.5 3C6.67157 3 6 2.3284 6 1.5C6 0.6716 6.67157 0 7.5 0Z" />
</symbol><symbol viewBox="0 0 24 24" fill="none" id="icon-eye-color">
<path opacity="0.4" fill-rule="evenodd" clip-rule="evenodd" d="M17.7366 6.04606C19.4439 7.36388 20.8976 9.29455 21.9415 11.7091C22.0195 11.8924 22.0195 12.1067 21.9415 12.2812C19.8537 17.1103 16.1366 20 12 20H11.9902C7.86341 20 4.14634 17.1103 2.05854 12.2812C1.98049 12.1067 1.98049 11.8924 2.05854 11.7091C4.14634 6.87903 7.86341 4 11.9902 4H12C14.0683 4 16.0293 4.71758 17.7366 6.04606ZM8.09756 12C8.09756 14.1333 9.8439 15.8691 12 15.8691C14.1463 15.8691 15.8927 14.1333 15.8927 12C15.8927 9.85697 14.1463 8.12121 12 8.12121C9.8439 8.12121 8.09756 9.85697 8.09756 12Z" fill="#A9ABB0" />
<path d="M14.4309 11.9969C14.4309 13.3254 13.3382 14.4114 12.0016 14.4114C10.6553 14.4114 9.56262 13.3254 9.56262 11.9969C9.56262 11.832 9.58213 11.6778 9.6114 11.5227H9.66018C10.7431 11.5227 11.6212 10.6694 11.6602 9.60172C11.7675 9.5833 11.8846 9.57263 12.0016 9.57263C13.3382 9.57263 14.4309 10.6587 14.4309 11.9969" fill="#A9ABB0" />
</symbol><symbol viewBox="0 0 40 40" id="icon-house">
<path d="M36.6666 37.9165H3.33325C2.64992 37.9165 2.08325 37.3498 2.08325 36.6665C2.08325 35.9832 2.64992 35.4165 3.33325 35.4165H36.6666C37.3499 35.4165 37.9166 35.9832 37.9166 36.6665C37.9166 37.3498 37.3499 37.9165 36.6666 37.9165Z" />
<path d="M6.16699 36.6666H3.66699L3.75032 16.6165C3.75032 15.1998 4.40033 13.8832 5.51699 13.0166L17.1837 3.9332C18.8337 2.64987 21.1503 2.64987 22.817 3.9332L34.4837 12.9999C35.5837 13.8665 36.2503 15.2165 36.2503 16.6165V36.6666H33.7503V16.6332C33.7503 15.9999 33.4503 15.3832 32.9503 14.9832L21.2837 5.91654C20.5337 5.33321 19.4837 5.33321 18.717 5.91654L7.05032 14.9999C6.55032 15.3832 6.25032 15.9999 6.25032 16.6332L6.16699 36.6666Z" />
<path d="M24.1666 37.9166H15.8333C15.1499 37.9166 14.5833 37.3499 14.5833 36.6666V30.8333C14.5833 28.7666 16.2666 27.0833 18.3333 27.0833H21.6666C23.7333 27.0833 25.4166 28.7666 25.4166 30.8333V36.6666C25.4166 37.3499 24.8499 37.9166 24.1666 37.9166ZM17.0833 35.4166H22.9166V30.8333C22.9166 30.1499 22.3499 29.5833 21.6666 29.5833H18.3333C17.6499 29.5833 17.0833 30.1499 17.0833 30.8333V35.4166Z" />
<path d="M15.8333 24.1666H12.4999C10.8999 24.1666 9.58325 22.8499 9.58325 21.2499V18.7499C9.58325 17.1499 10.8999 15.8333 12.4999 15.8333H15.8333C17.4333 15.8333 18.7499 17.1499 18.7499 18.7499V21.2499C18.7499 22.8499 17.4333 24.1666 15.8333 24.1666ZM12.4999 18.3333C12.2666 18.3333 12.0833 18.5166 12.0833 18.7499V21.2499C12.0833 21.4833 12.2666 21.6666 12.4999 21.6666H15.8333C16.0666 21.6666 16.2499 21.4833 16.2499 21.2499V18.7499C16.2499 18.5166 16.0666 18.3333 15.8333 18.3333H12.4999Z" />
<path d="M27.5 24.1666H24.1667C22.5667 24.1666 21.25 22.8499 21.25 21.2499V18.7499C21.25 17.1499 22.5667 15.8333 24.1667 15.8333H27.5C29.1 15.8333 30.4167 17.1499 30.4167 18.7499V21.2499C30.4167 22.8499 29.1 24.1666 27.5 24.1666ZM24.1667 18.3333C23.9333 18.3333 23.75 18.5166 23.75 18.7499V21.2499C23.75 21.4833 23.9333 21.6666 24.1667 21.6666H27.5C27.7333 21.6666 27.9167 21.4833 27.9167 21.2499V18.7499C27.9167 18.5166 27.7333 18.3333 27.5 18.3333H24.1667Z" />
<path d="M31.6667 12.9165C30.9834 12.9165 30.4167 12.3665 30.4167 11.6832L30.3834 7.9165H24.3C23.6167 7.9165 23.05 7.34984 23.05 6.6665C23.05 5.98317 23.6167 5.4165 24.3 5.4165H31.6334C32.3167 5.4165 32.8834 5.96649 32.8834 6.64982L32.9334 11.6498C32.9167 12.3498 32.3667 12.9165 31.6667 12.9165C31.6667 12.9165 31.6834 12.9165 31.6667 12.9165Z" />
</symbol><symbol viewBox="0 0 24 24" fill="none" id="icon-like-color">
<path d="M8.39001 18.49V8.32998C8.39001 7.92998 8.51001 7.53998 8.73001 7.20998L11.46 3.14998C11.89 2.49998 12.96 2.03998 13.87 2.37998C14.85 2.70998 15.5 3.80997 15.29 4.78997L14.77 8.05998C14.73 8.35998 14.81 8.62998 14.98 8.83998C15.15 9.02998 15.4 9.14997 15.67 9.14997H19.78C20.57 9.14997 21.25 9.46997 21.65 10.03C22.03 10.57 22.1 11.27 21.85 11.98L19.39 19.47C19.08 20.71 17.73 21.72 16.39 21.72H12.49C11.82 21.72 10.88 21.49 10.45 21.06L9.17001 20.07C8.68001 19.7 8.39001 19.11 8.39001 18.49Z" fill="#A9ABB0" />
<path opacity="0.4" d="M5.21 6.38H4.18C2.63 6.38 2 6.98 2 8.46V18.52C2 20 2.63 20.6 4.18 20.6H5.21C6.76 20.6 7.39 20 7.39 18.52V8.46C7.39 6.98 6.76 6.38 5.21 6.38Z" fill="#A9ABB0" />
</symbol><symbol viewBox="0 0 24 24" id="icon-location">
<path fill-rule="evenodd" clip-rule="evenodd" d="M8.53164 2.93677C10.7165 1.66727 13.4021 1.68946 15.5664 2.99489C17.7095 4.32691 19.012 6.70418 18.9999 9.26144C18.95 11.8019 17.5534 14.19 15.8075 16.0361C14.7999 17.1064 13.6727 18.0528 12.4489 18.856C12.3228 18.9289 12.1848 18.9777 12.0415 19C11.9036 18.9941 11.7694 18.9534 11.6508 18.8814C9.78245 17.6746 8.14335 16.134 6.81234 14.334C5.69859 12.8314 5.06584 11.016 5 9.13442C4.99856 6.57225 6.34677 4.20627 8.53164 2.93677ZM9.79419 10.1948C10.1617 11.1008 11.0292 11.6918 11.9916 11.6918C12.6221 11.6964 13.2282 11.4438 13.6749 10.9905C14.1215 10.5371 14.3715 9.92064 14.3693 9.27838C14.3727 8.29804 13.7955 7.41231 12.9073 7.03477C12.0191 6.65723 10.9951 6.86235 10.3133 7.55435C9.63162 8.24635 9.42667 9.28872 9.79419 10.1948Z" />
<path opacity="0.4" d="M17 21C17 21.5523 14.7614 22 12 22C9.23858 22 7 21.5523 7 21C7 20.4477 9.23858 20 12 20C14.7614 20 17 20.4477 17 21Z" />
</symbol><symbol viewBox="0 0 24 24" id="icon-login">
<path d="M11.6801 15.3699C11.4901 15.3699 11.3001 15.2999 11.1501 15.1499C10.8601 14.8599 10.8601 14.3799 11.1501 14.0899L13.1801 12.0599L11.1501 10.0299C10.8601 9.73994 10.8601 9.25994 11.1501 8.96994C11.4401 8.67994 11.9201 8.67994 12.2101 8.96994L14.7701 11.5299C15.0601 11.8199 15.0601 12.2999 14.7701 12.5899L12.2101 15.1499C12.0701 15.2999 11.8701 15.3699 11.6801 15.3699Z" />
<path d="M14.17 12.8101H4C3.59 12.8101 3.25 12.4701 3.25 12.0601C3.25 11.6501 3.59 11.3101 4 11.3101H14.17C14.58 11.3101 14.92 11.6501 14.92 12.0601C14.92 12.4701 14.58 12.8101 14.17 12.8101Z" />
<path d="M12 20.75C11.59 20.75 11.25 20.41 11.25 20C11.25 19.59 11.59 19.25 12 19.25C16.27 19.25 19.25 16.27 19.25 12C19.25 7.73 16.27 4.75 12 4.75C11.59 4.75 11.25 4.41 11.25 4C11.25 3.59 11.59 3.25 12 3.25C17.15 3.25 20.75 6.85 20.75 12C20.75 17.15 17.15 20.75 12 20.75Z" />
</symbol><symbol viewBox="0 0 24 24" id="icon-mail">
<path opacity="0.4" d="M22 15.9402C22 18.7302 19.76 20.9902 16.97 21.0002H16.96H7.05C4.27 21.0002 2 18.7502 2 15.9602V15.9502C2 15.9502 2.006 11.5242 2.014 9.29824C2.015 8.88024 2.495 8.64624 2.822 8.90624C5.198 10.7912 9.447 14.2282 9.5 14.2732C10.21 14.8422 11.11 15.1632 12.03 15.1632C12.95 15.1632 13.85 14.8422 14.56 14.2622C14.613 14.2272 18.767 10.8932 21.179 8.97724C21.507 8.71624 21.989 8.95024 21.99 9.36724C22 11.5762 22 15.9402 22 15.9402" />
<path d="M21.4759 5.67363C20.6099 4.04163 18.9059 2.99963 17.0299 2.99963H7.04988C5.17388 2.99963 3.46988 4.04163 2.60388 5.67363C2.40988 6.03863 2.50188 6.49363 2.82488 6.75163L10.2499 12.6906C10.7699 13.1106 11.3999 13.3196 12.0299 13.3196C12.0339 13.3196 12.0369 13.3196 12.0399 13.3196C12.0429 13.3196 12.0469 13.3196 12.0499 13.3196C12.6799 13.3196 13.3099 13.1106 13.8299 12.6906L21.2549 6.75163C21.5779 6.49363 21.6699 6.03863 21.4759 5.67363" />
</symbol><symbol viewBox="0 0 32 32" id="icon-pagination-next">
<path fill-rule="evenodd" clip-rule="evenodd" d="M12.6259 9.95958C13.0164 9.56906 13.6496 9.56906 14.0401 9.95958L19.3734 15.2929C19.764 15.6834 19.764 16.3166 19.3734 16.7071L14.0401 22.0405C13.6496 22.431 13.0164 22.431 12.6259 22.0405C12.2354 21.6499 12.2354 21.0168 12.6259 20.6262L17.2521 16L12.6259 11.3738C12.2354 10.9833 12.2354 10.3501 12.6259 9.95958Z" />
</symbol><symbol viewBox="0 0 32 32" id="icon-pagination-prev">
<path fill-rule="evenodd" clip-rule="evenodd" d="M19.3741 22.0404C18.9836 22.4309 18.3504 22.4309 17.9599 22.0404L12.6266 16.7071C12.236 16.3166 12.236 15.6834 12.6266 15.2929L17.9599 9.95954C18.3504 9.56901 18.9836 9.56901 19.3741 9.95954C19.7646 10.3501 19.7646 10.9832 19.3741 11.3738L14.7479 16L19.3741 20.6262C19.7646 21.0167 19.7646 21.6499 19.3741 22.0404Z" />
</symbol><symbol viewBox="0 0 24 24" id="icon-plus">
<path d="M18 12.75H6C5.59 12.75 5.25 12.41 5.25 12C5.25 11.59 5.59 11.25 6 11.25H18C18.41 11.25 18.75 11.59 18.75 12C18.75 12.41 18.41 12.75 18 12.75Z" />
<path d="M12 18.75C11.59 18.75 11.25 18.41 11.25 18V6C11.25 5.59 11.59 5.25 12 5.25C12.41 5.25 12.75 5.59 12.75 6V18C12.75 18.41 12.41 18.75 12 18.75Z" />
</symbol><symbol viewBox="0 0 53 53" id="icon-process-check">
<path fill-rule="evenodd" clip-rule="evenodd" d="M21.8961 14.5605C23.2179 9.92872 29.7821 9.92872 31.104 14.5605C31.5261 16.0397 33.0458 16.9171 34.5379 16.5431C39.2101 15.3719 42.4922 21.0567 39.1418 24.5174C38.0719 25.6225 38.0719 27.3773 39.1418 28.4824C42.4922 31.9431 39.2101 37.6279 34.5379 36.4567C33.0458 36.0827 31.5261 36.9601 31.104 38.4393C29.7821 43.0711 23.2179 43.0711 21.8961 38.4393C21.474 36.9601 19.9543 36.0827 18.4622 36.4567C13.79 37.6279 10.5079 31.9431 13.8583 28.4824C14.9282 27.3773 14.9282 25.6225 13.8583 24.5174C10.5079 21.0567 13.79 15.3719 18.4622 16.5431C19.9543 16.9171 21.474 16.0397 21.8961 14.5605ZM32.411 23.2451C32.7535 22.8341 32.6979 22.2232 32.2869 21.8807C31.8759 21.5382 31.265 21.5937 30.9225 22.0047L26.4488 27.3732C25.9698 27.948 25.6757 28.2973 25.4334 28.5161C25.3211 28.6175 25.2544 28.658 25.2225 28.6734C25.216 28.6766 25.2113 28.6785 25.2084 28.6795C25.2055 28.6785 25.2009 28.6766 25.1944 28.6734C25.1624 28.658 25.0958 28.6175 24.9834 28.5161C24.7411 28.2973 24.447 27.948 23.9681 27.3732L22.0776 25.1047C21.7351 24.6937 21.1243 24.6382 20.7132 24.9807C20.3022 25.3232 20.2467 25.9341 20.5892 26.3451L22.5209 28.6631C22.9452 29.1723 23.3276 29.6314 23.6849 29.954C24.0736 30.3051 24.5632 30.6177 25.2084 30.6177C25.8536 30.6177 26.3432 30.3051 26.7319 29.954C27.0892 29.6314 27.4717 29.1724 27.8959 28.6631L32.411 23.2451Z" />
</symbol><symbol viewBox="0 0 53 53" id="icon-process-message">
<path d="M12.2917 30.6979C11.7567 30.6979 11.323 31.1316 11.323 31.6667C11.323 32.2017 11.7567 32.6354 12.2917 32.6354H16.1667C16.7018 32.6354 17.1355 32.2017 17.1355 31.6667C17.1355 31.1316 16.7018 30.6979 16.1667 30.6979H12.2917Z" />
<path d="M12.2917 34.5729C11.7567 34.5729 11.323 35.0066 11.323 35.5417C11.323 36.0767 11.7567 36.5104 12.2917 36.5104H20.0417C20.5768 36.5104 21.0105 36.0767 21.0105 35.5417C21.0105 35.0066 20.5768 34.5729 20.0417 34.5729H12.2917Z" />
<path d="M15.0157 17.5747L14.8751 17.4583C15.2734 16.9101 15.6974 16.5068 16.2456 16.1084C17.9433 14.875 20.365 14.875 25.2084 14.875H27.7917C32.6352 14.875 35.0569 14.875 36.7545 16.1084C37.3028 16.5068 37.6933 16.8659 38.0916 17.4141L37.9294 17.5755L34.9484 20.5565C32.7762 22.7287 31.2146 24.2874 29.8676 25.3151C28.543 26.3258 27.5405 26.7311 26.4999 26.7311C25.4593 26.7311 24.4568 26.3258 23.1322 25.3151C21.7852 24.2874 20.2236 22.7287 18.0515 20.5565L15.5414 18.0465L15.0157 17.5747Z" />
<path d="M13.5834 26.5C13.5834 23.0901 13.5834 20.8805 14.0138 19.2789L14.2084 19.4535L16.7338 21.979C18.8422 24.0873 20.4945 25.7396 21.957 26.8555C23.4539 27.9976 24.8654 28.6686 26.4999 28.6686C28.1344 28.6686 29.5459 27.9976 31.0429 26.8555C32.5053 25.7396 34.1576 24.0873 36.2659 21.979L38.982 19.2629C39.4167 20.8658 39.4167 23.0787 39.4167 26.5C39.4167 31.3434 39.4167 33.7651 38.1833 35.4628C37.785 36.0111 37.3028 36.4932 36.7545 36.8916C35.0569 38.125 32.6352 38.125 27.7917 38.125H25.2084C23.3634 38.125 21.8699 38.125 20.6339 38.0568C21.7752 37.7892 22.6251 36.7647 22.6251 35.5417C22.6251 34.1149 21.4685 32.9583 20.0417 32.9583H18.4045C18.6243 32.5784 18.7501 32.1372 18.7501 31.6667C18.7501 30.2399 17.5935 29.0833 16.1667 29.0833H13.5927C13.5834 28.3069 13.5834 27.45 13.5834 26.5Z" />
</symbol><symbol viewBox="0 0 53 53" id="icon-process-paper">
<path fill-rule="evenodd" clip-rule="evenodd" d="M38.125 27.3333C38.125 32.3329 38.125 34.8328 36.8916 36.5852C36.4932 37.1512 36.0111 37.6489 35.4628 38.0601C33.7651 39.3333 31.3434 39.3333 26.5 39.3333C21.6566 39.3333 19.2349 39.3333 17.5372 38.0601C16.9889 37.6489 16.5068 37.1512 16.1084 36.5852C14.875 34.8328 14.875 32.3329 14.875 27.3333V24.6666C14.875 23.548 14.875 22.5546 14.8888 21.6666L14.9794 21.6666C16.0799 21.6667 16.7503 21.6668 17.3285 21.5722C20.5065 21.0527 22.999 18.4798 23.5023 15.1993C23.5939 14.6024 23.5938 13.9104 23.5938 12.7744L23.5938 12.6809C24.454 12.6666 25.4164 12.6666 26.5 12.6666C31.3434 12.6666 33.7651 12.6666 35.4628 13.9398C36.0111 14.351 36.4932 14.8488 36.8916 15.4147C38.125 17.1672 38.125 19.667 38.125 24.6666V27.3333ZM27.7917 19.6666C27.2566 19.6666 26.8229 20.1143 26.8229 20.6666C26.8229 21.2189 27.2566 21.6666 27.7917 21.6666H31.6667C32.2017 21.6666 32.6354 21.2189 32.6354 20.6666C32.6354 20.1143 32.2017 19.6666 31.6667 19.6666H27.7917ZM21.3333 25C20.7983 25 20.3646 25.4477 20.3646 26C20.3646 26.5522 20.7983 27 21.3333 27H31.6667C32.2017 27 32.6354 26.5522 32.6354 26C32.6354 25.4477 32.2017 25 31.6667 25H21.3333ZM27.7917 30.3333C27.2566 30.3333 26.8229 30.781 26.8229 31.3333C26.8229 31.8856 27.2566 32.3333 27.7917 32.3333H31.6667C32.2017 32.3333 32.6354 31.8856 32.6354 31.3333C32.6354 30.781 32.2017 30.3333 31.6667 30.3333H27.7917Z" />
<path d="M17.0254 19.5969C16.6271 19.662 16.1352 19.6664 14.9594 19.6666C15.0813 17.7471 15.3795 16.4504 16.1084 15.4147C16.5068 14.8488 16.9889 14.351 17.5372 13.9398C18.5405 13.1874 19.7967 12.8796 21.6562 12.7537C21.6561 13.9675 21.6518 14.4752 21.5887 14.8864C21.2166 17.3111 19.3744 19.2128 17.0254 19.5969Z" />
</symbol><symbol viewBox="0 0 53 53" fill="none" id="icon-process-win">
<rect width="53" height="53" rx="8" fill="#F7F7F7" />
<path d="M23.1159 19.6752C24.3269 19.6752 25.3722 18.8714 25.7321 17.7272C25.9803 16.9381 27.0197 16.9381 27.2679 17.7272C27.6278 18.8714 28.6731 19.6752 29.8841 19.6752C30.2588 19.6752 30.5384 19.9056 30.6521 20.267C30.7664 20.6306 30.673 21.0127 30.3484 21.2563C29.3882 21.9769 29.001 23.2371 29.3594 24.3765C29.4918 24.7972 29.3334 25.1574 29.0557 25.3658C28.7826 25.5708 28.4406 25.601 28.1273 25.3658C27.1591 24.6392 25.8409 24.6392 24.8727 25.3658C24.5594 25.601 24.2174 25.5708 23.9443 25.3658C23.6666 25.1574 23.5082 24.7972 23.6406 24.3765C23.999 23.2371 23.6118 21.9769 22.6516 21.2563C22.327 21.0127 22.2336 20.6306 22.3479 20.267C22.4616 19.9056 22.7412 19.6752 23.1159 19.6752Z" fill="#34B166" />
<path fill-rule="evenodd" clip-rule="evenodd" d="M26.5 31.6666C31.8503 31.6666 36.1875 27.3294 36.1875 21.9791C36.1875 16.6289 31.8503 12.2916 26.5 12.2916C21.1497 12.2916 16.8125 16.6289 16.8125 21.9791C16.8125 27.3294 21.1497 31.6666 26.5 31.6666ZM29.1162 17.1459C28.2992 14.5485 24.7008 14.5485 23.8838 17.1459C23.7674 17.5162 23.4464 17.7377 23.1159 17.7377C20.3917 17.7377 19.406 21.2429 21.4886 22.8059C21.7756 23.0213 21.9103 23.4202 21.7923 23.7952C21.3921 25.0677 21.9054 26.2581 22.7812 26.9154C23.6616 27.5761 24.9548 27.7267 26.0358 26.9154C26.3148 26.706 26.6852 26.706 26.9642 26.9154C28.0452 27.7267 29.3384 27.5761 30.2188 26.9154C31.0946 26.2581 31.6079 25.0677 31.2077 23.7952C31.0897 23.4202 31.2244 23.0213 31.5114 22.8059C33.594 21.2429 32.6083 17.7377 29.8841 17.7377C29.5536 17.7377 29.2326 17.5162 29.1162 17.1459Z" fill="#34B166" />
<path d="M26.5 33.6041C29.4774 33.6041 32.1933 32.4848 34.25 30.644V36.6766C34.25 38.697 34.25 39.7072 33.6055 39.9955C32.961 40.2838 32.1722 39.6263 30.5947 38.3114L29.3821 37.3007C28.0068 36.1544 27.3191 35.5812 26.5 35.5812C25.6809 35.5812 24.9932 36.1544 23.6179 37.3007L22.4053 38.3114C20.8278 39.6263 20.039 40.2838 19.3945 39.9955C18.75 39.7072 18.75 38.697 18.75 36.6766V30.644C20.8067 32.4848 23.5226 33.6041 26.5 33.6041Z" fill="#34B166" />
</symbol><symbol viewBox="0 0 18 18" id="icon-profile">
<path d="M9.11895 8.715C9.09645 8.715 9.08145 8.715 9.05895 8.715C9.02145 8.7075 8.96894 8.7075 8.92394 8.715C6.74894 8.6475 5.10645 6.9375 5.10645 4.83C5.10645 2.685 6.85395 0.9375 8.99895 0.9375C11.1439 0.9375 12.8914 2.685 12.8914 4.83C12.8839 6.9375 11.2339 8.6475 9.14145 8.715C9.13395 8.715 9.12645 8.715 9.11895 8.715ZM8.99895 2.0625C7.47645 2.0625 6.23145 3.3075 6.23145 4.83C6.23145 6.33 7.40145 7.5375 8.89395 7.59C8.93145 7.5825 9.03645 7.5825 9.13395 7.59C10.6039 7.5225 11.7589 6.315 11.7664 4.83C11.7664 3.3075 10.5214 2.0625 8.99895 2.0625Z" />
<path d="M9.12672 16.9125C7.65672 16.9125 6.17922 16.5375 5.06172 15.7875C4.01922 15.0975 3.44922 14.1525 3.44922 13.125C3.44922 12.0975 4.01922 11.145 5.06172 10.4475C7.31172 8.955 10.9567 8.955 13.1917 10.4475C14.2267 11.1375 14.8042 12.0825 14.8042 13.11C14.8042 14.1375 14.2342 15.09 13.1917 15.7875C12.0667 16.5375 10.5967 16.9125 9.12672 16.9125ZM5.68422 11.3925C4.96422 11.8725 4.57422 12.4875 4.57422 13.1325C4.57422 13.77 4.97172 14.385 5.68422 14.8575C7.55172 16.11 10.7017 16.11 12.5692 14.8575C13.2892 14.3775 13.6792 13.7625 13.6792 13.1175C13.6792 12.48 13.2817 11.865 12.5692 11.3925C10.7017 10.1475 7.55172 10.1475 5.68422 11.3925Z" />
</symbol><symbol viewBox="0 0 5 9" id="icon-right-full">
<path d="M0.749376 -1.90735e-06C0.940376 -1.90735e-06 1.13238 0.072998 1.27838 0.218998L4.76538 3.689C4.90638 3.83 4.98538 4.021 4.98538 4.221C4.98538 4.42 4.90638 4.611 4.76538 4.752L1.27838 8.224C0.985376 8.516 0.511376 8.516 0.218376 8.222C-0.0736236 7.928 -0.0726236 7.453 0.220376 7.161L3.17338 4.221L0.220376 1.281C-0.0726236 0.988998 -0.0736236 0.514999 0.218376 0.220999C0.364376 0.0729988 0.557376 -1.90735e-06 0.749376 -1.90735e-06" />
</symbol><symbol viewBox="0 0 24 24" id="icon-search">
<path fill-rule="evenodd" clip-rule="evenodd" d="M11.5 4C7.35786 4 4 7.35786 4 11.5C4 15.6421 7.35786 19 11.5 19C13.5131 19 15.341 18.2069 16.6881 16.916C16.7192 16.8729 16.7542 16.8317 16.793 16.7929C16.8318 16.7541 16.873 16.7191 16.9161 16.688C18.2069 15.3409 19 13.5131 19 11.5C19 7.35786 15.6421 4 11.5 4ZM18.8876 17.4733C20.2086 15.8414 21 13.7631 21 11.5C21 6.25329 16.7467 2 11.5 2C6.25329 2 2 6.25329 2 11.5C2 16.7467 6.25329 21 11.5 21C13.7632 21 15.8415 20.2086 17.4734 18.8875L20.2929 21.7071C20.6834 22.0976 21.3166 22.0976 21.7071 21.7071C22.0976 21.3166 22.0976 20.6834 21.7071 20.2929L18.8876 17.4733Z" />
</symbol><symbol viewBox="0 0 26 26" id="icon-star">
<path d="M12.1359 1.48359C12.5216 0.821321 13.4784 0.821321 13.8641 1.48359L16.9809 6.83474C17.1222 7.07734 17.359 7.24937 17.6333 7.30879L23.6857 8.61941C24.4348 8.78162 24.7304 9.69154 24.2198 10.2631L20.0937 14.8809C19.9066 15.0902 19.8162 15.3686 19.8444 15.6479L20.4683 21.8091C20.5455 22.5716 19.7714 23.1339 19.0701 22.8249L13.4032 20.3277C13.1463 20.2145 12.8537 20.2145 12.5968 20.3277L6.92991 22.8249C6.22857 23.1339 5.45454 22.5716 5.53174 21.8091L6.15556 15.6479C6.18384 15.3686 6.0934 15.0902 5.90633 14.8809L1.78022 10.2631C1.26956 9.69154 1.56521 8.78162 2.31427 8.61941L8.36665 7.30879C8.64104 7.24937 8.87782 7.07735 9.01912 6.83474L12.1359 1.48359Z" />
</symbol><symbol viewBox="0 0 18 18" id="icon-star-half">
<path opacity="0.4" d="M9.73223 2.33521L11.4021 5.69092C11.5251 5.93404 11.7599 6.10288 12.0307 6.1404L15.7815 6.68667C16.0006 6.71744 16.1994 6.833 16.3336 7.00934C16.4664 7.18343 16.5234 7.40404 16.4912 7.6209C16.4649 7.80099 16.3802 7.96757 16.2504 8.09514L13.5325 10.7297C13.3337 10.9136 13.2437 11.186 13.2917 11.4523L13.9609 15.1562C14.0321 15.6035 13.7358 16.0252 13.2917 16.11C13.1087 16.1392 12.9212 16.1085 12.7561 16.0244L9.41041 14.2813C9.1621 14.156 8.86879 14.156 8.62049 14.2813L5.27477 16.0244C4.86368 16.2428 4.35432 16.0942 4.12552 15.689C4.04075 15.5277 4.01075 15.3438 4.0385 15.1645L4.70765 11.4599C4.75566 11.1942 4.66489 10.9203 4.46685 10.7365L1.74901 8.10339C1.42569 7.79123 1.41594 7.27722 1.72726 6.95381C1.73401 6.94706 1.74151 6.93955 1.74901 6.93205C1.87804 6.80073 2.04758 6.71744 2.23062 6.69568L5.98142 6.14865C6.25148 6.11038 6.48628 5.94304 6.61006 5.69842L8.2199 2.33521C8.36318 2.04706 8.66025 1.86772 8.98282 1.87523H9.08334C9.36315 1.90899 9.60695 2.08233 9.73223 2.33521" />
<path d="M8.99401 14.1878C8.84873 14.1923 8.7072 14.2314 8.5799 14.3012L5.25054 16.0404C4.84317 16.2348 4.35567 16.0839 4.12728 15.6943C4.04266 15.5352 4.01195 15.3528 4.04041 15.1741L4.70538 11.4774C4.75031 11.2086 4.66045 10.9354 4.465 10.7463L1.74595 8.11386C1.4232 7.79785 1.41721 7.27917 1.73322 6.95566C1.73772 6.95115 1.74146 6.9474 1.74595 6.94365C1.87475 6.81604 2.041 6.73197 2.21997 6.7057L5.97392 6.15325C6.24575 6.11872 6.48164 5.94908 6.60145 5.70288L8.23318 2.29734C8.38819 2.02261 8.68549 1.85898 9 1.87624C8.99401 2.09918 8.99401 14.0362 8.99401 14.1878" />
</symbol><symbol viewBox="0 0 18 18" id="icon-wallet">
<path fill-rule="evenodd" clip-rule="evenodd" d="M16.4973 6.28134H13.3213C11.8433 6.28394 10.646 7.45136 10.6433 8.89242C10.6413 10.3367 11.84 11.5094 13.3213 11.5113H16.5V11.7408C16.5 14.2602 14.9727 15.75 12.388 15.75H5.61267C3.02733 15.75 1.5 14.2602 1.5 11.7408V6.25339C1.5 3.73397 3.02733 2.25 5.61267 2.25H12.3853C14.97 2.25 16.4973 3.73397 16.4973 6.25339V6.28134ZM5.05467 6.27549H9.28467H9.28733H9.29267C9.60933 6.27419 9.86533 6.02264 9.864 5.71324C9.86267 5.40448 9.604 5.15488 9.28733 5.15618H5.05467C4.74 5.15748 4.48467 5.40644 4.48333 5.71389C4.482 6.02264 4.738 6.27419 5.05467 6.27549Z" />
<path opacity="0.4" d="M12.0281 9.22255C12.1849 9.93594 12.8104 10.4379 13.5244 10.4248H15.9619C16.259 10.4248 16.5 10.1787 16.5 9.87458V7.97592C16.4994 7.67242 16.259 7.4257 15.9619 7.42505H13.4671C12.6548 7.42766 11.9987 8.10189 12 8.93276C12 9.03001 12.0096 9.12726 12.0281 9.22255" />
<path d="M14.25 9C14.25 9.41421 13.9142 9.75 13.5 9.75C13.0858 9.75 12.75 9.41421 12.75 9C12.75 8.58579 13.0858 8.25 13.5 8.25C13.9142 8.25 14.25 8.58579 14.25 9Z" />
</symbol></defs><use id="icon-arrow-bottom-usage" xlink:href="#icon-arrow-bottom" class="sprite-symbol-usage" /><use id="icon-arrow-left-usage" xlink:href="#icon-arrow-left" class="sprite-symbol-usage" /><use id="icon-arrow-more-usage" xlink:href="#icon-arrow-more" class="sprite-symbol-usage" /><use id="icon-arrow-right-usage" xlink:href="#icon-arrow-right" class="sprite-symbol-usage" /><use id="icon-arrow-top-usage" xlink:href="#icon-arrow-top" class="sprite-symbol-usage" /><use id="icon-bag-usage" xlink:href="#icon-bag" class="sprite-symbol-usage" /><use id="icon-ball-usage" xlink:href="#icon-ball" class="sprite-symbol-usage" /><use id="icon-calendar-usage" xlink:href="#icon-calendar" class="sprite-symbol-usage" /><use id="icon-check-usage" xlink:href="#icon-check" class="sprite-symbol-usage" /><use id="icon-comments-usage" xlink:href="#icon-comments" class="sprite-symbol-usage" /><use id="icon-dots-usage" xlink:href="#icon-dots" class="sprite-symbol-usage" /><use id="icon-dots-vertical-usage" xlink:href="#icon-dots-vertical" class="sprite-symbol-usage" /><use id="icon-eye-color-usage" xlink:href="#icon-eye-color" class="sprite-symbol-usage" /><use id="icon-house-usage" xlink:href="#icon-house" class="sprite-symbol-usage" /><use id="icon-like-color-usage" xlink:href="#icon-like-color" class="sprite-symbol-usage" /><use id="icon-location-usage" xlink:href="#icon-location" class="sprite-symbol-usage" /><use id="icon-login-usage" xlink:href="#icon-login" class="sprite-symbol-usage" /><use id="icon-mail-usage" xlink:href="#icon-mail" class="sprite-symbol-usage" /><use id="icon-pagination-next-usage" xlink:href="#icon-pagination-next" class="sprite-symbol-usage" /><use id="icon-pagination-prev-usage" xlink:href="#icon-pagination-prev" class="sprite-symbol-usage" /><use id="icon-plus-usage" xlink:href="#icon-plus" class="sprite-symbol-usage" /><use id="icon-process-check-usage" xlink:href="#icon-process-check" class="sprite-symbol-usage" /><use id="icon-process-message-usage" xlink:href="#icon-process-message" class="sprite-symbol-usage" /><use id="icon-process-paper-usage" xlink:href="#icon-process-paper" class="sprite-symbol-usage" /><use id="icon-process-win-usage" xlink:href="#icon-process-win" class="sprite-symbol-usage" /><use id="icon-profile-usage" xlink:href="#icon-profile" class="sprite-symbol-usage" /><use id="icon-right-full-usage" xlink:href="#icon-right-full" class="sprite-symbol-usage" /><use id="icon-search-usage" xlink:href="#icon-search" class="sprite-symbol-usage" /><use id="icon-star-usage" xlink:href="#icon-star" class="sprite-symbol-usage" /><use id="icon-star-half-usage" xlink:href="#icon-star-half" class="sprite-symbol-usage" /><use id="icon-wallet-usage" xlink:href="#icon-wallet" class="sprite-symbol-usage" /></svg>