<svg xmlns="http://www.w3.org/2000/svg" xmlns:xlink="http://www.w3.org/1999/xlink"><defs><style>
    .sprite-symbol-usage {display: none;}
    .sprite-symbol-usage:target {display: inline;}
  </style><symbol viewBox="0 0 27 27" id="icon-ball">
<path fill-rule="evenodd" clip-rule="evenodd" d="M2.04288 12.5H6.87594C6.79071 11.8808 6.62647 11.2737 6.38623 10.6937C6.01769 9.80393 5.47752 8.99551 4.79656 8.31455C4.46863 7.98662 4.11115 7.69135 3.72926 7.43217C2.79895 8.92702 2.20215 10.651 2.04288 12.5ZM4.93046 5.83087C5.38721 6.14767 5.81584 6.5054 6.21077 6.90034C7.07745 7.76702 7.76494 8.79592 8.23399 9.92829C8.57495 10.7514 8.79562 11.6175 8.89072 12.5H10.0278C10.5801 12.5 11.0278 12.9477 11.0278 13.5C11.0278 14.0523 10.5801 14.5 10.0278 14.5H8.89072C8.79562 15.3825 8.57495 16.2486 8.23399 17.0717C7.76494 18.2041 7.07745 19.233 6.21077 20.0997C5.81584 20.4946 5.38721 20.8523 4.93046 21.1691C7.03612 23.5204 10.0953 25 13.5 25C16.9047 25 19.9639 23.5204 22.0695 21.1691C21.6128 20.8523 21.1841 20.4946 20.7892 20.0997C19.9225 19.233 19.235 18.2041 18.766 17.0717C18.425 16.2486 18.2043 15.3825 18.1092 14.5H14.5V21.8333C14.5 22.3856 14.0523 22.8333 13.5 22.8333C12.9477 22.8333 12.5 22.3856 12.5 21.8333V2.04288C9.49918 2.30136 6.82776 3.71226 4.93046 5.83087ZM14.5 2.04288V12.5H18.1092C18.2043 11.6176 18.425 10.7514 18.766 9.92829C19.235 8.79592 19.9225 7.76702 20.7892 6.90034C21.1841 6.5054 21.6128 6.14767 22.0695 5.83086C20.1722 3.71226 17.5008 2.30136 14.5 2.04288ZM23.2707 7.43215C22.8888 7.69134 22.5313 7.98662 22.2034 8.31456C21.5224 8.99552 20.9823 9.80394 20.6137 10.6937C20.3735 11.2737 20.2093 11.8808 20.124 12.5H24.9571C24.7979 10.651 24.201 8.92701 23.2707 7.43215ZM24.9571 14.5H20.124C20.2093 15.1192 20.3735 15.7264 20.6137 16.3064C20.9823 17.1961 21.5224 18.0045 22.2034 18.6855C22.5313 19.0134 22.8888 19.3087 23.2707 19.5679C24.201 18.073 24.7979 16.349 24.9571 14.5ZM3.72926 19.5678C4.11115 19.3087 4.46863 19.0134 4.79656 18.6854C5.47752 18.0045 6.01769 17.1961 6.38623 16.3063C6.62647 15.7263 6.79071 15.1192 6.87594 14.5H2.04288C2.20215 16.349 2.79895 18.073 3.72926 19.5678ZM0 13.5C0 6.04416 6.04416 0 13.5 0C20.9558 0 27 6.04416 27 13.5C27 20.9558 20.9558 27 13.5 27C6.04416 27 0 20.9558 0 13.5Z" />
</symbol><symbol viewBox="0 0 24 24" fill="none" id="icon-eye-color">
<path opacity="0.4" fill-rule="evenodd" clip-rule="evenodd" d="M17.7366 6.04606C19.4439 7.36388 20.8976 9.29455 21.9415 11.7091C22.0195 11.8924 22.0195 12.1067 21.9415 12.2812C19.8537 17.1103 16.1366 20 12 20H11.9902C7.86341 20 4.14634 17.1103 2.05854 12.2812C1.98049 12.1067 1.98049 11.8924 2.05854 11.7091C4.14634 6.87903 7.86341 4 11.9902 4H12C14.0683 4 16.0293 4.71758 17.7366 6.04606ZM8.09756 12C8.09756 14.1333 9.8439 15.8691 12 15.8691C14.1463 15.8691 15.8927 14.1333 15.8927 12C15.8927 9.85697 14.1463 8.12121 12 8.12121C9.8439 8.12121 8.09756 9.85697 8.09756 12Z" fill="#A9ABB0" />
<path d="M14.4309 11.9969C14.4309 13.3254 13.3382 14.4114 12.0016 14.4114C10.6553 14.4114 9.56262 13.3254 9.56262 11.9969C9.56262 11.832 9.58213 11.6778 9.6114 11.5227H9.66018C10.7431 11.5227 11.6212 10.6694 11.6602 9.60172C11.7675 9.5833 11.8846 9.57263 12.0016 9.57263C13.3382 9.57263 14.4309 10.6587 14.4309 11.9969" fill="#A9ABB0" />
</symbol><symbol viewBox="0 0 40 40" id="icon-house">
<path d="M36.6666 37.9165H3.33325C2.64992 37.9165 2.08325 37.3498 2.08325 36.6665C2.08325 35.9832 2.64992 35.4165 3.33325 35.4165H36.6666C37.3499 35.4165 37.9166 35.9832 37.9166 36.6665C37.9166 37.3498 37.3499 37.9165 36.6666 37.9165Z" />
<path d="M6.16699 36.6666H3.66699L3.75032 16.6165C3.75032 15.1998 4.40033 13.8832 5.51699 13.0166L17.1837 3.9332C18.8337 2.64987 21.1503 2.64987 22.817 3.9332L34.4837 12.9999C35.5837 13.8665 36.2503 15.2165 36.2503 16.6165V36.6666H33.7503V16.6332C33.7503 15.9999 33.4503 15.3832 32.9503 14.9832L21.2837 5.91654C20.5337 5.33321 19.4837 5.33321 18.717 5.91654L7.05032 14.9999C6.55032 15.3832 6.25032 15.9999 6.25032 16.6332L6.16699 36.6666Z" />
<path d="M24.1666 37.9166H15.8333C15.1499 37.9166 14.5833 37.3499 14.5833 36.6666V30.8333C14.5833 28.7666 16.2666 27.0833 18.3333 27.0833H21.6666C23.7333 27.0833 25.4166 28.7666 25.4166 30.8333V36.6666C25.4166 37.3499 24.8499 37.9166 24.1666 37.9166ZM17.0833 35.4166H22.9166V30.8333C22.9166 30.1499 22.3499 29.5833 21.6666 29.5833H18.3333C17.6499 29.5833 17.0833 30.1499 17.0833 30.8333V35.4166Z" />
<path d="M15.8333 24.1666H12.4999C10.8999 24.1666 9.58325 22.8499 9.58325 21.2499V18.7499C9.58325 17.1499 10.8999 15.8333 12.4999 15.8333H15.8333C17.4333 15.8333 18.7499 17.1499 18.7499 18.7499V21.2499C18.7499 22.8499 17.4333 24.1666 15.8333 24.1666ZM12.4999 18.3333C12.2666 18.3333 12.0833 18.5166 12.0833 18.7499V21.2499C12.0833 21.4833 12.2666 21.6666 12.4999 21.6666H15.8333C16.0666 21.6666 16.2499 21.4833 16.2499 21.2499V18.7499C16.2499 18.5166 16.0666 18.3333 15.8333 18.3333H12.4999Z" />
<path d="M27.5 24.1666H24.1667C22.5667 24.1666 21.25 22.8499 21.25 21.2499V18.7499C21.25 17.1499 22.5667 15.8333 24.1667 15.8333H27.5C29.1 15.8333 30.4167 17.1499 30.4167 18.7499V21.2499C30.4167 22.8499 29.1 24.1666 27.5 24.1666ZM24.1667 18.3333C23.9333 18.3333 23.75 18.5166 23.75 18.7499V21.2499C23.75 21.4833 23.9333 21.6666 24.1667 21.6666H27.5C27.7333 21.6666 27.9167 21.4833 27.9167 21.2499V18.7499C27.9167 18.5166 27.7333 18.3333 27.5 18.3333H24.1667Z" />
<path d="M31.6667 12.9165C30.9834 12.9165 30.4167 12.3665 30.4167 11.6832L30.3834 7.9165H24.3C23.6167 7.9165 23.05 7.34984 23.05 6.6665C23.05 5.98317 23.6167 5.4165 24.3 5.4165H31.6334C32.3167 5.4165 32.8834 5.96649 32.8834 6.64982L32.9334 11.6498C32.9167 12.3498 32.3667 12.9165 31.6667 12.9165C31.6667 12.9165 31.6834 12.9165 31.6667 12.9165Z" />
</symbol><symbol viewBox="0 0 24 24" fill="none" id="icon-like-color">
<path d="M8.39001 18.49V8.32998C8.39001 7.92998 8.51001 7.53998 8.73001 7.20998L11.46 3.14998C11.89 2.49998 12.96 2.03998 13.87 2.37998C14.85 2.70998 15.5 3.80997 15.29 4.78997L14.77 8.05998C14.73 8.35998 14.81 8.62998 14.98 8.83998C15.15 9.02998 15.4 9.14997 15.67 9.14997H19.78C20.57 9.14997 21.25 9.46997 21.65 10.03C22.03 10.57 22.1 11.27 21.85 11.98L19.39 19.47C19.08 20.71 17.73 21.72 16.39 21.72H12.49C11.82 21.72 10.88 21.49 10.45 21.06L9.17001 20.07C8.68001 19.7 8.39001 19.11 8.39001 18.49Z" fill="#A9ABB0" />
<path opacity="0.4" d="M5.21 6.38H4.18C2.63 6.38 2 6.98 2 8.46V18.52C2 20 2.63 20.6 4.18 20.6H5.21C6.76 20.6 7.39 20 7.39 18.52V8.46C7.39 6.98 6.76 6.38 5.21 6.38Z" fill="#A9ABB0" />
</symbol><symbol viewBox="0 0 24 24" id="icon-login">
<path d="M11.6801 15.3699C11.4901 15.3699 11.3001 15.2999 11.1501 15.1499C10.8601 14.8599 10.8601 14.3799 11.1501 14.0899L13.1801 12.0599L11.1501 10.0299C10.8601 9.73994 10.8601 9.25994 11.1501 8.96994C11.4401 8.67994 11.9201 8.67994 12.2101 8.96994L14.7701 11.5299C15.0601 11.8199 15.0601 12.2999 14.7701 12.5899L12.2101 15.1499C12.0701 15.2999 11.8701 15.3699 11.6801 15.3699Z" />
<path d="M14.17 12.8101H4C3.59 12.8101 3.25 12.4701 3.25 12.0601C3.25 11.6501 3.59 11.3101 4 11.3101H14.17C14.58 11.3101 14.92 11.6501 14.92 12.0601C14.92 12.4701 14.58 12.8101 14.17 12.8101Z" />
<path d="M12 20.75C11.59 20.75 11.25 20.41 11.25 20C11.25 19.59 11.59 19.25 12 19.25C16.27 19.25 19.25 16.27 19.25 12C19.25 7.73 16.27 4.75 12 4.75C11.59 4.75 11.25 4.41 11.25 4C11.25 3.59 11.59 3.25 12 3.25C17.15 3.25 20.75 6.85 20.75 12C20.75 17.15 17.15 20.75 12 20.75Z" />
</symbol><symbol viewBox="0 0 24 24" id="icon-plus">
<path d="M18 12.75H6C5.59 12.75 5.25 12.41 5.25 12C5.25 11.59 5.59 11.25 6 11.25H18C18.41 11.25 18.75 11.59 18.75 12C18.75 12.41 18.41 12.75 18 12.75Z" />
<path d="M12 18.75C11.59 18.75 11.25 18.41 11.25 18V6C11.25 5.59 11.59 5.25 12 5.25C12.41 5.25 12.75 5.59 12.75 6V18C12.75 18.41 12.41 18.75 12 18.75Z" />
</symbol><symbol viewBox="0 0 53 53" id="icon-process-check">
<path fill-rule="evenodd" clip-rule="evenodd" d="M21.8961 14.5605C23.2179 9.92872 29.7821 9.92872 31.104 14.5605C31.5261 16.0397 33.0458 16.9171 34.5379 16.5431C39.2101 15.3719 42.4922 21.0567 39.1418 24.5174C38.0719 25.6225 38.0719 27.3773 39.1418 28.4824C42.4922 31.9431 39.2101 37.6279 34.5379 36.4567C33.0458 36.0827 31.5261 36.9601 31.104 38.4393C29.7821 43.0711 23.2179 43.0711 21.8961 38.4393C21.474 36.9601 19.9543 36.0827 18.4622 36.4567C13.79 37.6279 10.5079 31.9431 13.8583 28.4824C14.9282 27.3773 14.9282 25.6225 13.8583 24.5174C10.5079 21.0567 13.79 15.3719 18.4622 16.5431C19.9543 16.9171 21.474 16.0397 21.8961 14.5605ZM32.411 23.2451C32.7535 22.8341 32.6979 22.2232 32.2869 21.8807C31.8759 21.5382 31.265 21.5937 30.9225 22.0047L26.4488 27.3732C25.9698 27.948 25.6757 28.2973 25.4334 28.5161C25.3211 28.6175 25.2544 28.658 25.2225 28.6734C25.216 28.6766 25.2113 28.6785 25.2084 28.6795C25.2055 28.6785 25.2009 28.6766 25.1944 28.6734C25.1624 28.658 25.0958 28.6175 24.9834 28.5161C24.7411 28.2973 24.447 27.948 23.9681 27.3732L22.0776 25.1047C21.7351 24.6937 21.1243 24.6382 20.7132 24.9807C20.3022 25.3232 20.2467 25.9341 20.5892 26.3451L22.5209 28.6631C22.9452 29.1723 23.3276 29.6314 23.6849 29.954C24.0736 30.3051 24.5632 30.6177 25.2084 30.6177C25.8536 30.6177 26.3432 30.3051 26.7319 29.954C27.0892 29.6314 27.4717 29.1724 27.8959 28.6631L32.411 23.2451Z" />
</symbol><symbol viewBox="0 0 53 53" id="icon-process-message">
<path d="M12.2917 30.6979C11.7567 30.6979 11.323 31.1316 11.323 31.6667C11.323 32.2017 11.7567 32.6354 12.2917 32.6354H16.1667C16.7018 32.6354 17.1355 32.2017 17.1355 31.6667C17.1355 31.1316 16.7018 30.6979 16.1667 30.6979H12.2917Z" />
<path d="M12.2917 34.5729C11.7567 34.5729 11.323 35.0066 11.323 35.5417C11.323 36.0767 11.7567 36.5104 12.2917 36.5104H20.0417C20.5768 36.5104 21.0105 36.0767 21.0105 35.5417C21.0105 35.0066 20.5768 34.5729 20.0417 34.5729H12.2917Z" />
<path d="M15.0157 17.5747L14.8751 17.4583C15.2734 16.9101 15.6974 16.5068 16.2456 16.1084C17.9433 14.875 20.365 14.875 25.2084 14.875H27.7917C32.6352 14.875 35.0569 14.875 36.7545 16.1084C37.3028 16.5068 37.6933 16.8659 38.0916 17.4141L37.9294 17.5755L34.9484 20.5565C32.7762 22.7287 31.2146 24.2874 29.8676 25.3151C28.543 26.3258 27.5405 26.7311 26.4999 26.7311C25.4593 26.7311 24.4568 26.3258 23.1322 25.3151C21.7852 24.2874 20.2236 22.7287 18.0515 20.5565L15.5414 18.0465L15.0157 17.5747Z" />
<path d="M13.5834 26.5C13.5834 23.0901 13.5834 20.8805 14.0138 19.2789L14.2084 19.4535L16.7338 21.979C18.8422 24.0873 20.4945 25.7396 21.957 26.8555C23.4539 27.9976 24.8654 28.6686 26.4999 28.6686C28.1344 28.6686 29.5459 27.9976 31.0429 26.8555C32.5053 25.7396 34.1576 24.0873 36.2659 21.979L38.982 19.2629C39.4167 20.8658 39.4167 23.0787 39.4167 26.5C39.4167 31.3434 39.4167 33.7651 38.1833 35.4628C37.785 36.0111 37.3028 36.4932 36.7545 36.8916C35.0569 38.125 32.6352 38.125 27.7917 38.125H25.2084C23.3634 38.125 21.8699 38.125 20.6339 38.0568C21.7752 37.7892 22.6251 36.7647 22.6251 35.5417C22.6251 34.1149 21.4685 32.9583 20.0417 32.9583H18.4045C18.6243 32.5784 18.7501 32.1372 18.7501 31.6667C18.7501 30.2399 17.5935 29.0833 16.1667 29.0833H13.5927C13.5834 28.3069 13.5834 27.45 13.5834 26.5Z" />
</symbol><symbol viewBox="0 0 53 53" id="icon-process-paper">
<path fill-rule="evenodd" clip-rule="evenodd" d="M38.125 27.3333C38.125 32.3329 38.125 34.8328 36.8916 36.5852C36.4932 37.1512 36.0111 37.6489 35.4628 38.0601C33.7651 39.3333 31.3434 39.3333 26.5 39.3333C21.6566 39.3333 19.2349 39.3333 17.5372 38.0601C16.9889 37.6489 16.5068 37.1512 16.1084 36.5852C14.875 34.8328 14.875 32.3329 14.875 27.3333V24.6666C14.875 23.548 14.875 22.5546 14.8888 21.6666L14.9794 21.6666C16.0799 21.6667 16.7503 21.6668 17.3285 21.5722C20.5065 21.0527 22.999 18.4798 23.5023 15.1993C23.5939 14.6024 23.5938 13.9104 23.5938 12.7744L23.5938 12.6809C24.454 12.6666 25.4164 12.6666 26.5 12.6666C31.3434 12.6666 33.7651 12.6666 35.4628 13.9398C36.0111 14.351 36.4932 14.8488 36.8916 15.4147C38.125 17.1672 38.125 19.667 38.125 24.6666V27.3333ZM27.7917 19.6666C27.2566 19.6666 26.8229 20.1143 26.8229 20.6666C26.8229 21.2189 27.2566 21.6666 27.7917 21.6666H31.6667C32.2017 21.6666 32.6354 21.2189 32.6354 20.6666C32.6354 20.1143 32.2017 19.6666 31.6667 19.6666H27.7917ZM21.3333 25C20.7983 25 20.3646 25.4477 20.3646 26C20.3646 26.5522 20.7983 27 21.3333 27H31.6667C32.2017 27 32.6354 26.5522 32.6354 26C32.6354 25.4477 32.2017 25 31.6667 25H21.3333ZM27.7917 30.3333C27.2566 30.3333 26.8229 30.781 26.8229 31.3333C26.8229 31.8856 27.2566 32.3333 27.7917 32.3333H31.6667C32.2017 32.3333 32.6354 31.8856 32.6354 31.3333C32.6354 30.781 32.2017 30.3333 31.6667 30.3333H27.7917Z" />
<path d="M17.0254 19.5969C16.6271 19.662 16.1352 19.6664 14.9594 19.6666C15.0813 17.7471 15.3795 16.4504 16.1084 15.4147C16.5068 14.8488 16.9889 14.351 17.5372 13.9398C18.5405 13.1874 19.7967 12.8796 21.6562 12.7537C21.6561 13.9675 21.6518 14.4752 21.5887 14.8864C21.2166 17.3111 19.3744 19.2128 17.0254 19.5969Z" />
</symbol><symbol viewBox="0 0 53 53" fill="none" id="icon-process-win">
<rect width="53" height="53" rx="8" fill="#F7F7F7" />
<path d="M23.1159 19.6752C24.3269 19.6752 25.3722 18.8714 25.7321 17.7272C25.9803 16.9381 27.0197 16.9381 27.2679 17.7272C27.6278 18.8714 28.6731 19.6752 29.8841 19.6752C30.2588 19.6752 30.5384 19.9056 30.6521 20.267C30.7664 20.6306 30.673 21.0127 30.3484 21.2563C29.3882 21.9769 29.001 23.2371 29.3594 24.3765C29.4918 24.7972 29.3334 25.1574 29.0557 25.3658C28.7826 25.5708 28.4406 25.601 28.1273 25.3658C27.1591 24.6392 25.8409 24.6392 24.8727 25.3658C24.5594 25.601 24.2174 25.5708 23.9443 25.3658C23.6666 25.1574 23.5082 24.7972 23.6406 24.3765C23.999 23.2371 23.6118 21.9769 22.6516 21.2563C22.327 21.0127 22.2336 20.6306 22.3479 20.267C22.4616 19.9056 22.7412 19.6752 23.1159 19.6752Z" fill="#34B166" />
<path fill-rule="evenodd" clip-rule="evenodd" d="M26.5 31.6666C31.8503 31.6666 36.1875 27.3294 36.1875 21.9791C36.1875 16.6289 31.8503 12.2916 26.5 12.2916C21.1497 12.2916 16.8125 16.6289 16.8125 21.9791C16.8125 27.3294 21.1497 31.6666 26.5 31.6666ZM29.1162 17.1459C28.2992 14.5485 24.7008 14.5485 23.8838 17.1459C23.7674 17.5162 23.4464 17.7377 23.1159 17.7377C20.3917 17.7377 19.406 21.2429 21.4886 22.8059C21.7756 23.0213 21.9103 23.4202 21.7923 23.7952C21.3921 25.0677 21.9054 26.2581 22.7812 26.9154C23.6616 27.5761 24.9548 27.7267 26.0358 26.9154C26.3148 26.706 26.6852 26.706 26.9642 26.9154C28.0452 27.7267 29.3384 27.5761 30.2188 26.9154C31.0946 26.2581 31.6079 25.0677 31.2077 23.7952C31.0897 23.4202 31.2244 23.0213 31.5114 22.8059C33.594 21.2429 32.6083 17.7377 29.8841 17.7377C29.5536 17.7377 29.2326 17.5162 29.1162 17.1459Z" fill="#34B166" />
<path d="M26.5 33.6041C29.4774 33.6041 32.1933 32.4848 34.25 30.644V36.6766C34.25 38.697 34.25 39.7072 33.6055 39.9955C32.961 40.2838 32.1722 39.6263 30.5947 38.3114L29.3821 37.3007C28.0068 36.1544 27.3191 35.5812 26.5 35.5812C25.6809 35.5812 24.9932 36.1544 23.6179 37.3007L22.4053 38.3114C20.8278 39.6263 20.039 40.2838 19.3945 39.9955C18.75 39.7072 18.75 38.697 18.75 36.6766V30.644C20.8067 32.4848 23.5226 33.6041 26.5 33.6041Z" fill="#34B166" />
</symbol></defs><use id="icon-ball-usage" xlink:href="#icon-ball" class="sprite-symbol-usage" /><use id="icon-eye-color-usage" xlink:href="#icon-eye-color" class="sprite-symbol-usage" /><use id="icon-house-usage" xlink:href="#icon-house" class="sprite-symbol-usage" /><use id="icon-like-color-usage" xlink:href="#icon-like-color" class="sprite-symbol-usage" /><use id="icon-login-usage" xlink:href="#icon-login" class="sprite-symbol-usage" /><use id="icon-plus-usage" xlink:href="#icon-plus" class="sprite-symbol-usage" /><use id="icon-process-check-usage" xlink:href="#icon-process-check" class="sprite-symbol-usage" /><use id="icon-process-message-usage" xlink:href="#icon-process-message" class="sprite-symbol-usage" /><use id="icon-process-paper-usage" xlink:href="#icon-process-paper" class="sprite-symbol-usage" /><use id="icon-process-win-usage" xlink:href="#icon-process-win" class="sprite-symbol-usage" /></svg>