<svg xmlns="http://www.w3.org/2000/svg" xmlns:xlink="http://www.w3.org/1999/xlink"><defs><style>
    .sprite-symbol-usage {display: none;}
    .sprite-symbol-usage:target {display: inline;}
  </style><symbol viewBox="0 0 27 27" id="icon-ball">
<path fill-rule="evenodd" clip-rule="evenodd" d="M2.04288 12.5H6.87594C6.79071 11.8808 6.62647 11.2737 6.38623 10.6937C6.01769 9.80393 5.47752 8.99551 4.79656 8.31455C4.46863 7.98662 4.11115 7.69135 3.72926 7.43217C2.79895 8.92702 2.20215 10.651 2.04288 12.5ZM4.93046 5.83087C5.38721 6.14767 5.81584 6.5054 6.21077 6.90034C7.07745 7.76702 7.76494 8.79592 8.23399 9.92829C8.57495 10.7514 8.79562 11.6175 8.89072 12.5H10.0278C10.5801 12.5 11.0278 12.9477 11.0278 13.5C11.0278 14.0523 10.5801 14.5 10.0278 14.5H8.89072C8.79562 15.3825 8.57495 16.2486 8.23399 17.0717C7.76494 18.2041 7.07745 19.233 6.21077 20.0997C5.81584 20.4946 5.38721 20.8523 4.93046 21.1691C7.03612 23.5204 10.0953 25 13.5 25C16.9047 25 19.9639 23.5204 22.0695 21.1691C21.6128 20.8523 21.1841 20.4946 20.7892 20.0997C19.9225 19.233 19.235 18.2041 18.766 17.0717C18.425 16.2486 18.2043 15.3825 18.1092 14.5H14.5V21.8333C14.5 22.3856 14.0523 22.8333 13.5 22.8333C12.9477 22.8333 12.5 22.3856 12.5 21.8333V2.04288C9.49918 2.30136 6.82776 3.71226 4.93046 5.83087ZM14.5 2.04288V12.5H18.1092C18.2043 11.6176 18.425 10.7514 18.766 9.92829C19.235 8.79592 19.9225 7.76702 20.7892 6.90034C21.1841 6.5054 21.6128 6.14767 22.0695 5.83086C20.1722 3.71226 17.5008 2.30136 14.5 2.04288ZM23.2707 7.43215C22.8888 7.69134 22.5313 7.98662 22.2034 8.31456C21.5224 8.99552 20.9823 9.80394 20.6137 10.6937C20.3735 11.2737 20.2093 11.8808 20.124 12.5H24.9571C24.7979 10.651 24.201 8.92701 23.2707 7.43215ZM24.9571 14.5H20.124C20.2093 15.1192 20.3735 15.7264 20.6137 16.3064C20.9823 17.1961 21.5224 18.0045 22.2034 18.6855C22.5313 19.0134 22.8888 19.3087 23.2707 19.5679C24.201 18.073 24.7979 16.349 24.9571 14.5ZM3.72926 19.5678C4.11115 19.3087 4.46863 19.0134 4.79656 18.6854C5.47752 18.0045 6.01769 17.1961 6.38623 16.3063C6.62647 15.7263 6.79071 15.1192 6.87594 14.5H2.04288C2.20215 16.349 2.79895 18.073 3.72926 19.5678ZM0 13.5C0 6.04416 6.04416 0 13.5 0C20.9558 0 27 6.04416 27 13.5C27 20.9558 20.9558 27 13.5 27C6.04416 27 0 20.9558 0 13.5Z" />
</symbol><symbol viewBox="0 0 40 40" id="icon-house">
<path d="M36.6666 37.9165H3.33325C2.64992 37.9165 2.08325 37.3498 2.08325 36.6665C2.08325 35.9832 2.64992 35.4165 3.33325 35.4165H36.6666C37.3499 35.4165 37.9166 35.9832 37.9166 36.6665C37.9166 37.3498 37.3499 37.9165 36.6666 37.9165Z" />
<path d="M6.16699 36.6666H3.66699L3.75032 16.6165C3.75032 15.1998 4.40033 13.8832 5.51699 13.0166L17.1837 3.9332C18.8337 2.64987 21.1503 2.64987 22.817 3.9332L34.4837 12.9999C35.5837 13.8665 36.2503 15.2165 36.2503 16.6165V36.6666H33.7503V16.6332C33.7503 15.9999 33.4503 15.3832 32.9503 14.9832L21.2837 5.91654C20.5337 5.33321 19.4837 5.33321 18.717 5.91654L7.05032 14.9999C6.55032 15.3832 6.25032 15.9999 6.25032 16.6332L6.16699 36.6666Z" />
<path d="M24.1666 37.9166H15.8333C15.1499 37.9166 14.5833 37.3499 14.5833 36.6666V30.8333C14.5833 28.7666 16.2666 27.0833 18.3333 27.0833H21.6666C23.7333 27.0833 25.4166 28.7666 25.4166 30.8333V36.6666C25.4166 37.3499 24.8499 37.9166 24.1666 37.9166ZM17.0833 35.4166H22.9166V30.8333C22.9166 30.1499 22.3499 29.5833 21.6666 29.5833H18.3333C17.6499 29.5833 17.0833 30.1499 17.0833 30.8333V35.4166Z" />
<path d="M15.8333 24.1666H12.4999C10.8999 24.1666 9.58325 22.8499 9.58325 21.2499V18.7499C9.58325 17.1499 10.8999 15.8333 12.4999 15.8333H15.8333C17.4333 15.8333 18.7499 17.1499 18.7499 18.7499V21.2499C18.7499 22.8499 17.4333 24.1666 15.8333 24.1666ZM12.4999 18.3333C12.2666 18.3333 12.0833 18.5166 12.0833 18.7499V21.2499C12.0833 21.4833 12.2666 21.6666 12.4999 21.6666H15.8333C16.0666 21.6666 16.2499 21.4833 16.2499 21.2499V18.7499C16.2499 18.5166 16.0666 18.3333 15.8333 18.3333H12.4999Z" />
<path d="M27.5 24.1666H24.1667C22.5667 24.1666 21.25 22.8499 21.25 21.2499V18.7499C21.25 17.1499 22.5667 15.8333 24.1667 15.8333H27.5C29.1 15.8333 30.4167 17.1499 30.4167 18.7499V21.2499C30.4167 22.8499 29.1 24.1666 27.5 24.1666ZM24.1667 18.3333C23.9333 18.3333 23.75 18.5166 23.75 18.7499V21.2499C23.75 21.4833 23.9333 21.6666 24.1667 21.6666H27.5C27.7333 21.6666 27.9167 21.4833 27.9167 21.2499V18.7499C27.9167 18.5166 27.7333 18.3333 27.5 18.3333H24.1667Z" />
<path d="M31.6667 12.9165C30.9834 12.9165 30.4167 12.3665 30.4167 11.6832L30.3834 7.9165H24.3C23.6167 7.9165 23.05 7.34984 23.05 6.6665C23.05 5.98317 23.6167 5.4165 24.3 5.4165H31.6334C32.3167 5.4165 32.8834 5.96649 32.8834 6.64982L32.9334 11.6498C32.9167 12.3498 32.3667 12.9165 31.6667 12.9165C31.6667 12.9165 31.6834 12.9165 31.6667 12.9165Z" />
</symbol></defs><use id="icon-ball-usage" xlink:href="#icon-ball" class="sprite-symbol-usage" /><use id="icon-house-usage" xlink:href="#icon-house" class="sprite-symbol-usage" /></svg>