<svg viewBox="0 0 26 26" xmlns="http://www.w3.org/2000/svg">
<path d="M12.1359 1.48359C12.5216 0.821321 13.4784 0.821321 13.8641 1.48359L16.9809 6.83474C17.1222 7.07734 17.359 7.24937 17.6333 7.30879L23.6857 8.61941C24.4348 8.78162 24.7304 9.69154 24.2198 10.2631L20.0937 14.8809C19.9066 15.0902 19.8162 15.3686 19.8444 15.6479L20.4683 21.8091C20.5455 22.5716 19.7714 23.1339 19.0701 22.8249L13.4032 20.3277C13.1463 20.2145 12.8537 20.2145 12.5968 20.3277L6.92991 22.8249C6.22857 23.1339 5.45454 22.5716 5.53174 21.8091L6.15556 15.6479C6.18384 15.3686 6.0934 15.0902 5.90633 14.8809L1.78022 10.2631C1.26956 9.69154 1.56521 8.78162 2.31427 8.61941L8.36665 7.30879C8.64104 7.24937 8.87782 7.07735 9.01912 6.83474L12.1359 1.48359Z" />
</svg>
