<svg viewBox="0 0 20 22" xmlns="http://www.w3.org/2000/svg">
<path fill-rule="evenodd" clip-rule="evenodd" d="M10 20.5C10.8372 20.5 11.5 19.8321 11.5 19.0278C11.5 18.2234 10.8372 17.5556 10 17.5556C9.16276 17.5556 8.5 18.2234 8.5 19.0278C8.5 19.8321 9.16276 20.5 10 20.5ZM12.9039 19.7778C12.5677 21.061 11.389 22 10 22C8.611 22 7.43233 21.061 7.09611 19.7778L1 19.7778C0.585787 19.7778 0.25 19.442 0.25 19.0278C0.25 18.6136 0.585786 18.2778 1 18.2778L7.09611 18.2778C7.43233 16.9946 8.611 16.0556 10 16.0556C11.389 16.0556 12.5677 16.9946 12.9039 18.2778L19 18.2778C19.4142 18.2778 19.75 18.6136 19.75 19.0278C19.75 19.442 19.4142 19.7778 19 19.7778L12.9039 19.7778ZM3.25 12.7222C4.08724 12.7222 4.75 12.0543 4.75 11.25C4.75 10.4457 4.08724 9.77778 3.25 9.77778C2.41276 9.77778 1.75 10.4457 1.75 11.25C1.75 12.0543 2.41276 12.7222 3.25 12.7222ZM6.15389 12C5.81767 13.2832 4.63899 14.2222 3.25 14.2222C1.60196 14.2222 0.249999 12.9003 0.249999 11.25C0.249999 9.59973 1.60196 8.27778 3.25 8.27778C4.63899 8.27778 5.81767 9.21681 6.15389 10.5L19 10.5C19.4142 10.5 19.75 10.8358 19.75 11.25C19.75 11.6642 19.4142 12 19 12L6.15389 12ZM16.75 4.94444C17.5872 4.94444 18.25 4.27655 18.25 3.47222C18.25 2.66789 17.5872 2 16.75 2C15.9128 2 15.25 2.66789 15.25 3.47222C15.25 4.27655 15.9128 4.94444 16.75 4.94444ZM19.75 3.47222C19.75 5.12249 18.398 6.44444 16.75 6.44444C15.361 6.44444 14.1823 5.50541 13.8461 4.22222L0.999998 4.22222C0.585785 4.22222 0.249998 3.88644 0.249998 3.47222C0.249998 3.05801 0.585785 2.72222 0.999998 2.72222L13.8461 2.72222C14.1823 1.43903 15.361 0.5 16.75 0.5C18.398 0.499998 19.75 1.82195 19.75 3.47222Z" />
</svg>
