<svg width="53" height="53" viewBox="0 0 53 53" fill="none" xmlns="http://www.w3.org/2000/svg">
<rect width="53" height="53" rx="8" fill="#F7F7F7"/>
<path d="M23.1159 19.6752C24.3269 19.6752 25.3722 18.8714 25.7321 17.7272C25.9803 16.9381 27.0197 16.9381 27.2679 17.7272C27.6278 18.8714 28.6731 19.6752 29.8841 19.6752C30.2588 19.6752 30.5384 19.9056 30.6521 20.267C30.7664 20.6306 30.673 21.0127 30.3484 21.2563C29.3882 21.9769 29.001 23.2371 29.3594 24.3765C29.4918 24.7972 29.3334 25.1574 29.0557 25.3658C28.7826 25.5708 28.4406 25.601 28.1273 25.3658C27.1591 24.6392 25.8409 24.6392 24.8727 25.3658C24.5594 25.601 24.2174 25.5708 23.9443 25.3658C23.6666 25.1574 23.5082 24.7972 23.6406 24.3765C23.999 23.2371 23.6118 21.9769 22.6516 21.2563C22.327 21.0127 22.2336 20.6306 22.3479 20.267C22.4616 19.9056 22.7412 19.6752 23.1159 19.6752Z" fill="#34B166"/>
<path fill-rule="evenodd" clip-rule="evenodd" d="M26.5 31.6666C31.8503 31.6666 36.1875 27.3294 36.1875 21.9791C36.1875 16.6289 31.8503 12.2916 26.5 12.2916C21.1497 12.2916 16.8125 16.6289 16.8125 21.9791C16.8125 27.3294 21.1497 31.6666 26.5 31.6666ZM29.1162 17.1459C28.2992 14.5485 24.7008 14.5485 23.8838 17.1459C23.7674 17.5162 23.4464 17.7377 23.1159 17.7377C20.3917 17.7377 19.406 21.2429 21.4886 22.8059C21.7756 23.0213 21.9103 23.4202 21.7923 23.7952C21.3921 25.0677 21.9054 26.2581 22.7812 26.9154C23.6616 27.5761 24.9548 27.7267 26.0358 26.9154C26.3148 26.706 26.6852 26.706 26.9642 26.9154C28.0452 27.7267 29.3384 27.5761 30.2188 26.9154C31.0946 26.2581 31.6079 25.0677 31.2077 23.7952C31.0897 23.4202 31.2244 23.0213 31.5114 22.8059C33.594 21.2429 32.6083 17.7377 29.8841 17.7377C29.5536 17.7377 29.2326 17.5162 29.1162 17.1459Z" fill="#34B166"/>
<path d="M26.5 33.6041C29.4774 33.6041 32.1933 32.4848 34.25 30.644V36.6766C34.25 38.697 34.25 39.7072 33.6055 39.9955C32.961 40.2838 32.1722 39.6263 30.5947 38.3114L29.3821 37.3007C28.0068 36.1544 27.3191 35.5812 26.5 35.5812C25.6809 35.5812 24.9932 36.1544 23.6179 37.3007L22.4053 38.3114C20.8278 39.6263 20.039 40.2838 19.3945 39.9955C18.75 39.7072 18.75 38.697 18.75 36.6766V30.644C20.8067 32.4848 23.5226 33.6041 26.5 33.6041Z" fill="#34B166"/>
</svg>
