<svg viewBox="0 0 37 37" xmlns="http://www.w3.org/2000/svg">
<path d="M19.6563 6.16669C19.6563 5.52811 19.1387 5.01044 18.5001 5.01044C17.8615 5.01044 17.3438 5.52811 17.3438 6.16669L17.3438 29.3394C17.1795 29.2386 16.9971 29.1087 16.7899 28.9424C16.1524 28.4304 15.4 27.6737 14.3067 26.5707L11.613 23.8528C11.1635 23.3992 10.4314 23.3959 9.97781 23.8455C9.52426 24.295 9.52099 25.0271 9.97052 25.4806L12.7128 28.2475C13.7456 29.2896 14.5898 30.1414 15.3419 30.7454C16.124 31.3735 16.9179 31.8282 17.8708 31.9497C18.2887 32.0029 18.7115 32.0029 19.1293 31.9497C20.0823 31.8282 20.8761 31.3735 21.6582 30.7454C22.4104 30.1414 23.2545 29.2896 24.2873 28.2475L27.0296 25.4806C27.4792 25.0271 27.4759 24.295 27.0224 23.8455C26.5688 23.3959 25.8367 23.3992 25.3872 23.8528L22.6934 26.5707C21.6002 27.6737 20.8478 28.4304 20.2102 28.9424C20.0031 29.1087 19.8207 29.2386 19.6563 29.3394L19.6563 6.16669Z" />
</svg>
