<svg viewBox="0 0 53 53" xmlns="http://www.w3.org/2000/svg">
<path fill-rule="evenodd" clip-rule="evenodd" d="M38.125 27.3333C38.125 32.3329 38.125 34.8328 36.8916 36.5852C36.4932 37.1512 36.0111 37.6489 35.4628 38.0601C33.7651 39.3333 31.3434 39.3333 26.5 39.3333C21.6566 39.3333 19.2349 39.3333 17.5372 38.0601C16.9889 37.6489 16.5068 37.1512 16.1084 36.5852C14.875 34.8328 14.875 32.3329 14.875 27.3333V24.6666C14.875 23.548 14.875 22.5546 14.8888 21.6666L14.9794 21.6666C16.0799 21.6667 16.7503 21.6668 17.3285 21.5722C20.5065 21.0527 22.999 18.4798 23.5023 15.1993C23.5939 14.6024 23.5938 13.9104 23.5938 12.7744L23.5938 12.6809C24.454 12.6666 25.4164 12.6666 26.5 12.6666C31.3434 12.6666 33.7651 12.6666 35.4628 13.9398C36.0111 14.351 36.4932 14.8488 36.8916 15.4147C38.125 17.1672 38.125 19.667 38.125 24.6666V27.3333ZM27.7917 19.6666C27.2566 19.6666 26.8229 20.1143 26.8229 20.6666C26.8229 21.2189 27.2566 21.6666 27.7917 21.6666H31.6667C32.2017 21.6666 32.6354 21.2189 32.6354 20.6666C32.6354 20.1143 32.2017 19.6666 31.6667 19.6666H27.7917ZM21.3333 25C20.7983 25 20.3646 25.4477 20.3646 26C20.3646 26.5522 20.7983 27 21.3333 27H31.6667C32.2017 27 32.6354 26.5522 32.6354 26C32.6354 25.4477 32.2017 25 31.6667 25H21.3333ZM27.7917 30.3333C27.2566 30.3333 26.8229 30.781 26.8229 31.3333C26.8229 31.8856 27.2566 32.3333 27.7917 32.3333H31.6667C32.2017 32.3333 32.6354 31.8856 32.6354 31.3333C32.6354 30.781 32.2017 30.3333 31.6667 30.3333H27.7917Z" />
<path d="M17.0254 19.5969C16.6271 19.662 16.1352 19.6664 14.9594 19.6666C15.0813 17.7471 15.3795 16.4504 16.1084 15.4147C16.5068 14.8488 16.9889 14.351 17.5372 13.9398C18.5405 13.1874 19.7967 12.8796 21.6562 12.7537C21.6561 13.9675 21.6518 14.4752 21.5887 14.8864C21.2166 17.3111 19.3744 19.2128 17.0254 19.5969Z" />
</svg>
