<svg viewBox="0 0 7 7" xmlns="http://www.w3.org/2000/svg">
<path d="M6.28975 5.05175L4.51075 3.27375L6.28875 1.49575C6.63075 1.15475 6.63075 0.599751 6.28875 0.258751C5.94675 -0.0852494 5.39375 -0.0842494 5.05175 0.257751L3.27275 2.03575L1.49375 0.255751C1.15175 -0.0862494 0.59775 -0.0842494 0.25575 0.255751C-0.08525 0.597751 -0.08525 1.15275 0.25575 1.49375L2.03575 3.27375L0.25975 5.04875C-0.08225 5.39075 -0.08225 5.94575 0.25975 6.28575C0.43075 6.45775 0.65375 6.54275 0.87775 6.54275C1.10275 6.54275 1.32575 6.45775 1.49675 6.28675L3.27275 4.51075L5.05275 6.28975C5.22375 6.46075 5.44675 6.54575 5.67075 6.54575C5.89475 6.54575 6.11875 6.45975 6.28975 6.28975C6.63175 5.94775 6.63175 5.39375 6.28975 5.05175" />
</svg>
