<svg viewBox="0 0 58 58" xmlns="http://www.w3.org/2000/svg">
<path fill-rule="evenodd" clip-rule="evenodd" d="M18.7846 5.75H39.2155C41.1902 5.74999 42.7638 5.74998 44.034 5.85376C45.3357 5.96011 46.4504 6.18289 47.4725 6.70369C49.1189 7.54259 50.4575 8.88117 51.2964 10.5276C51.8172 11.5497 52.04 12.6644 52.1463 13.9661C52.2501 15.2363 52.2501 16.8098 52.2501 18.7845V31.9655C52.2501 33.9402 52.2501 35.5137 52.1463 36.7839C52.04 38.0856 51.8172 39.2003 51.2964 40.2224C50.4575 41.8688 49.1189 43.2074 47.4725 44.0463C46.4504 44.5671 45.3357 44.7899 44.034 44.8962C42.7638 45 41.1903 45 39.2156 45H33.0691C31.5009 45 30.9248 45.0071 30.3872 45.1174C29.8797 45.2216 29.3886 45.3938 28.9273 45.6295C28.4386 45.8792 27.9843 46.2336 26.7597 47.2132L20.9457 51.8644C20.4854 52.2327 20.0628 52.5709 19.7009 52.8101C19.3494 53.0425 18.8037 53.3602 18.128 53.3609C17.3032 53.3618 16.5229 52.9868 16.0084 52.3422C15.5868 51.8141 15.494 51.1896 15.4559 50.7698C15.4166 50.3378 15.4167 49.7966 15.4167 49.2071L15.4167 44.9969C14.0822 44.9856 13.1007 44.9337 12.2354 44.7018C9.21585 43.8928 6.85731 41.5342 6.04822 38.5147C5.74925 37.3989 5.74956 36.0901 5.75004 34.0801C5.75006 33.999 5.75008 33.9168 5.75008 33.8333L5.75008 18.7846C5.75006 16.8098 5.75005 15.2363 5.85383 13.9661C5.96019 12.6644 6.18297 11.5497 6.70377 10.5276C7.54266 8.88117 8.88124 7.54259 10.5277 6.70369C11.5498 6.18289 12.6644 5.96011 13.9661 5.85376C15.2363 5.74998 16.8099 5.74999 18.7846 5.75ZM14.2104 8.84379C13.0942 8.93499 12.4184 9.10731 11.8896 9.37671C10.8077 9.92798 9.92806 10.8076 9.37679 11.8896C9.10739 12.4183 8.93507 13.0942 8.84387 14.2104C8.75124 15.3441 8.75008 16.7951 8.75008 18.85V33.8333C8.75008 36.1773 8.76296 37.0551 8.946 37.7382C9.47769 39.7225 11.0276 41.2724 13.0119 41.8041C13.695 41.9871 14.5727 42 16.9167 42C17.7452 42 18.4167 42.6716 18.4167 43.5V49.1441C18.4167 49.5155 18.4172 49.8041 18.4218 50.0351C18.6051 49.8944 18.8308 49.7145 19.1208 49.4825L24.8856 44.8706C24.9262 44.8382 24.9662 44.8062 25.0057 44.7746C26.0683 43.9241 26.7692 43.3632 27.5624 42.958C28.2645 42.5993 29.0118 42.3372 29.7841 42.1786C30.6567 41.9996 31.5543 41.9997 32.9155 42C32.966 42 33.0173 42 33.0691 42H39.1501C41.205 42 42.656 41.9988 43.7897 41.9062C44.9059 41.815 45.5818 41.6427 46.1105 41.3733C47.1925 40.822 48.0721 39.9424 48.6234 38.8604C48.8928 38.3317 49.0651 37.6558 49.1563 36.5396C49.2489 35.4059 49.2501 33.9549 49.2501 31.9V18.85C49.2501 16.7951 49.2489 15.3441 49.1563 14.2104C49.0651 13.0942 48.8928 12.4183 48.6234 11.8896C48.0721 10.8076 47.1925 9.92798 46.1105 9.37671C45.5818 9.10731 44.9059 8.93499 43.7897 8.84379C42.656 8.75117 41.205 8.75 39.1501 8.75H18.8501C16.7951 8.75 15.3441 8.75117 14.2104 8.84379ZM19.6459 18.125C19.6459 16.6292 20.8585 15.4167 22.3542 15.4167C23.85 15.4167 25.0626 16.6292 25.0626 18.125C25.0626 19.6208 23.85 20.8333 22.3542 20.8333C20.8585 20.8333 19.6459 19.6208 19.6459 18.125ZM32.9376 18.125C32.9376 16.6292 34.1501 15.4167 35.6459 15.4167C37.1417 15.4167 38.3542 16.6292 38.3542 18.125C38.3542 19.6208 37.1417 20.8333 35.6459 20.8333C34.1501 20.8333 32.9376 19.6208 32.9376 18.125ZM21.6698 29.2197L21.6692 29.2189L21.668 29.2176L21.6668 29.2162L21.6806 29.2313C21.6956 29.2476 21.7222 29.2759 21.7601 29.3147C21.836 29.3922 21.9567 29.5107 22.1199 29.6567C22.4474 29.9496 22.9405 30.348 23.582 30.7479C24.867 31.549 26.7092 32.3333 29.0001 32.3333C31.291 32.3333 33.1331 31.549 34.4182 30.7479C35.0597 30.348 35.5528 29.9496 35.8802 29.6567C36.0435 29.5107 36.1641 29.3922 36.24 29.3147C36.2779 29.2759 36.3045 29.2476 36.3196 29.2313L36.3334 29.2162L36.3322 29.2176L36.331 29.2189L36.3303 29.2197C36.8759 28.5971 37.823 28.5342 38.4462 29.0795C39.0696 29.625 39.1328 30.5726 38.5873 31.1961L37.4584 30.2083C38.5873 31.1961 38.5869 31.1966 38.5864 31.197L38.5835 31.2004L38.5785 31.2061L38.5649 31.2213C38.5543 31.2331 38.5404 31.2484 38.5234 31.2668C38.4894 31.3036 38.4427 31.3531 38.3836 31.4135C38.2653 31.5343 38.0969 31.699 37.8802 31.8928C37.4477 32.2796 36.8174 32.7874 36.0052 33.2938C34.3827 34.3052 31.9956 35.3333 29.0001 35.3333C26.0045 35.3333 23.6175 34.3052 21.995 33.2938C21.1827 32.7874 20.5525 32.2796 20.12 31.8928C19.9033 31.699 19.7348 31.5343 19.6166 31.4135C19.5574 31.3531 19.5107 31.3036 19.4767 31.2668C19.4597 31.2484 19.4459 31.2331 19.4352 31.2213L19.4217 31.2061L19.4167 31.2004L19.4137 31.197C19.4133 31.1966 19.4129 31.1961 20.5417 30.2083L19.4129 31.1961C18.8674 30.5726 18.9305 29.625 19.554 29.0795C20.1759 28.5353 21.1206 28.597 21.6668 29.2162C21.6668 29.2163 21.6667 29.2161 21.6668 29.2162" />
</svg>
