<svg viewBox="0 0 53 53" xmlns="http://www.w3.org/2000/svg">
<path d="M12.2917 30.6979C11.7567 30.6979 11.323 31.1316 11.323 31.6667C11.323 32.2017 11.7567 32.6354 12.2917 32.6354H16.1667C16.7018 32.6354 17.1355 32.2017 17.1355 31.6667C17.1355 31.1316 16.7018 30.6979 16.1667 30.6979H12.2917Z" />
<path d="M12.2917 34.5729C11.7567 34.5729 11.323 35.0066 11.323 35.5417C11.323 36.0767 11.7567 36.5104 12.2917 36.5104H20.0417C20.5768 36.5104 21.0105 36.0767 21.0105 35.5417C21.0105 35.0066 20.5768 34.5729 20.0417 34.5729H12.2917Z" />
<path d="M15.0157 17.5747L14.8751 17.4583C15.2734 16.9101 15.6974 16.5068 16.2456 16.1084C17.9433 14.875 20.365 14.875 25.2084 14.875H27.7917C32.6352 14.875 35.0569 14.875 36.7545 16.1084C37.3028 16.5068 37.6933 16.8659 38.0916 17.4141L37.9294 17.5755L34.9484 20.5565C32.7762 22.7287 31.2146 24.2874 29.8676 25.3151C28.543 26.3258 27.5405 26.7311 26.4999 26.7311C25.4593 26.7311 24.4568 26.3258 23.1322 25.3151C21.7852 24.2874 20.2236 22.7287 18.0515 20.5565L15.5414 18.0465L15.0157 17.5747Z" />
<path d="M13.5834 26.5C13.5834 23.0901 13.5834 20.8805 14.0138 19.2789L14.2084 19.4535L16.7338 21.979C18.8422 24.0873 20.4945 25.7396 21.957 26.8555C23.4539 27.9976 24.8654 28.6686 26.4999 28.6686C28.1344 28.6686 29.5459 27.9976 31.0429 26.8555C32.5053 25.7396 34.1576 24.0873 36.2659 21.979L38.982 19.2629C39.4167 20.8658 39.4167 23.0787 39.4167 26.5C39.4167 31.3434 39.4167 33.7651 38.1833 35.4628C37.785 36.0111 37.3028 36.4932 36.7545 36.8916C35.0569 38.125 32.6352 38.125 27.7917 38.125H25.2084C23.3634 38.125 21.8699 38.125 20.6339 38.0568C21.7752 37.7892 22.6251 36.7647 22.6251 35.5417C22.6251 34.1149 21.4685 32.9583 20.0417 32.9583H18.4045C18.6243 32.5784 18.7501 32.1372 18.7501 31.6667C18.7501 30.2399 17.5935 29.0833 16.1667 29.0833H13.5927C13.5834 28.3069 13.5834 27.45 13.5834 26.5Z" />
</svg>
