<svg viewBox="0 0 24 24" xmlns="http://www.w3.org/2000/svg">
<path fill-rule="evenodd" clip-rule="evenodd" d="M8.53164 2.93677C10.7165 1.66727 13.4021 1.68946 15.5664 2.99489C17.7095 4.32691 19.012 6.70418 18.9999 9.26144C18.95 11.8019 17.5534 14.19 15.8075 16.0361C14.7999 17.1064 13.6727 18.0528 12.4489 18.856C12.3228 18.9289 12.1848 18.9777 12.0415 19C11.9036 18.9941 11.7694 18.9534 11.6508 18.8814C9.78245 17.6746 8.14335 16.134 6.81234 14.334C5.69859 12.8314 5.06584 11.016 5 9.13442C4.99856 6.57225 6.34677 4.20627 8.53164 2.93677ZM9.79419 10.1948C10.1617 11.1008 11.0292 11.6918 11.9916 11.6918C12.6221 11.6964 13.2282 11.4438 13.6749 10.9905C14.1215 10.5371 14.3715 9.92064 14.3693 9.27838C14.3727 8.29804 13.7955 7.41231 12.9073 7.03477C12.0191 6.65723 10.9951 6.86235 10.3133 7.55435C9.63162 8.24635 9.42667 9.28872 9.79419 10.1948Z" />
<path opacity="0.4" d="M17 21C17 21.5523 14.7614 22 12 22C9.23858 22 7 21.5523 7 21C7 20.4477 9.23858 20 12 20C14.7614 20 17 20.4477 17 21Z" />
</svg>
