<svg viewBox="0 0 40 40" xmlns="http://www.w3.org/2000/svg">
<path d="M36.6666 37.9165H3.33325C2.64992 37.9165 2.08325 37.3498 2.08325 36.6665C2.08325 35.9832 2.64992 35.4165 3.33325 35.4165H36.6666C37.3499 35.4165 37.9166 35.9832 37.9166 36.6665C37.9166 37.3498 37.3499 37.9165 36.6666 37.9165Z" />
<path d="M6.16699 36.6666H3.66699L3.75032 16.6165C3.75032 15.1998 4.40033 13.8832 5.51699 13.0166L17.1837 3.9332C18.8337 2.64987 21.1503 2.64987 22.817 3.9332L34.4837 12.9999C35.5837 13.8665 36.2503 15.2165 36.2503 16.6165V36.6666H33.7503V16.6332C33.7503 15.9999 33.4503 15.3832 32.9503 14.9832L21.2837 5.91654C20.5337 5.33321 19.4837 5.33321 18.717 5.91654L7.05032 14.9999C6.55032 15.3832 6.25032 15.9999 6.25032 16.6332L6.16699 36.6666Z" />
<path d="M24.1666 37.9166H15.8333C15.1499 37.9166 14.5833 37.3499 14.5833 36.6666V30.8333C14.5833 28.7666 16.2666 27.0833 18.3333 27.0833H21.6666C23.7333 27.0833 25.4166 28.7666 25.4166 30.8333V36.6666C25.4166 37.3499 24.8499 37.9166 24.1666 37.9166ZM17.0833 35.4166H22.9166V30.8333C22.9166 30.1499 22.3499 29.5833 21.6666 29.5833H18.3333C17.6499 29.5833 17.0833 30.1499 17.0833 30.8333V35.4166Z" />
<path d="M15.8333 24.1666H12.4999C10.8999 24.1666 9.58325 22.8499 9.58325 21.2499V18.7499C9.58325 17.1499 10.8999 15.8333 12.4999 15.8333H15.8333C17.4333 15.8333 18.7499 17.1499 18.7499 18.7499V21.2499C18.7499 22.8499 17.4333 24.1666 15.8333 24.1666ZM12.4999 18.3333C12.2666 18.3333 12.0833 18.5166 12.0833 18.7499V21.2499C12.0833 21.4833 12.2666 21.6666 12.4999 21.6666H15.8333C16.0666 21.6666 16.2499 21.4833 16.2499 21.2499V18.7499C16.2499 18.5166 16.0666 18.3333 15.8333 18.3333H12.4999Z" />
<path d="M27.5 24.1666H24.1667C22.5667 24.1666 21.25 22.8499 21.25 21.2499V18.7499C21.25 17.1499 22.5667 15.8333 24.1667 15.8333H27.5C29.1 15.8333 30.4167 17.1499 30.4167 18.7499V21.2499C30.4167 22.8499 29.1 24.1666 27.5 24.1666ZM24.1667 18.3333C23.9333 18.3333 23.75 18.5166 23.75 18.7499V21.2499C23.75 21.4833 23.9333 21.6666 24.1667 21.6666H27.5C27.7333 21.6666 27.9167 21.4833 27.9167 21.2499V18.7499C27.9167 18.5166 27.7333 18.3333 27.5 18.3333H24.1667Z" />
<path d="M31.6667 12.9165C30.9834 12.9165 30.4167 12.3665 30.4167 11.6832L30.3834 7.9165H24.3C23.6167 7.9165 23.05 7.34984 23.05 6.6665C23.05 5.98317 23.6167 5.4165 24.3 5.4165H31.6334C32.3167 5.4165 32.8834 5.96649 32.8834 6.64982L32.9334 11.6498C32.9167 12.3498 32.3667 12.9165 31.6667 12.9165C31.6667 12.9165 31.6834 12.9165 31.6667 12.9165Z" />
</svg>
