<svg viewBox="0 0 16 16" xmlns="http://www.w3.org/2000/svg">
<path fill-rule="evenodd" clip-rule="evenodd" d="M1.3335 7.99992C1.3335 4.49325 4.14016 1.33325 8.0135 1.33325C11.8002 1.33325 14.6668 4.43325 14.6668 7.97992C14.6668 12.0933 11.3068 14.6466 8.00016 14.6466C6.90683 14.6466 5.69416 14.3533 4.72083 13.7799C4.38016 13.5733 4.0935 13.4199 3.72683 13.5399L2.38016 13.9399C2.04016 14.0466 1.7335 13.7799 1.8335 13.4199L2.28016 11.9266C2.3535 11.7199 2.34016 11.4999 2.2335 11.3266C1.66016 10.2733 1.3335 9.11992 1.3335 7.99992ZM7.13366 8.00007C7.13366 8.47341 7.51366 8.85341 7.98699 8.86007C8.46032 8.86007 8.84032 8.47341 8.84032 8.00674C8.84032 7.53341 8.46032 7.15341 7.98699 7.15341C7.52032 7.14674 7.13366 7.53341 7.13366 8.00007ZM4.06006 8.00678C4.06006 8.47345 4.44673 8.86011 4.91339 8.86011C5.38673 8.85345 5.76673 8.47345 5.76673 8.00678C5.76673 7.53345 5.38673 7.15345 4.91339 7.15345C4.44006 7.15345 4.06006 7.53345 4.06006 8.00678ZM11.0602 8.86007C10.5869 8.86007 10.2069 8.4734 10.2069 8.00674C10.2069 7.53341 10.5869 7.15341 11.0602 7.15341C11.5335 7.15341 11.9135 7.53341 11.9135 8.00674C11.9135 8.4734 11.5335 8.86007 11.0602 8.86007Z" />
</svg>
