<svg viewBox="0 0 18 18" xmlns="http://www.w3.org/2000/svg">
<path fill-rule="evenodd" clip-rule="evenodd" d="M2.25 12.6526V6.94287H15.75V12.6984C15.75 15.0526 14.2681 16.5001 11.8971 16.5001H6.0955C3.74671 16.5001 2.25 15.0226 2.25 12.6526ZM5.96954 10.8076C5.6287 10.8234 5.34715 10.5526 5.33233 10.2084C5.33233 9.86337 5.59907 9.57837 5.9399 9.56262C6.27333 9.56262 6.54748 9.82587 6.55488 10.1626C6.5697 10.5084 6.30296 10.7934 5.96954 10.8076ZM9.01482 10.8076C8.67399 10.8234 8.39243 10.5526 8.37761 10.2084C8.37761 9.86337 8.64435 9.57837 8.98518 9.56262C9.31861 9.56262 9.59276 9.82587 9.60016 10.1626C9.61498 10.5084 9.34824 10.7934 9.01482 10.8076ZM12.0379 13.5676C11.697 13.5601 11.4229 13.2751 11.4229 12.9301C11.4155 12.5851 11.6896 12.3009 12.0305 12.2934H12.0379C12.3861 12.2934 12.6677 12.5784 12.6677 12.9301C12.6677 13.2826 12.3861 13.5676 12.0379 13.5676ZM8.37761 12.9301C8.39243 13.2751 8.67399 13.5459 9.01482 13.5301C9.34824 13.5159 9.61498 13.2309 9.60016 12.8859C9.59276 12.5484 9.31861 12.2851 8.98518 12.2851C8.64435 12.3009 8.37761 12.5851 8.37761 12.9301ZM5.32492 12.9301C5.33974 13.2751 5.6213 13.5459 5.96213 13.5301C6.29555 13.5159 6.56229 13.2309 6.54748 12.8859C6.54007 12.5484 6.26592 12.2851 5.93249 12.2851C5.59166 12.3009 5.32492 12.5851 5.32492 12.9301ZM11.4303 10.2009C11.4303 9.85587 11.697 9.57837 12.0379 9.57087C12.3713 9.57087 12.638 9.84012 12.6529 10.1709C12.6603 10.5159 12.3935 10.8009 12.0601 10.8076C11.7193 10.8151 11.4377 10.5526 11.4303 10.2084V10.2009Z" />
<path opacity="0.4" d="M2.25244 6.94268C2.26207 6.50243 2.29912 5.62868 2.36877 5.34743C2.72442 3.76568 3.93216 2.76068 5.65856 2.61743H12.3419C14.0535 2.76818 15.276 3.77993 15.6317 5.34743C15.7006 5.62118 15.7376 6.50168 15.7473 6.94268H2.25244Z" />
<path d="M6.22873 4.9425C6.55475 4.9425 6.79926 4.69575 6.79926 4.365V2.07825C6.79926 1.7475 6.55475 1.5 6.22873 1.5C5.90271 1.5 5.6582 1.7475 5.6582 2.07825V4.365C5.6582 4.69575 5.90271 4.9425 6.22873 4.9425" />
<path d="M11.7712 4.9425C12.0898 4.9425 12.3417 4.69575 12.3417 4.365V2.07825C12.3417 1.7475 12.0898 1.5 11.7712 1.5C11.4452 1.5 11.2007 1.7475 11.2007 2.07825V4.365C11.2007 4.69575 11.4452 4.9425 11.7712 4.9425" />
</svg>
