<svg viewBox="0 0 18 18" xmlns="http://www.w3.org/2000/svg">
<path d="M9.11895 8.715C9.09645 8.715 9.08145 8.715 9.05895 8.715C9.02145 8.7075 8.96894 8.7075 8.92394 8.715C6.74894 8.6475 5.10645 6.9375 5.10645 4.83C5.10645 2.685 6.85395 0.9375 8.99895 0.9375C11.1439 0.9375 12.8914 2.685 12.8914 4.83C12.8839 6.9375 11.2339 8.6475 9.14145 8.715C9.13395 8.715 9.12645 8.715 9.11895 8.715ZM8.99895 2.0625C7.47645 2.0625 6.23145 3.3075 6.23145 4.83C6.23145 6.33 7.40145 7.5375 8.89395 7.59C8.93145 7.5825 9.03645 7.5825 9.13395 7.59C10.6039 7.5225 11.7589 6.315 11.7664 4.83C11.7664 3.3075 10.5214 2.0625 8.99895 2.0625Z" />
<path d="M9.12672 16.9125C7.65672 16.9125 6.17922 16.5375 5.06172 15.7875C4.01922 15.0975 3.44922 14.1525 3.44922 13.125C3.44922 12.0975 4.01922 11.145 5.06172 10.4475C7.31172 8.955 10.9567 8.955 13.1917 10.4475C14.2267 11.1375 14.8042 12.0825 14.8042 13.11C14.8042 14.1375 14.2342 15.09 13.1917 15.7875C12.0667 16.5375 10.5967 16.9125 9.12672 16.9125ZM5.68422 11.3925C4.96422 11.8725 4.57422 12.4875 4.57422 13.1325C4.57422 13.77 4.97172 14.385 5.68422 14.8575C7.55172 16.11 10.7017 16.11 12.5692 14.8575C13.2892 14.3775 13.6792 13.7625 13.6792 13.1175C13.6792 12.48 13.2817 11.865 12.5692 11.3925C10.7017 10.1475 7.55172 10.1475 5.68422 11.3925Z" />
</svg>
