<svg viewBox="0 0 53 53" xmlns="http://www.w3.org/2000/svg">
<path fill-rule="evenodd" clip-rule="evenodd" d="M21.8961 14.5605C23.2179 9.92872 29.7821 9.92872 31.104 14.5605C31.5261 16.0397 33.0458 16.9171 34.5379 16.5431C39.2101 15.3719 42.4922 21.0567 39.1418 24.5174C38.0719 25.6225 38.0719 27.3773 39.1418 28.4824C42.4922 31.9431 39.2101 37.6279 34.5379 36.4567C33.0458 36.0827 31.5261 36.9601 31.104 38.4393C29.7821 43.0711 23.2179 43.0711 21.8961 38.4393C21.474 36.9601 19.9543 36.0827 18.4622 36.4567C13.79 37.6279 10.5079 31.9431 13.8583 28.4824C14.9282 27.3773 14.9282 25.6225 13.8583 24.5174C10.5079 21.0567 13.79 15.3719 18.4622 16.5431C19.9543 16.9171 21.474 16.0397 21.8961 14.5605ZM32.411 23.2451C32.7535 22.8341 32.6979 22.2232 32.2869 21.8807C31.8759 21.5382 31.265 21.5937 30.9225 22.0047L26.4488 27.3732C25.9698 27.948 25.6757 28.2973 25.4334 28.5161C25.3211 28.6175 25.2544 28.658 25.2225 28.6734C25.216 28.6766 25.2113 28.6785 25.2084 28.6795C25.2055 28.6785 25.2009 28.6766 25.1944 28.6734C25.1624 28.658 25.0958 28.6175 24.9834 28.5161C24.7411 28.2973 24.447 27.948 23.9681 27.3732L22.0776 25.1047C21.7351 24.6937 21.1243 24.6382 20.7132 24.9807C20.3022 25.3232 20.2467 25.9341 20.5892 26.3451L22.5209 28.6631C22.9452 29.1723 23.3276 29.6314 23.6849 29.954C24.0736 30.3051 24.5632 30.6177 25.2084 30.6177C25.8536 30.6177 26.3432 30.3051 26.7319 29.954C27.0892 29.6314 27.4717 29.1724 27.8959 28.6631L32.411 23.2451Z" />
</svg>
