<svg viewBox="0 0 22 22" xmlns="http://www.w3.org/2000/svg">
<path fill-rule="evenodd" clip-rule="evenodd" d="M1.94824 10.9998C1.94824 10.5569 2.30735 10.1978 2.75033 10.1978H19.2503C19.6933 10.1978 20.0524 10.5569 20.0524 10.9998C20.0524 11.4428 19.6933 11.8019 19.2503 11.8019H2.75033C2.30735 11.8019 1.94824 11.4428 1.94824 10.9998Z" />
<path fill-rule="evenodd" clip-rule="evenodd" d="M1.94824 5.49984C1.94824 5.05686 2.30735 4.69775 2.75033 4.69775H19.2503C19.6933 4.69775 20.0524 5.05686 20.0524 5.49984C20.0524 5.94282 19.6933 6.30192 19.2503 6.30192H2.75033C2.30735 6.30192 1.94824 5.94282 1.94824 5.49984Z" />
<path fill-rule="evenodd" clip-rule="evenodd" d="M1.94824 16.4998C1.94824 16.0569 2.30735 15.6978 2.75033 15.6978H19.2503C19.6933 15.6978 20.0524 16.0569 20.0524 16.4998C20.0524 16.9428 19.6933 17.3019 19.2503 17.3019H2.75033C2.30735 17.3019 1.94824 16.9428 1.94824 16.4998Z" />
</svg>
