<svg viewBox="0 0 37 37" xmlns="http://www.w3.org/2000/svg">
<path d="M19.1293 5.05038C18.7115 4.99712 18.2887 4.99712 17.8708 5.05038C16.9179 5.17184 16.124 5.62653 15.3419 6.25465C14.5898 6.85868 13.7456 7.71041 12.7128 8.75254L9.97052 11.5194C9.52099 11.973 9.52426 12.7051 9.97781 13.1546C10.4314 13.6041 11.1635 13.6008 11.613 13.1473L14.3067 10.4294C15.4 9.32633 16.1524 8.56967 16.7899 8.05768C16.9971 7.8913 17.1795 7.76148 17.3438 7.66068L17.3438 30.8334C17.3438 31.4719 17.8615 31.9896 18.5001 31.9896C19.1387 31.9896 19.6563 31.4719 19.6563 30.8334L19.6563 7.66068C19.8207 7.76148 20.0031 7.8913 20.2102 8.05769C20.8478 8.56967 21.6002 9.32633 22.6934 10.4294L25.3872 13.1473C25.8367 13.6008 26.5688 13.6041 27.0224 13.1546C27.4759 12.7051 27.4792 11.973 27.0296 11.5194L24.2873 8.75252C23.2545 7.7104 22.4104 6.85868 21.6582 6.25465C20.8761 5.62653 20.0823 5.17184 19.1293 5.05038Z" />
</svg>
