<svg width="16" height="16" viewBox="0 0 16 16" fill="none" xmlns="http://www.w3.org/2000/svg">
<path fill-rule="evenodd" clip-rule="evenodd" d="M3.16272 3.16272C3.37968 2.94576 3.73143 2.94576 3.94839 3.16272L8 7.21433L12.0516 3.16272C12.2686 2.94576 12.6203 2.94576 12.8373 3.16272C13.0542 3.37968 13.0542 3.73144 12.8373 3.94839L8.78567 8L12.8373 12.0516C13.0542 12.2686 13.0542 12.6203 12.8373 12.8373C12.6203 13.0542 12.2686 13.0542 12.0516 12.8373L8 8.78567L3.94839 12.8373C3.73143 13.0542 3.37968 13.0542 3.16272 12.8373C2.94576 12.6203 2.94576 12.2686 3.16272 12.0516L7.21433 8L3.16272 3.94839C2.94576 3.73143 2.94576 3.37968 3.16272 3.16272Z" fill="#E52222"/>
</svg>
