<svg width="1110" height="172" viewBox="0 0 1110 172" fill="none" xmlns="http://www.w3.org/2000/svg">
<path fill-rule="evenodd" clip-rule="evenodd" d="M514.97 0.999692C514.973 0.447416 515.423 0.00225076 515.976 0.00538757C517.303 0.0129239 518.637 0.0283332 519.978 0.0517595C520.531 0.0614019 520.97 0.516866 520.961 1.06907C520.951 1.62127 520.496 2.0611 519.943 2.05145C518.61 2.02817 517.283 2.01285 515.964 2.00536C515.412 2.00222 514.967 1.55197 514.97 0.999692ZM513.023 1.00009C513.027 1.55236 512.582 2.00282 512.03 2.00622C510.702 2.01437 509.383 2.03049 508.071 2.05441C507.519 2.06448 507.063 1.625 507.053 1.0728C507.043 0.52061 507.483 0.0648077 508.035 0.0547394C509.355 0.0306746 510.682 0.0144622 512.017 0.00625404C512.57 0.0028589 513.02 0.447813 513.023 1.00009ZM522.962 1.11572C522.978 0.563668 523.439 0.129166 523.991 0.145232C525.298 0.183265 526.611 0.228876 527.932 0.282193C528.484 0.304475 528.913 0.769889 528.891 1.32172C528.868 1.87356 528.403 2.30285 527.851 2.28057C526.538 2.22755 525.232 2.1822 523.933 2.14439C523.381 2.12832 522.946 1.66777 522.962 1.11572ZM505.05 1.12165C505.067 1.67368 504.633 2.13488 504.081 2.15178C502.76 2.19225 501.446 2.24068 500.14 2.2969C499.588 2.32065 499.122 1.89261 499.098 1.34084C499.074 0.789064 499.502 0.322505 500.054 0.298748C501.368 0.242172 502.69 0.193442 504.02 0.15272C504.572 0.13582 505.033 0.569625 505.05 1.12165ZM530.863 1.41252C530.892 0.860966 531.362 0.436925 531.914 0.465395C533.248 0.534255 534.589 0.610951 535.936 0.695611C536.487 0.73024 536.906 1.20515 536.871 1.75635C536.837 2.30754 536.362 2.7263 535.811 2.69168C534.471 2.60748 533.137 2.53121 531.811 2.46274C531.259 2.43427 530.835 1.96407 530.863 1.41252ZM497.148 1.43705C497.179 1.98848 496.756 2.4604 496.205 2.49111C494.866 2.56568 493.536 2.64847 492.215 2.7393C491.664 2.77718 491.187 2.36123 491.149 1.81025C491.111 1.25926 491.527 0.781893 492.078 0.744014C493.408 0.652582 494.746 0.569253 496.094 0.494209C496.645 0.463497 497.117 0.885623 497.148 1.43705ZM538.809 1.88864C538.85 1.33785 539.329 0.924245 539.88 0.964826C541.191 1.06145 542.509 1.16558 543.833 1.27735C544.383 1.32381 544.792 1.8076 544.745 2.35793C544.699 2.90826 544.215 3.31672 543.665 3.27026C542.348 3.15909 541.037 3.05552 539.733 2.95942C539.182 2.91884 538.769 2.43944 538.809 1.88864ZM489.192 1.9575C489.238 2.50794 488.828 2.9907 488.277 3.03577C486.963 3.14342 485.657 3.25908 484.36 3.38255C483.81 3.43489 483.322 3.03162 483.27 2.48182C483.217 1.93203 483.621 1.44389 484.17 1.39155C485.476 1.26724 486.791 1.15081 488.114 1.04244C488.665 0.99737 489.147 1.40706 489.192 1.9575ZM546.733 2.53645C546.785 1.98664 547.273 1.58335 547.823 1.63566C549.147 1.76165 550.478 1.89525 551.814 2.03657C552.363 2.09465 552.761 2.58696 552.703 3.13619C552.645 3.68541 552.153 4.08356 551.604 4.02548C550.274 3.8849 548.951 3.752 547.634 3.62667C547.084 3.57436 546.681 3.08625 546.733 2.53645ZM481.267 2.68625C481.327 3.23528 480.93 3.72888 480.381 3.78874C479.064 3.93229 477.757 4.08393 476.46 4.24345C475.912 4.31084 475.413 3.9211 475.345 3.37294C475.278 2.82478 475.667 2.32578 476.216 2.25839C477.522 2.09775 478.839 1.94506 480.164 1.80052C480.713 1.74066 481.207 2.13722 481.267 2.68625ZM554.623 3.34905C554.686 2.80045 555.183 2.40732 555.731 2.47098C557.043 2.62316 558.36 2.78274 559.683 2.94983C560.231 3.01904 560.619 3.51934 560.549 4.06727C560.48 4.6152 559.98 5.00328 559.432 4.93407C558.116 4.76782 556.805 4.60905 555.501 4.45765C554.952 4.39399 554.559 3.89766 554.623 3.34905ZM473.41 3.62447C473.485 4.17164 473.102 4.67602 472.555 4.75104C471.227 4.9332 469.909 5.12364 468.601 5.32216C468.055 5.40506 467.545 5.02961 467.462 4.48358C467.379 3.93756 467.755 3.42771 468.301 3.34482C469.618 3.14486 470.945 2.95304 472.283 2.76958C472.831 2.69456 473.335 3.0773 473.41 3.62447ZM562.542 4.32924C562.617 3.78204 563.121 3.39902 563.668 3.47375C564.976 3.65228 566.288 3.83811 567.607 4.03135C568.153 4.11146 568.531 4.61938 568.451 5.16582C568.371 5.71227 567.863 6.09031 567.316 6.0102C566.005 5.81791 564.698 5.63299 563.398 5.45536C562.851 5.38063 562.468 4.87645 562.542 4.32924ZM465.532 4.79091C465.622 5.33568 465.254 5.8509 464.71 5.94168C463.401 6.15982 462.102 6.38608 460.815 6.62021C460.272 6.71904 459.751 6.35866 459.652 5.81529C459.553 5.27192 459.914 4.75132 460.457 4.65249C461.754 4.41659 463.062 4.18865 464.381 3.96889C464.926 3.87811 465.441 4.24613 465.532 4.79091ZM570.371 5.45676C570.456 4.91111 570.968 4.53798 571.513 4.62335C572.821 4.82792 574.133 5.03975 575.451 5.25893C575.996 5.34953 576.365 5.86462 576.274 6.40942C576.183 6.95423 575.668 7.32243 575.123 7.23183C573.812 7.0137 572.505 6.80289 571.204 6.59932C570.658 6.51395 570.285 6.00241 570.371 5.45676ZM457.688 6.18788C457.795 6.72968 457.443 7.2557 456.901 7.36278C455.608 7.61836 454.326 7.88192 453.055 8.1532C452.515 8.26853 451.984 7.92418 451.869 7.38407C451.753 6.84396 452.098 6.31262 452.638 6.19729C453.918 5.92388 455.21 5.65827 456.513 5.40072C457.055 5.29365 457.581 5.64607 457.688 6.18788ZM578.263 6.75001C578.359 6.2061 578.877 5.84283 579.421 5.93863C580.714 6.16641 582.013 6.40125 583.316 6.64323C583.859 6.74406 584.217 7.26599 584.116 7.80899C584.016 8.35199 583.494 8.71044 582.951 8.60961C581.654 8.36876 580.361 8.13502 579.074 7.90831C578.53 7.81251 578.167 7.29392 578.263 6.75001ZM449.921 7.81599C450.045 8.35421 449.709 8.89092 449.171 9.01477C447.873 9.31344 446.587 9.62018 445.314 9.93472C444.778 10.0672 444.236 9.73996 444.103 9.2038C443.971 8.66764 444.298 8.1256 444.834 7.99312C446.118 7.676 447.414 7.36677 448.722 7.0657C449.26 6.94185 449.797 7.27777 449.921 7.81599ZM586.029 8.17314C586.134 7.63108 586.66 7.27741 587.202 7.38319C588.502 7.63691 589.807 7.89771 591.117 8.16568C591.658 8.27638 592.006 8.80475 591.896 9.34583C591.785 9.88691 591.257 10.2358 590.716 10.1251C589.412 9.85833 588.113 9.59872 586.819 9.34616C586.277 9.24038 585.923 8.7152 586.029 8.17314ZM442.231 9.68249C442.372 10.2164 442.054 10.7637 441.52 10.9049C440.219 11.2487 438.933 11.6006 437.66 11.9604C437.128 12.1106 436.575 11.8015 436.425 11.27C436.275 10.7385 436.584 10.186 437.116 10.0358C438.4 9.67291 439.697 9.31798 441.009 8.9713C441.543 8.83014 442.09 9.14855 442.231 9.68249ZM593.873 9.75974C593.989 9.21969 594.52 8.8756 595.06 8.99119C596.343 9.26578 597.631 9.54723 598.923 9.83561C599.462 9.95593 599.801 10.4904 599.681 11.0294C599.56 11.5685 599.026 11.9079 598.487 11.7876C597.201 11.5005 595.919 11.2203 594.642 10.9469C594.102 10.8313 593.757 10.2998 593.873 9.75974ZM601.578 11.4616C601.703 10.9237 602.24 10.5889 602.778 10.7138C604.068 11.0134 605.362 11.3199 606.661 11.6334C607.198 11.763 607.528 12.3032 607.398 12.8401C607.269 13.377 606.728 13.7071 606.192 13.5775C604.899 13.2654 603.61 12.9603 602.326 12.662C601.788 12.537 601.453 11.9996 601.578 11.4616ZM434.551 11.8169C434.71 12.3458 434.41 12.9036 433.882 13.0628C432.605 13.4471 431.343 13.8394 430.096 14.2391C429.57 14.4076 429.007 14.1179 428.839 13.5919C428.67 13.066 428.96 12.503 429.486 12.3345C430.744 11.9312 432.017 11.5355 433.305 11.1477C433.834 10.9885 434.392 11.2881 434.551 11.8169ZM609.357 13.3218C609.491 12.7861 610.034 12.4605 610.57 12.5947C611.847 12.9145 613.128 13.241 614.413 13.5743C614.947 13.7129 615.268 14.2587 615.13 14.7933C614.991 15.3279 614.445 15.6489 613.911 15.5102C612.631 15.1784 611.355 14.8532 610.084 14.5348C609.548 14.4006 609.223 13.8575 609.357 13.3218ZM426.955 14.2143C427.133 14.7371 426.853 15.3052 426.33 15.4833C425.081 15.9086 423.848 16.3414 422.63 16.7813C422.11 16.9689 421.537 16.6999 421.349 16.1804C421.162 15.661 421.431 15.0878 421.95 14.9002C423.18 14.4561 424.425 14.0192 425.686 13.59C426.208 13.412 426.777 13.6915 426.955 14.2143ZM617.006 15.2881C617.149 14.7546 617.697 14.4381 618.231 14.5811C619.508 14.9234 620.788 15.2723 622.073 15.628C622.606 15.7753 622.918 16.3262 622.77 16.8585C622.623 17.3908 622.072 17.7028 621.54 17.5555C620.26 17.2013 618.984 16.8537 617.713 16.5129C617.18 16.3699 616.863 15.8215 617.006 15.2881ZM419.463 16.8821C419.66 17.3978 419.403 17.9761 418.887 18.1736C417.656 18.6451 416.442 19.1239 415.244 19.6095C414.732 19.8171 414.149 19.5704 413.942 19.0586C413.734 18.5468 413.981 17.9637 414.492 17.7561C415.702 17.2656 416.928 16.7821 418.171 16.306C418.687 16.1084 419.265 16.3663 419.463 16.8821ZM624.704 17.4023C624.856 16.8712 625.409 16.5636 625.94 16.7153C627.216 17.0794 628.495 17.4502 629.778 17.8277C630.308 17.9836 630.611 18.5394 630.455 19.0693C630.299 19.5991 629.743 19.9023 629.214 19.7464C627.935 19.3704 626.661 19.0011 625.391 18.6384C624.86 18.4868 624.552 17.9333 624.704 17.4023ZM632.305 19.6212C632.465 19.0925 633.023 18.7937 633.551 18.9536C634.813 19.3354 636.078 19.7236 637.347 20.1183C637.875 20.2823 638.169 20.8428 638.005 21.3701C637.841 21.8975 637.281 22.192 636.753 22.028C635.489 21.6349 634.229 21.2482 632.972 20.8679C632.443 20.708 632.145 20.1498 632.305 19.6212ZM412.086 19.833C412.304 20.3405 412.069 20.9285 411.562 21.1465C410.344 21.6694 409.146 22.1992 407.965 22.7356C407.462 22.9641 406.87 22.7417 406.641 22.2389C406.413 21.7361 406.635 21.1433 407.138 20.9148C408.331 20.3726 409.542 19.8371 410.772 19.3088C411.28 19.0909 411.868 19.3255 412.086 19.833ZM639.909 21.9702C640.077 21.4441 640.639 21.1538 641.165 21.3219C642.442 21.7297 643.722 22.144 645.006 22.5649C645.531 22.737 645.817 23.3019 645.645 23.8267C645.473 24.3515 644.908 24.6374 644.383 24.4654C643.104 24.046 641.828 23.6333 640.557 23.2271C640.031 23.059 639.741 22.4963 639.909 21.9702ZM404.838 23.082C405.077 23.5797 404.868 24.1772 404.37 24.4166C403.172 24.993 401.994 25.576 400.836 26.165C400.344 26.4155 399.742 26.2196 399.492 25.7274C399.241 25.2353 399.437 24.6332 399.929 24.3826C401.1 23.7867 402.291 23.1971 403.503 22.6143C404.001 22.3749 404.598 22.5843 404.838 23.082ZM647.47 24.4325C647.646 23.909 648.213 23.6272 648.736 23.8031C649.981 24.2212 651.229 24.6456 652.48 25.0762C653.002 25.2559 653.28 25.8249 653.1 26.3471C652.92 26.8694 652.351 27.147 651.829 26.9673C650.582 26.5383 649.339 26.1155 648.099 25.6989C647.576 25.523 647.294 24.956 647.47 24.4325ZM397.737 26.6464C397.999 27.1326 397.817 27.7391 397.331 28.0012C396.158 28.6332 395.009 29.2712 393.882 29.9147C393.402 30.1886 392.792 30.0218 392.518 29.5422C392.244 29.0626 392.411 28.4518 392.89 28.1779C394.031 27.5263 395.195 26.8803 396.382 26.2406C396.868 25.9786 397.475 26.1603 397.737 26.6464ZM654.969 26.9978C655.152 26.4768 655.723 26.2033 656.244 26.3868C657.502 26.83 658.764 27.2794 660.029 27.7353C660.548 27.9225 660.818 28.4955 660.631 29.0151C660.443 29.5347 659.87 29.8041 659.351 29.6169C658.09 29.1626 656.833 28.7148 655.58 28.2732C655.059 28.0897 654.785 27.5187 654.969 26.9978ZM662.502 29.6968C662.693 29.1786 663.267 28.9132 663.786 29.1042C665.011 29.5557 666.24 30.0132 667.472 30.4767C667.989 30.6712 668.251 31.2479 668.056 31.7648C667.862 32.2817 667.285 32.5431 666.768 32.3486C665.54 31.8867 664.316 31.4308 663.094 30.9809C662.576 30.79 662.311 30.2151 662.502 29.6968ZM390.81 30.5467C391.096 31.019 390.945 31.6339 390.473 31.9201C389.334 32.6097 388.222 33.3045 387.135 34.0038C386.671 34.3027 386.052 34.1685 385.753 33.704C385.454 33.2396 385.588 32.6208 386.053 32.322C387.155 31.6128 388.283 30.9084 389.436 30.2096C389.909 29.9234 390.524 30.0743 390.81 30.5467ZM669.886 32.4604C670.084 31.9448 670.662 31.6874 671.178 31.8854C672.416 32.361 673.658 32.8426 674.903 33.3304C675.417 33.5319 675.67 34.1121 675.469 34.6263C675.267 35.1405 674.687 35.394 674.173 35.1925C672.932 34.7064 671.695 34.2264 670.461 33.7524C669.945 33.5544 669.688 32.976 669.886 32.4604ZM384.093 34.8059C384.405 35.2615 384.289 35.8839 383.833 36.196C382.74 36.9448 381.676 37.6976 380.642 38.4536C380.196 38.7795 379.57 38.6821 379.244 38.2362C378.919 37.7903 379.016 37.1646 379.462 36.8388C380.513 36.0707 381.593 35.3061 382.703 34.5461C383.158 34.234 383.781 34.3503 384.093 34.8059ZM677.346 35.3694C677.551 34.8566 678.133 34.607 678.646 34.812C679.871 35.3015 681.098 35.7969 682.329 36.2982C682.84 36.5066 683.086 37.0901 682.877 37.6016C682.669 38.1131 682.086 38.3588 681.574 38.1504C680.348 37.6507 679.124 37.157 677.904 36.6692C677.391 36.4642 677.141 35.8823 677.346 35.3694ZM684.665 38.3367C684.877 37.8266 685.462 37.5847 685.972 37.7963C687.189 38.3015 688.41 38.8125 689.633 39.3293C690.141 39.5442 690.38 40.1309 690.165 40.6396C689.95 41.1484 689.363 41.3865 688.854 41.1716C687.635 40.6564 686.419 40.1471 685.205 39.6436C684.695 39.4319 684.453 38.8468 684.665 38.3367ZM377.639 39.4499C377.979 39.8848 377.903 40.5133 377.468 40.8538C376.422 41.6727 375.41 42.4941 374.432 43.3169C374.009 43.6725 373.378 43.6181 373.023 43.1955C372.667 42.7729 372.722 42.1421 373.144 41.7865C374.14 40.9483 375.171 40.1121 376.235 39.279C376.67 38.9385 377.298 39.0151 377.639 39.4499ZM691.997 41.4208C692.215 40.9135 692.803 40.6791 693.311 40.8973C694.54 41.4258 695.771 41.9603 697.006 42.5006C697.512 42.7221 697.743 43.3118 697.521 43.8177C697.3 44.3236 696.71 44.5543 696.204 44.3328C694.973 43.7942 693.745 43.2614 692.521 42.7346C692.013 42.5163 691.779 41.9282 691.997 41.4208ZM699.313 44.6085C699.537 44.104 700.128 43.877 700.633 44.1016C701.828 44.6336 703.026 45.1712 704.227 45.7143C704.73 45.942 704.954 46.5344 704.726 47.0376C704.498 47.5408 703.906 47.7642 703.403 47.5365C702.206 46.995 701.011 46.4591 699.82 45.9288C699.315 45.7042 699.088 45.1131 699.313 44.6085ZM371.524 44.5059C371.895 44.9144 371.866 45.5468 371.457 45.9186C370.462 46.8241 369.509 47.7296 368.598 48.6337C368.205 49.0227 367.572 49.0201 367.183 48.6279C366.794 48.2358 366.797 47.6026 367.189 47.2137C368.122 46.2889 369.096 45.3637 370.111 44.4395C370.52 44.0677 371.152 44.0975 371.524 44.5059ZM706.511 47.8515C706.741 47.3497 707.335 47.1299 707.837 47.3606C709.043 47.915 710.251 48.475 711.463 49.0406C711.963 49.2743 712.179 49.8694 711.946 50.3698C711.712 50.8702 711.117 51.0865 710.616 50.8528C709.409 50.2888 708.204 49.7305 707.002 49.1778C706.5 48.9471 706.28 48.3533 706.511 47.8515ZM365.835 50.0273C366.242 50.4005 366.27 51.0331 365.896 51.4402C364.986 52.4336 364.126 53.4232 363.318 54.4068C362.968 54.8335 362.337 54.8953 361.911 54.5448C361.484 54.1942 361.422 53.5641 361.773 53.1373C362.605 52.1245 363.488 51.1076 364.422 50.0885C364.796 49.6814 365.428 49.654 365.835 50.0273ZM713.772 51.2296C714.009 50.7306 714.605 50.518 715.104 50.7547C715.713 51.0432 716.322 51.3332 716.931 51.6246C717.549 51.9198 718.165 52.2139 718.781 52.507C719.28 52.7444 719.491 53.3411 719.254 53.8397C719.017 54.3384 718.42 54.5502 717.921 54.3128C717.305 54.0193 716.687 53.7247 716.069 53.4291C715.461 53.1385 714.854 52.8494 714.247 52.5617C713.748 52.325 713.536 51.7286 713.772 51.2296ZM0 52.5268C0 51.9746 0.447715 51.5268 1 51.5268C1.66749 51.5268 2.33783 51.5352 3.01098 51.5518C3.56309 51.5654 3.99965 52.024 3.98605 52.5761C3.97245 53.1282 3.51384 53.5648 2.96172 53.5512C2.3047 53.535 1.65078 53.5268 1 53.5268C0.447715 53.5268 0 53.0791 0 52.5268ZM1109.18 51.7937C1109.58 52.1692 1109.61 52.8019 1109.23 53.2069C1108.78 53.6948 1108.33 54.1825 1107.87 54.6698C1107.49 55.0731 1106.86 55.0942 1106.46 54.7168C1106.05 54.3395 1106.03 53.7067 1106.41 53.3034C1106.86 52.8183 1107.32 52.3327 1107.77 51.8469C1108.14 51.442 1108.78 51.4181 1109.18 51.7937ZM6.01428 52.6749C6.05362 52.124 6.53209 51.7094 7.08297 51.7487C8.4251 51.8445 9.77761 51.9709 11.14 52.1266C11.6887 52.1893 12.0827 52.6849 12.02 53.2336C11.9573 53.7823 11.4617 54.1763 10.9129 54.1136C9.57761 53.961 8.25333 53.8374 6.94051 53.7436C6.38962 53.7043 5.97494 53.2258 6.01428 52.6749ZM14.0269 53.5035C14.1107 52.9576 14.6212 52.583 15.167 52.6669C16.4983 52.8713 17.8385 53.1019 19.1872 53.3579C19.7298 53.4609 20.0862 53.9842 19.9832 54.5268C19.8802 55.0694 19.3568 55.4258 18.8143 55.3228C17.4878 55.0711 16.1707 54.8444 14.8635 54.6437C14.3176 54.5599 13.9431 54.0494 14.0269 53.5035ZM21.9543 54.9345C22.0745 54.3955 22.6089 54.0559 23.148 54.1761C24.4675 54.4702 25.7947 54.7872 27.1292 55.126C27.6646 55.2619 27.9883 55.806 27.8524 56.3413C27.7165 56.8766 27.1724 57.2004 26.6371 57.0645C25.3208 56.7303 24.0126 56.4179 22.7128 56.1282C22.1737 56.008 21.8342 55.4736 21.9543 54.9345ZM721.131 54.7296C721.367 54.2302 721.963 54.0165 722.462 54.2523C723.685 54.8298 724.904 55.4029 726.119 55.9718C726.619 56.206 726.835 56.8014 726.601 57.3015C726.367 57.8017 725.771 58.0173 725.271 57.7831C724.054 57.2133 722.833 56.6392 721.608 56.0608C721.109 55.825 720.895 55.229 721.131 54.7296ZM1105.08 56.176C1105.48 56.5572 1105.49 57.1902 1105.11 57.5898C1104.19 58.5561 1103.26 59.5204 1102.32 60.4821C1101.94 60.8776 1101.31 60.8857 1100.91 60.5003C1100.51 60.1148 1100.51 59.4817 1100.89 59.0862C1101.82 58.1299 1102.75 57.1707 1103.67 56.2094C1104.05 55.8097 1104.68 55.7948 1105.08 56.176ZM360.691 56.1235C361.139 56.4464 361.241 57.0714 360.918 57.5195C360.567 58.0066 360.229 58.4917 359.904 58.9743C359.712 59.5386 359.519 60.1183 359.326 60.7129C359.155 61.238 358.591 61.5252 358.066 61.3543C357.54 61.1835 357.253 60.6192 357.424 60.094C357.634 59.4476 357.844 58.8172 358.054 58.2036L358.096 58.0795L358.169 57.9706C358.529 57.4324 358.905 56.8921 359.295 56.3501C359.618 55.9021 360.243 55.8006 360.691 56.1235ZM29.7805 56.8586C29.9304 56.3271 30.4828 56.0177 31.0143 56.1676C32.316 56.5347 33.6243 56.9214 34.9388 57.3269C35.4665 57.4897 35.7623 58.0495 35.5995 58.5773C35.4367 59.105 34.8769 59.4008 34.3492 59.238C33.0496 58.8371 31.757 58.455 30.4715 58.0925C29.94 57.9426 29.6306 57.3902 29.7805 56.8586ZM728.424 58.1517C728.657 57.6507 729.251 57.4332 729.752 57.6657C730.959 58.2261 732.162 58.7822 733.361 59.3341C733.863 59.565 734.083 60.1589 733.852 60.6606C733.621 61.1623 733.027 61.3818 732.525 61.1509C731.324 60.5981 730.119 60.041 728.91 59.4798C728.409 59.2472 728.192 58.6526 728.424 58.1517ZM37.5035 59.1882C37.6778 58.6642 38.244 58.3807 38.768 58.555C40.0429 58.9791 41.3234 59.42 42.6091 59.8769C43.1295 60.0618 43.4015 60.6336 43.2166 61.154C43.0317 61.6744 42.4599 61.9463 41.9395 61.7614C40.666 61.3089 39.3983 60.8725 38.1367 60.4528C37.6127 60.2784 37.3292 59.7123 37.5035 59.1882ZM735.622 61.4717C735.851 60.9693 736.444 60.7478 736.946 60.977C738.149 61.5256 739.347 62.07 740.542 62.61C741.045 62.8375 741.268 63.4299 741.041 63.9332C740.813 64.4364 740.221 64.6599 739.718 64.4324C738.521 63.8914 737.321 63.3461 736.116 62.7966C735.614 62.5674 735.392 61.9742 735.622 61.4717ZM45.1283 61.8539C45.3229 61.337 45.8996 61.0757 46.4165 61.2702C47.6659 61.7405 48.92 62.225 50.1786 62.7232C50.6921 62.9265 50.9436 63.5076 50.7404 64.0211C50.5371 64.5346 49.956 64.7861 49.4425 64.5828C48.194 64.0886 46.9505 63.6082 45.712 63.142C45.1951 62.9475 44.9338 62.3708 45.1283 61.8539ZM1099.5 61.9294C1099.89 62.3196 1099.89 62.9527 1099.5 63.3436C1098.56 64.2894 1097.61 65.232 1096.64 66.1707C1096.25 66.5566 1095.62 66.5491 1095.23 66.1539C1094.84 65.7588 1094.85 65.1257 1095.25 64.7398C1096.2 63.8074 1097.15 62.8708 1098.09 61.9308C1098.48 61.5399 1099.11 61.5393 1099.5 61.9294ZM357.465 63.2723C357.994 63.4333 358.292 63.9921 358.13 64.5203C357.757 65.7444 357.379 67.0148 356.992 68.3276C356.836 68.8573 356.28 69.1603 355.75 69.0043C355.221 68.8482 354.918 68.2923 355.074 67.7625C355.461 66.4461 355.842 65.1693 356.217 63.9373C356.378 63.409 356.937 63.1113 357.465 63.2723ZM52.6609 64.7994C52.8723 64.2892 53.4572 64.0469 53.9675 64.2582C55.1941 64.7663 56.4246 65.2866 57.6589 65.8186C58.1661 66.0372 58.4 66.6256 58.1814 67.1328C57.9628 67.64 57.3744 67.8739 56.8673 67.6553C55.6414 67.1269 54.4196 66.6103 53.2021 66.106C52.6918 65.8946 52.4496 65.3097 52.6609 64.7994ZM742.945 64.7899C743.171 64.2859 743.762 64.0603 744.266 64.286C745.503 64.84 746.736 65.3895 747.965 65.9343C748.469 66.1582 748.697 66.7489 748.473 67.2538C748.249 67.7587 747.659 67.9864 747.154 67.7625C745.923 67.2167 744.688 66.6663 743.449 66.1113C742.945 65.8856 742.719 65.294 742.945 64.7899ZM1093.79 67.5461C1094.17 67.9465 1094.15 68.5795 1093.75 68.9598C1092.78 69.8806 1091.8 70.797 1090.81 71.7084C1090.41 72.0828 1089.77 72.0571 1089.4 71.6511C1089.03 71.245 1089.05 70.6124 1089.46 70.238C1090.44 69.3336 1091.41 68.424 1092.37 67.5097C1092.77 67.1294 1093.41 67.1457 1093.79 67.5461ZM60.0507 67.9537C60.276 67.4494 60.8674 67.2233 61.3717 67.4487C62.5976 67.9965 63.827 68.5552 65.0597 69.1242C65.5611 69.3557 65.78 69.9498 65.5485 70.4513C65.317 70.9527 64.7229 71.1716 64.2214 70.9401C62.9959 70.3744 61.7739 69.819 60.5557 69.2746C60.0515 69.0493 59.8254 68.4579 60.0507 67.9537ZM750.319 68.0685C750.541 67.5628 751.131 67.3329 751.637 67.5549C752.857 68.0906 754.072 68.6216 755.283 69.1481C755.79 69.3683 756.022 69.9574 755.802 70.4639C755.582 70.9704 754.992 71.2025 754.486 70.9823C753.272 70.4548 752.055 69.9228 750.833 69.3861C750.327 69.1641 750.097 68.5741 750.319 68.0685ZM757.59 71.2374C757.808 70.73 758.397 70.4957 758.904 70.714C760.118 71.2364 761.328 71.7542 762.533 72.2673C763.041 72.4837 763.278 73.071 763.062 73.5791C762.845 74.0873 762.258 74.3238 761.75 74.1075C760.542 73.5933 759.33 73.0746 758.113 72.5512C757.606 72.3329 757.372 71.7447 757.59 71.2374ZM67.3732 71.3064C67.6103 70.8076 68.2068 70.5954 68.7056 70.8325C69.9239 71.4115 71.1452 72.0001 72.3692 72.5976C72.8655 72.8399 73.0715 73.4387 72.8292 73.935C72.5869 74.4313 71.9881 74.6372 71.4918 74.3949C70.2739 73.8003 69.0589 73.2148 67.8471 72.6388C67.3483 72.4017 67.1361 71.8052 67.3732 71.3064ZM355.192 70.9181C355.722 71.0724 356.027 71.6274 355.873 72.1577L355.651 72.9207C355.358 73.9277 355.059 74.9538 354.754 75.9967C354.599 76.5268 354.044 76.8309 353.514 76.6759C352.984 76.521 352.68 75.9657 352.835 75.4355C353.143 74.3811 353.445 73.344 353.741 72.3251L353.952 71.5989C354.107 71.0686 354.662 70.7638 355.192 70.9181ZM1087.91 72.9991C1088.28 73.411 1088.25 74.0432 1087.84 74.4111C1086.84 75.3024 1085.83 76.1882 1084.81 77.0678C1084.39 77.4288 1083.76 77.3826 1083.4 76.9647C1083.04 76.5467 1083.09 75.9153 1083.5 75.5542C1084.51 74.6821 1085.51 73.8037 1086.5 72.9196C1086.91 72.5516 1087.55 72.5873 1087.91 72.9991ZM764.984 74.393C765.198 73.884 765.785 73.6451 766.294 73.8593C767.542 74.385 768.787 74.9057 770.026 75.4215C770.536 75.6337 770.777 76.2191 770.565 76.729C770.353 77.2389 769.767 77.4802 769.258 77.268C768.016 76.7512 766.769 76.2294 765.518 75.7027C765.009 75.4884 764.77 74.902 764.984 74.393ZM74.6355 74.8277C74.8825 74.3338 75.4832 74.1336 75.9772 74.3806C77.176 74.98 78.3773 75.5876 79.5808 76.2027C80.0725 76.4541 80.2674 77.0565 80.0161 77.5482C79.7647 78.04 79.1623 78.2349 78.6705 77.9836C77.4721 77.371 76.2761 76.7661 75.0827 76.1694C74.5887 75.9224 74.3885 75.3217 74.6355 74.8277ZM772.425 77.4985C772.635 76.9877 773.219 76.7439 773.73 76.954C774.96 77.4599 776.186 77.9609 777.406 78.4571C777.918 78.665 778.164 79.2483 777.956 79.76C777.748 80.2716 777.165 80.5178 776.653 80.3099C775.43 79.8127 774.202 79.3107 772.969 78.8037C772.459 78.5936 772.215 78.0092 772.425 77.4985ZM1081.87 78.2616C1082.23 78.6858 1082.17 79.3164 1081.75 79.67C1080.72 80.5274 1079.68 81.3781 1078.63 82.2216C1078.2 82.5675 1077.57 82.4988 1077.22 82.0682C1076.88 81.6376 1076.94 81.0081 1077.38 80.6623C1078.42 79.8266 1079.45 78.9836 1080.46 78.1339C1080.89 77.7802 1081.52 77.8374 1081.87 78.2616ZM81.8423 78.4914C82.0977 78.0017 82.7017 77.8117 83.1914 78.0671C84.3741 78.6839 85.5589 79.3075 86.7454 79.9376C87.2332 80.1966 87.4187 80.8019 87.1597 81.2897C86.9007 81.7775 86.2953 81.963 85.8075 81.704C84.6251 81.0762 83.4448 80.4548 82.2666 79.8404C81.7769 79.5851 81.5869 78.9811 81.8423 78.4914ZM352.95 78.5926C353.479 78.7499 353.781 79.3067 353.624 79.8361C353.249 81.0948 352.865 82.374 352.469 83.6707C352.308 84.1989 351.749 84.4964 351.221 84.3352C350.693 84.1739 350.395 83.615 350.556 83.0868C350.951 81.7956 351.333 80.5212 351.707 79.2662C351.864 78.7368 352.421 78.4352 352.95 78.5926ZM779.754 80.4862C779.96 79.9737 780.542 79.725 781.055 79.9308C782.298 80.4299 783.537 80.924 784.77 81.4129C785.284 81.6164 785.535 82.1976 785.331 82.711C785.128 83.2245 784.547 83.4757 784.033 83.2722C782.797 82.7822 781.556 82.287 780.31 81.7868C779.797 81.581 779.548 80.9988 779.754 80.4862ZM88.9554 82.2514C89.2178 81.7654 89.8244 81.5841 90.3104 81.8465C91.4939 82.4854 92.6791 83.1303 93.8657 83.7806C94.3501 84.046 94.5275 84.6538 94.2621 85.1381C93.9967 85.6225 93.3889 85.7999 92.9045 85.5345C91.7215 84.8861 90.54 84.2433 89.3603 83.6064C88.8743 83.3441 88.693 82.7374 88.9554 82.2514ZM787.262 83.4712C787.463 82.9568 788.043 82.7029 788.558 82.904C789.815 83.3957 791.067 83.8821 792.315 84.3632C792.83 84.5619 793.087 85.1407 792.888 85.656C792.689 86.1713 792.11 86.4279 791.595 86.2292C790.345 85.747 789.09 85.2595 787.829 84.7667C787.315 84.5656 787.061 83.9855 787.262 83.4712ZM1075.65 83.3067C1075.99 83.7438 1075.91 84.3718 1075.47 84.7094C1074.41 85.5285 1073.34 86.3401 1072.25 87.1434C1071.81 87.4723 1071.18 87.3792 1070.85 86.9355C1070.53 86.4918 1070.62 85.8655 1071.06 85.5366C1072.14 84.7413 1073.2 83.9377 1074.25 83.1265C1074.68 82.7889 1075.31 82.8696 1075.65 83.3067ZM96.0295 86.1136C96.2977 85.6308 96.9065 85.4568 97.3893 85.7251C98.5651 86.3783 99.7422 87.0364 100.92 87.6991C101.402 87.9699 101.572 88.5796 101.302 89.061C101.031 89.5423 100.421 89.7131 99.9398 89.4423C98.7646 88.7813 97.5906 88.1248 96.418 87.4734C95.9352 87.2052 95.7613 86.5964 96.0295 86.1136ZM794.751 86.3697C794.948 85.8535 795.525 85.5942 796.041 85.7905C797.279 86.261 798.511 86.7262 799.738 87.1862C800.255 87.38 800.517 87.9564 800.323 88.4735C800.129 88.9907 799.553 89.2528 799.036 89.0589C797.806 88.5978 796.571 88.1315 795.33 87.6599C794.814 87.4635 794.555 86.8859 794.751 86.3697ZM350.63 86.242C351.156 86.4083 351.448 86.9701 351.282 87.4967C350.884 88.7556 350.475 90.0279 350.053 91.3113C349.881 91.8359 349.315 92.1214 348.791 91.9488C348.266 91.7763 347.981 91.2112 348.153 90.6865C348.572 89.4113 348.979 88.1465 349.375 86.8944C349.541 86.3677 350.103 86.0757 350.63 86.242ZM1069.24 88.1086C1069.56 88.5589 1069.45 89.1832 1069 89.5029C1067.91 90.2799 1066.8 91.0483 1065.68 91.8076C1065.22 92.1178 1064.6 91.9988 1064.29 91.5419C1063.98 91.0849 1064.1 90.463 1064.56 90.1528C1065.67 89.4015 1066.76 88.6412 1067.84 87.8722C1068.29 87.5525 1068.92 87.6583 1069.24 88.1086ZM802.136 89.1481C802.328 88.63 802.903 88.3652 803.421 88.5565C804.705 89.0308 805.984 89.4993 807.257 89.962C807.776 90.1507 808.044 90.7244 807.855 91.2434C807.667 91.7625 807.093 92.0303 806.574 91.8417C805.297 91.3778 804.015 90.9081 802.728 90.4326C802.21 90.2413 801.945 89.6662 802.136 89.1481ZM103.071 90.0619C103.344 89.5819 103.955 89.4141 104.435 89.6871C105.6 90.3498 106.766 91.0165 107.933 91.6869C108.412 91.962 108.577 92.5732 108.302 93.0521C108.027 93.531 107.415 93.6962 106.936 93.4211C105.772 92.7521 104.608 92.0868 103.446 91.4256C102.966 91.1525 102.798 90.542 103.071 90.0619ZM809.782 91.938C809.968 91.4179 810.54 91.1471 811.06 91.333C812.322 91.7843 813.579 92.2299 814.83 92.6698C815.351 92.8529 815.625 93.4238 815.442 93.9448C815.259 94.4659 814.688 94.7397 814.167 94.5566C812.912 94.1155 811.652 93.6687 810.387 93.2163C809.867 93.0303 809.596 92.458 809.782 91.938ZM1062.63 92.6428C1062.93 93.1063 1062.8 93.7255 1062.34 94.0258C1061.21 94.7561 1060.07 95.477 1058.92 96.188C1058.45 96.478 1057.83 96.332 1057.54 95.862C1057.25 95.392 1057.4 94.7758 1057.87 94.4859C1059.01 93.7827 1060.14 93.0697 1061.25 92.3473C1061.71 92.047 1062.33 92.1793 1062.63 92.6428ZM110.069 94.0719C110.346 93.5941 110.957 93.4313 111.435 93.7083C112.597 94.3815 113.758 95.0578 114.921 95.7369C115.398 96.0156 115.558 96.628 115.28 97.1048C115.001 97.5817 114.389 97.7424 113.912 97.4638C112.751 96.7858 111.591 96.1106 110.432 95.4386C109.954 95.1616 109.792 94.5497 110.069 94.0719ZM348.155 93.8404C348.677 94.0201 348.955 94.5891 348.775 95.1114C348.344 96.3648 347.9 97.6264 347.441 98.8941C347.254 99.4135 346.681 99.6823 346.161 99.4946C345.642 99.3068 345.373 98.7336 345.561 98.2142C346.015 96.9568 346.456 95.705 346.884 94.4607C347.064 93.9384 347.633 93.6607 348.155 93.8404ZM817.296 94.5911C817.477 94.0691 818.046 93.7921 818.568 93.9725C819.809 94.4011 821.044 94.8241 822.273 95.2414C822.796 95.4189 823.076 95.9868 822.899 96.5098C822.721 97.0328 822.154 97.3128 821.631 97.1353C820.397 96.7168 819.159 96.2926 817.915 95.8628C817.393 95.6825 817.116 95.1131 817.296 94.5911ZM1055.84 96.8872C1056.12 97.3636 1055.96 97.9763 1055.48 98.2557C1054.33 98.9342 1053.16 99.6026 1051.97 100.261C1051.49 100.529 1050.88 100.355 1050.61 99.8728C1050.34 99.3902 1050.52 98.7813 1051 98.5128C1052.17 97.8623 1053.33 97.2014 1054.47 96.5306C1054.95 96.2512 1055.56 96.4108 1055.84 96.8872ZM824.877 97.1749C825.052 96.6509 825.618 96.3675 826.142 96.5419C827.428 96.9701 828.708 97.3922 829.983 97.808C830.508 97.9794 830.794 98.5439 830.623 99.0689C830.452 99.594 829.887 99.8807 829.362 99.7093C828.084 99.2922 826.8 98.869 825.51 98.4396C824.986 98.2651 824.703 97.6989 824.877 97.1749ZM117.03 98.1311C117.31 97.6551 117.923 97.4963 118.399 97.7763C119.558 98.4586 120.718 99.1433 121.878 99.8299C122.354 100.111 122.511 100.725 122.23 101.2C121.948 101.675 121.335 101.832 120.86 101.551C119.701 100.865 118.543 100.181 117.385 99.5001C116.909 99.22 116.75 98.6071 117.03 98.1311ZM832.531 99.6853C832.699 99.1592 833.262 98.8691 833.788 99.0373C835.05 99.4409 836.307 99.8385 837.558 100.23C838.085 100.395 838.378 100.956 838.213 101.483C838.048 102.01 837.487 102.304 836.96 102.139C835.706 101.746 834.445 101.347 833.179 100.942C832.653 100.774 832.363 100.211 832.531 99.6853ZM1048.86 100.823C1049.12 101.311 1048.93 101.916 1048.44 102.173C1047.26 102.797 1046.06 103.41 1044.85 104.011C1044.35 104.257 1043.75 104.056 1043.51 103.561C1043.26 103.067 1043.46 102.467 1043.96 102.221C1045.15 101.626 1046.34 101.02 1047.51 100.404C1048 100.147 1048.6 100.334 1048.86 100.823ZM345.467 101.366C345.983 101.562 346.242 102.14 346.045 102.656C345.572 103.899 345.084 105.146 344.58 106.394C344.374 106.907 343.791 107.155 343.279 106.948C342.767 106.742 342.519 106.159 342.725 105.647C343.224 104.41 343.707 103.176 344.176 101.944C344.373 101.428 344.951 101.169 345.467 101.366ZM840.067 102.057C840.229 101.529 840.788 101.232 841.316 101.394C842.624 101.794 843.926 102.188 845.222 102.575C845.751 102.734 846.052 103.291 845.894 103.82C845.735 104.349 845.178 104.65 844.649 104.492C843.349 104.103 842.043 103.708 840.73 103.306C840.202 103.144 839.905 102.585 840.067 102.057ZM123.975 102.236C124.257 101.761 124.871 101.605 125.346 101.888C126.5 102.575 127.655 103.263 128.809 103.953C129.283 104.236 129.438 104.85 129.155 105.324C128.872 105.798 128.258 105.953 127.783 105.67C126.63 104.981 125.476 104.293 124.323 103.606C123.848 103.324 123.692 102.71 123.975 102.236ZM847.849 104.397C848.004 103.867 848.559 103.563 849.089 103.717C850.372 104.092 851.648 104.459 852.918 104.82C853.45 104.971 853.758 105.524 853.607 106.055C853.456 106.587 852.903 106.895 852.372 106.744C851.097 106.382 849.816 106.013 848.529 105.637C847.999 105.483 847.695 104.928 847.849 104.397ZM1041.7 104.434C1041.94 104.934 1041.72 105.53 1041.22 105.764C1040.01 106.33 1038.79 106.884 1037.56 107.428C1037.05 107.65 1036.46 107.421 1036.24 106.916C1036.02 106.41 1036.25 105.82 1036.75 105.597C1037.97 105.06 1039.18 104.512 1040.37 103.953C1040.87 103.719 1041.47 103.934 1041.7 104.434ZM855.479 106.58C855.626 106.048 856.177 105.736 856.709 105.883C858.003 106.242 859.291 106.593 860.572 106.937C861.105 107.081 861.421 107.629 861.277 108.163C861.134 108.696 860.585 109.012 860.052 108.869C858.767 108.523 857.475 108.17 856.176 107.811C855.644 107.664 855.331 107.113 855.479 106.58ZM130.9 106.369C131.184 105.895 131.798 105.741 132.272 106.025C133.425 106.717 134.578 107.409 135.73 108.101C136.204 108.386 136.357 109 136.072 109.474C135.788 109.947 135.173 110.1 134.7 109.816C133.548 109.123 132.396 108.432 131.243 107.741C130.77 107.457 130.616 106.843 130.9 106.369ZM1034.38 107.711C1034.59 108.221 1034.34 108.806 1033.83 109.017C1032.61 109.523 1031.37 110.018 1030.11 110.501C1029.6 110.7 1029.02 110.443 1028.82 109.928C1028.62 109.413 1028.88 108.834 1029.39 108.635C1030.63 108.157 1031.86 107.668 1033.07 107.168C1033.58 106.957 1034.17 107.2 1034.38 107.711ZM863.274 108.692C863.413 108.157 863.959 107.837 864.494 107.977C865.794 108.316 867.088 108.648 868.374 108.973C868.91 109.108 869.234 109.652 869.099 110.188C868.964 110.723 868.42 111.048 867.884 110.912C866.593 110.586 865.294 110.252 863.989 109.912C863.455 109.772 863.134 109.226 863.274 108.692ZM342.514 108.792C343.022 109.009 343.258 109.597 343.041 110.105C342.517 111.331 341.977 112.557 341.42 113.782C341.192 114.285 340.599 114.507 340.096 114.279C339.593 114.051 339.371 113.458 339.599 112.955C340.149 111.744 340.683 110.532 341.202 109.319C341.419 108.811 342.006 108.575 342.514 108.792ZM871.005 110.662C871.136 110.125 871.677 109.796 872.214 109.928C873.499 110.242 874.777 110.549 876.049 110.849C876.586 110.976 876.919 111.514 876.792 112.052C876.665 112.589 876.127 112.922 875.589 112.795C874.313 112.494 873.029 112.186 871.739 111.87C871.202 111.739 870.874 111.198 871.005 110.662ZM1026.92 110.637C1027.11 111.157 1026.84 111.729 1026.32 111.916C1025.07 112.365 1023.81 112.803 1022.53 113.228C1022.01 113.403 1021.44 113.12 1021.26 112.597C1021.09 112.073 1021.37 111.506 1021.9 111.331C1023.16 110.91 1024.41 110.478 1025.64 110.034C1026.16 109.847 1026.73 110.117 1026.92 110.637ZM137.813 110.521C138.098 110.048 138.712 109.895 139.185 110.18C140.337 110.873 141.487 111.566 142.637 112.259C143.11 112.544 143.262 113.158 142.977 113.631C142.692 114.104 142.078 114.257 141.605 113.972C140.455 113.279 139.305 112.586 138.154 111.893C137.681 111.608 137.528 110.994 137.813 110.521ZM878.82 112.521C878.942 111.983 879.478 111.645 880.016 111.768C881.331 112.066 882.639 112.357 883.939 112.64C884.478 112.758 884.82 113.291 884.703 113.831C884.585 114.37 884.052 114.712 883.513 114.595C882.207 114.31 880.894 114.018 879.573 113.718C879.035 113.596 878.697 113.06 878.82 112.521ZM1019.35 113.211C1019.51 113.739 1019.22 114.299 1018.69 114.462C1017.41 114.856 1016.12 115.24 1014.82 115.611C1014.28 115.762 1013.73 115.454 1013.58 114.922C1013.43 114.391 1013.74 113.838 1014.27 113.687C1015.56 113.32 1016.84 112.941 1018.1 112.551C1018.63 112.388 1019.19 112.683 1019.35 113.211ZM886.633 114.243C886.746 113.702 887.276 113.355 887.817 113.468C889.106 113.737 890.388 113.999 891.662 114.253C892.204 114.361 892.555 114.888 892.447 115.43C892.339 115.971 891.812 116.323 891.271 116.215C889.99 115.959 888.703 115.696 887.408 115.426C886.867 115.313 886.521 114.783 886.633 114.243ZM144.723 114.683C145.008 114.21 145.622 114.058 146.095 114.343C147.247 115.037 148.398 115.73 149.548 116.422C150.021 116.707 150.173 117.321 149.889 117.794C149.604 118.268 148.989 118.42 148.516 118.135C147.366 117.443 146.215 116.75 145.063 116.056C144.59 115.771 144.438 115.156 144.723 114.683ZM1011.67 115.443C1011.81 115.978 1011.49 116.524 1010.95 116.663C1009.65 117.002 1008.34 117.33 1007.01 117.645C1006.48 117.773 1005.94 117.441 1005.81 116.903C1005.68 116.366 1006.01 115.827 1006.55 115.699C1007.86 115.387 1009.16 115.064 1010.45 114.728C1010.98 114.589 1011.53 114.909 1011.67 115.443ZM894.494 115.828C894.597 115.285 895.12 114.929 895.663 115.032C896.988 115.283 898.305 115.526 899.615 115.761C900.158 115.859 900.52 116.379 900.422 116.922C900.325 117.466 899.805 117.827 899.261 117.73C897.945 117.494 896.622 117.249 895.29 116.997C894.747 116.894 894.391 116.371 894.494 115.828ZM339.249 116.087C339.746 116.327 339.954 116.926 339.713 117.423C339.131 118.626 338.531 119.826 337.914 121.02C337.66 121.511 337.057 121.703 336.566 121.449C336.075 121.196 335.883 120.593 336.137 120.102C336.746 118.923 337.338 117.739 337.913 116.551C338.154 116.054 338.752 115.846 339.249 116.087ZM902.366 117.261C902.458 116.717 902.974 116.35 903.519 116.442C904.823 116.663 906.12 116.876 907.408 117.081C907.954 117.168 908.326 117.68 908.239 118.226C908.152 118.771 907.64 119.143 907.094 119.056C905.799 118.85 904.496 118.636 903.185 118.414C902.64 118.322 902.273 117.806 902.366 117.261ZM1003.88 117.34C1004 117.88 1003.65 118.412 1003.11 118.528C1001.81 118.809 1000.5 119.078 999.169 119.335C998.627 119.44 998.102 119.086 997.997 118.543C997.892 118.001 998.247 117.477 998.789 117.372C1000.1 117.117 1001.4 116.851 1002.69 116.573C1003.23 116.457 1003.76 116.8 1003.88 117.34ZM910.291 118.541C910.372 117.994 910.881 117.617 911.427 117.698C912.758 117.895 914.08 118.083 915.394 118.262C915.941 118.337 916.324 118.841 916.249 119.389C916.174 119.936 915.67 120.319 915.123 120.244C913.802 120.063 912.472 119.874 911.134 119.676C910.588 119.595 910.211 119.087 910.291 118.541ZM995.989 118.911C996.083 119.455 995.718 119.973 995.174 120.066C993.875 120.29 992.565 120.503 991.243 120.705C990.697 120.788 990.187 120.413 990.104 119.867C990.021 119.321 990.396 118.811 990.942 118.727C992.251 118.528 993.548 118.317 994.834 118.096C995.378 118.002 995.895 118.367 995.989 118.911ZM151.625 118.839C151.91 118.366 152.524 118.213 152.997 118.497C154.153 119.192 155.308 119.885 156.461 120.576C156.935 120.86 157.089 121.475 156.805 121.948C156.521 122.422 155.907 122.576 155.433 122.292C154.279 121.6 153.124 120.906 151.967 120.211C151.494 119.927 151.341 119.313 151.625 118.839ZM918.192 119.643C918.261 119.095 918.761 118.707 919.309 118.776C920.638 118.942 921.958 119.1 923.27 119.249C923.819 119.311 924.213 119.807 924.151 120.356C924.088 120.904 923.593 121.299 923.044 121.236C921.725 121.086 920.397 120.928 919.06 120.76C918.512 120.691 918.123 120.191 918.192 119.643ZM988.101 120.152C988.173 120.699 987.788 121.202 987.24 121.274C985.917 121.45 984.582 121.614 983.235 121.766C982.686 121.828 982.191 121.434 982.129 120.885C982.067 120.336 982.461 119.841 983.01 119.779C984.345 119.628 985.667 119.465 986.978 119.292C987.525 119.219 988.028 119.604 988.101 120.152ZM926.193 120.575C926.249 120.026 926.739 119.625 927.289 119.681C928.619 119.816 929.94 119.941 931.252 120.058C931.802 120.107 932.209 120.593 932.16 121.143C932.111 121.693 931.625 122.099 931.075 122.05C929.755 121.933 928.426 121.807 927.087 121.671C926.538 121.615 926.137 121.125 926.193 120.575ZM980.166 121.089C980.219 121.639 979.815 122.126 979.265 122.179C977.93 122.305 976.584 122.42 975.226 122.524C974.675 122.567 974.194 122.154 974.152 121.604C974.11 121.053 974.522 120.572 975.073 120.53C976.419 120.427 977.754 120.313 979.077 120.187C979.626 120.135 980.114 120.539 980.166 121.089ZM934.087 121.302C934.129 120.751 934.61 120.339 935.161 120.381C936.521 120.484 937.871 120.578 939.211 120.662C939.763 120.697 940.181 121.172 940.147 121.723C940.112 122.274 939.637 122.693 939.086 122.658C937.737 122.574 936.378 122.479 935.009 122.375C934.458 122.333 934.046 121.853 934.087 121.302ZM972.155 121.739C972.187 122.29 971.767 122.764 971.216 122.796C969.897 122.874 968.568 122.942 967.227 122.998C966.676 123.022 966.209 122.593 966.186 122.041C966.163 121.49 966.591 121.023 967.143 121C968.472 120.944 969.79 120.877 971.098 120.8C971.649 120.767 972.122 121.188 972.155 121.739ZM942.163 121.836C942.19 121.284 942.659 120.859 943.21 120.886C944.534 120.951 945.847 121.006 947.15 121.052C947.702 121.071 948.134 121.534 948.115 122.086C948.095 122.638 947.632 123.07 947.08 123.051C945.767 123.005 944.445 122.949 943.113 122.884C942.561 122.857 942.136 122.387 942.163 121.836ZM964.147 122.111C964.161 122.663 963.725 123.122 963.173 123.136C961.844 123.17 960.505 123.194 959.155 123.207C958.602 123.213 958.15 122.77 958.145 122.217C958.139 121.665 958.583 121.213 959.135 121.208C960.475 121.194 961.803 121.171 963.122 121.137C963.674 121.123 964.133 121.559 964.147 122.111ZM950.139 122.143C950.151 121.591 950.608 121.152 951.16 121.164C952.51 121.191 953.85 121.209 955.179 121.216C955.731 121.219 956.176 121.669 956.173 122.221C956.17 122.774 955.72 123.219 955.168 123.216C953.829 123.209 952.479 123.191 951.119 123.163C950.567 123.152 950.128 122.695 950.139 122.143ZM158.545 122.99C158.828 122.516 159.442 122.361 159.916 122.644C161.071 123.334 162.223 124.021 163.374 124.705C163.849 124.988 164.005 125.601 163.723 126.076C163.44 126.551 162.827 126.707 162.352 126.424C161.2 125.739 160.046 125.051 158.891 124.361C158.417 124.078 158.262 123.464 158.545 122.99ZM335.625 123.21C336.108 123.478 336.283 124.086 336.016 124.569C335.368 125.741 334.702 126.905 334.016 128.061C333.734 128.536 333.121 128.693 332.646 128.411C332.171 128.13 332.014 127.516 332.296 127.041C332.971 125.903 333.627 124.756 334.266 123.601C334.533 123.118 335.142 122.943 335.625 123.21ZM165.48 127.118C165.761 126.643 166.374 126.485 166.85 126.767C168.006 127.451 169.161 128.132 170.313 128.809C170.789 129.089 170.948 129.701 170.668 130.178C170.389 130.654 169.776 130.813 169.3 130.533C168.145 129.855 166.989 129.173 165.831 128.488C165.356 128.207 165.199 127.594 165.48 127.118ZM331.601 130.111C332.067 130.408 332.203 131.026 331.907 131.492C331.186 132.622 330.445 133.743 329.683 134.852C329.371 135.307 328.748 135.422 328.293 135.11C327.838 134.797 327.722 134.174 328.035 133.719C328.783 132.63 329.511 131.528 330.22 130.416C330.517 129.951 331.135 129.814 331.601 130.111ZM172.423 131.205C172.701 130.728 173.313 130.567 173.79 130.845C174.957 131.525 176.121 132.202 177.282 132.873C177.76 133.15 177.924 133.762 177.647 134.24C177.371 134.718 176.759 134.881 176.281 134.605C175.117 133.932 173.951 133.254 172.783 132.573C172.305 132.294 172.144 131.682 172.423 131.205ZM179.394 135.245C179.668 134.766 180.279 134.6 180.758 134.874C181.931 135.546 183.102 136.213 184.269 136.873C184.749 137.146 184.918 137.756 184.646 138.236C184.374 138.717 183.764 138.886 183.283 138.614C182.113 137.951 180.94 137.283 179.764 136.61C179.285 136.335 179.119 135.724 179.394 135.245ZM327.134 136.734C327.578 137.063 327.67 137.689 327.341 138.133C326.542 139.211 325.721 140.276 324.877 141.326C324.531 141.757 323.902 141.825 323.471 141.479C323.041 141.134 322.972 140.504 323.318 140.074C324.145 139.044 324.95 137.999 325.735 136.941C326.064 136.498 326.69 136.405 327.134 136.734ZM186.421 139.235C186.69 138.753 187.3 138.581 187.782 138.851C188.949 139.504 190.114 140.151 191.275 140.791C191.759 141.058 191.934 141.666 191.668 142.15C191.401 142.633 190.793 142.809 190.309 142.542C189.144 141.9 187.976 141.251 186.805 140.596C186.323 140.327 186.151 139.717 186.421 139.235ZM193.479 143.141C193.742 142.655 194.349 142.475 194.834 142.739C196.018 143.381 197.197 144.016 198.372 144.642C198.859 144.902 199.044 145.508 198.784 145.995C198.524 146.483 197.918 146.667 197.431 146.407C196.251 145.778 195.068 145.141 193.88 144.496C193.395 144.233 193.215 143.626 193.479 143.141ZM322.191 143.01C322.607 143.373 322.65 144.005 322.287 144.421C321.405 145.433 320.499 146.429 319.57 147.408C319.189 147.808 318.556 147.824 318.156 147.444C317.755 147.064 317.739 146.431 318.12 146.03C319.029 145.073 319.916 144.098 320.78 143.106C321.143 142.69 321.775 142.647 322.191 143.01ZM200.571 146.94C200.827 146.45 201.432 146.261 201.921 146.517C203.123 147.146 204.321 147.765 205.513 148.376C206.005 148.627 206.2 149.23 205.948 149.721C205.697 150.213 205.094 150.408 204.603 150.156C203.404 149.543 202.201 148.921 200.994 148.289C200.505 148.033 200.315 147.429 200.571 146.94ZM316.749 148.862C317.132 149.259 317.121 149.893 316.723 150.276C315.756 151.207 314.766 152.119 313.751 153.011C313.336 153.375 312.704 153.334 312.34 152.92C311.975 152.505 312.016 151.873 312.431 151.508C313.423 150.637 314.39 149.746 315.335 148.835C315.733 148.452 316.366 148.464 316.749 148.862ZM207.736 150.625C207.983 150.131 208.583 149.93 209.078 150.177C210.292 150.784 211.502 151.38 212.706 151.964C213.203 152.206 213.41 152.804 213.169 153.301C212.928 153.798 212.329 154.005 211.833 153.763C210.622 153.175 209.405 152.576 208.184 151.967C207.69 151.72 207.489 151.119 207.736 150.625ZM215 154.177C215.236 153.677 215.831 153.463 216.331 153.698C217.547 154.271 218.757 154.831 219.961 155.378C220.464 155.607 220.686 156.2 220.457 156.703C220.228 157.205 219.636 157.428 219.133 157.199C217.921 156.648 216.703 156.084 215.479 155.508C214.979 155.272 214.765 154.677 215 154.177ZM310.812 154.199C311.156 154.631 311.086 155.26 310.654 155.605C309.606 156.441 308.533 157.256 307.435 158.048C306.987 158.371 306.362 158.27 306.039 157.822C305.716 157.374 305.817 156.749 306.265 156.426C307.336 155.653 308.383 154.858 309.406 154.042C309.838 153.697 310.467 153.768 310.812 154.199ZM222.339 157.542C222.56 157.036 223.15 156.805 223.656 157.026C224.881 157.562 226.099 158.083 227.31 158.589C227.819 158.802 228.06 159.387 227.847 159.897C227.634 160.407 227.048 160.647 226.538 160.434C225.317 159.924 224.089 159.398 222.855 158.859C222.349 158.638 222.118 158.048 222.339 157.542ZM304.393 158.949C304.694 159.412 304.562 160.032 304.099 160.332C302.975 161.062 301.826 161.768 300.651 162.45C300.173 162.727 299.561 162.565 299.284 162.087C299.007 161.609 299.169 160.997 299.647 160.72C300.793 160.055 301.914 159.366 303.01 158.655C303.473 158.354 304.093 158.486 304.393 158.949ZM229.766 160.68C229.97 160.166 230.551 159.915 231.064 160.119C232.314 160.615 233.555 161.093 234.789 161.554C235.306 161.748 235.569 162.324 235.375 162.841C235.182 163.358 234.606 163.621 234.088 163.428C232.842 162.962 231.588 162.478 230.327 161.978C229.813 161.774 229.562 161.193 229.766 160.68ZM297.528 163.048C297.781 163.539 297.588 164.142 297.097 164.395C295.911 165.007 294.7 165.594 293.464 166.156C292.961 166.385 292.368 166.162 292.139 165.66C291.911 165.157 292.133 164.564 292.636 164.336C293.842 163.787 295.024 163.214 296.181 162.618C296.672 162.365 297.275 162.557 297.528 163.048ZM237.298 163.536C237.48 163.015 238.05 162.739 238.571 162.921C239.847 163.365 241.113 163.789 242.37 164.192C242.895 164.36 243.185 164.923 243.017 165.449C242.848 165.975 242.285 166.265 241.759 166.096C240.486 165.688 239.204 165.259 237.913 164.809C237.392 164.628 237.116 164.058 237.298 163.536ZM244.953 166.041C245.106 165.511 245.661 165.205 246.191 165.359C247.493 165.737 248.783 166.089 250.061 166.416C250.596 166.553 250.919 167.097 250.782 167.633C250.645 168.168 250.101 168.49 249.566 168.354C248.266 168.021 246.956 167.663 245.635 167.28C245.104 167.126 244.799 166.572 244.953 166.041ZM290.31 166.438C290.514 166.951 290.263 167.532 289.749 167.736C289.121 167.986 288.487 168.229 287.846 168.465C287.206 168.702 286.558 168.923 285.905 169.129C285.378 169.294 284.816 169.002 284.65 168.475C284.485 167.948 284.777 167.387 285.304 167.221C285.927 167.025 286.544 166.814 287.154 166.589C287.779 166.358 288.398 166.121 289.011 165.877C289.525 165.674 290.106 165.924 290.31 166.438ZM252.744 168.099C252.862 167.559 253.394 167.217 253.934 167.335C255.258 167.624 256.568 167.882 257.863 168.11C258.407 168.206 258.77 168.725 258.675 169.268C258.579 169.812 258.061 170.176 257.517 170.08C256.193 169.847 254.857 169.583 253.508 169.289C252.968 169.171 252.626 168.638 252.744 168.099ZM282.674 168.995C282.79 169.535 282.447 170.067 281.907 170.183C280.586 170.467 279.242 170.695 277.876 170.871C277.328 170.941 276.827 170.554 276.757 170.006C276.686 169.458 277.073 168.957 277.621 168.887C278.934 168.719 280.222 168.499 281.486 168.227C282.026 168.111 282.558 168.455 282.674 168.995ZM260.672 169.575C260.742 169.027 261.244 168.64 261.792 168.711C263.129 168.883 264.45 169.02 265.752 169.119C266.303 169.16 266.716 169.641 266.674 170.191C266.632 170.742 266.152 171.155 265.601 171.113C264.262 171.011 262.906 170.871 261.536 170.694C260.988 170.624 260.601 170.122 260.672 169.575ZM274.715 170.186C274.743 170.737 274.319 171.207 273.767 171.235C272.427 171.304 271.067 171.326 269.689 171.304C269.137 171.295 268.697 170.84 268.706 170.288C268.715 169.735 269.17 169.295 269.722 169.304C271.057 169.326 272.371 169.304 273.665 169.238C274.217 169.21 274.687 169.634 274.715 170.186Z" fill="#34B166" fill-opacity="0.4"/>
</svg>
