<svg width="16" height="16" viewBox="0 0 16 16" fill="none" xmlns="http://www.w3.org/2000/svg">
<path d="M2.35355 1.64645C2.15829 1.45118 1.84171 1.45118 1.64645 1.64645C1.45118 1.84171 1.45118 2.15829 1.64645 2.35355L13.6464 14.3536C13.8417 14.5488 14.1583 14.5488 14.3536 14.3536C14.5488 14.1583 14.5488 13.8417 14.3536 13.6464L2.35355 1.64645Z" fill="#A9ABB0"/>
<path d="M15.1172 8.36887C14.7546 9.45913 14.1484 10.4383 13.3631 11.2418L11.2975 9.17615C11.4286 8.80857 11.5 8.41262 11.5 8C11.5 6.067 9.933 4.5 8 4.5C7.58738 4.5 7.19143 4.5714 6.82385 4.70253L5.17265 3.05133C6.04522 2.69587 6.99985 2.5 8.00035 2.5C11.3139 2.5 14.1243 4.64848 15.117 7.62697C15.1973 7.86768 15.1973 8.12812 15.1172 8.36887Z" fill="#A9ABB0"/>
<path d="M10.5 8C10.5 8.12011 10.4915 8.23824 10.4752 8.35383L7.64617 5.52485C7.76176 5.50847 7.87989 5.5 8 5.5C9.38071 5.5 10.5 6.61929 10.5 8Z" fill="#A9ABB0"/>
<path d="M8.35383 10.4752L5.52485 7.64617C5.50847 7.76176 5.5 7.87989 5.5 8C5.5 9.38071 6.61929 10.5 8 10.5C8.12011 10.5 8.23824 10.4915 8.35383 10.4752Z" fill="#A9ABB0"/>
<path d="M4.5 8C4.5 7.58738 4.5714 7.19143 4.70253 6.82385L2.63662 4.75794C1.85124 5.56148 1.24498 6.54076 0.882274 7.63113C0.802188 7.87188 0.802265 8.13233 0.882492 8.37303C1.87522 11.3515 4.68565 13.5 7.99918 13.5C8.9998 13.5 9.95455 13.3041 10.8272 12.9485L9.17615 11.2975C8.80857 11.4286 8.41262 11.5 8 11.5C6.067 11.5 4.5 9.933 4.5 8Z" fill="#A9ABB0"/>
</svg>
