<svg width="128" height="131" viewBox="0 0 128 131" fill="none" xmlns="http://www.w3.org/2000/svg">
<path fill-rule="evenodd" clip-rule="evenodd" d="M45.476 3.06729C45.6219 2.93593 45.7603 2.81239 45.8909 2.69702C46.3511 2.29037 46.8192 1.89103 47.2082 1.60602C47.212 1.60319 47.2168 1.59962 47.2226 1.59535C47.3366 1.51092 47.8198 1.15321 48.4343 0.925692C48.6295 0.853441 49.0394 0.716065 49.5768 0.678447C50.0843 0.642926 51.1956 0.665965 52.2697 1.46781C53.4488 2.348 53.8032 3.56946 53.8703 4.34598C53.8773 4.42614 53.8816 4.50427 53.8837 4.58015C53.9376 4.52812 53.9915 4.47609 54.0454 4.42404L54.1393 4.33327C54.5748 3.91244 55.3515 3.16193 55.9565 2.59074C56.2534 2.31045 56.6005 1.98621 56.8372 1.78587L56.8406 1.78292C56.8871 1.74357 57.0435 1.61114 57.2362 1.47879C57.295 1.43842 57.3977 1.36993 57.5301 1.29446C57.623 1.24146 57.9199 1.07375 58.3332 0.945418C58.5376 0.881934 58.9541 0.768815 59.4943 0.765069C60.0291 0.76136 61.0364 0.867216 61.9945 1.61977C63.0251 2.42929 63.3998 3.50982 63.4944 4.27771C63.5793 4.96707 63.4634 5.51061 63.3991 5.76146C63.2695 6.26761 63.0681 6.62854 63.0142 6.72506L63.0137 6.72609C62.9301 6.87579 62.8534 6.99075 62.8102 7.05371C62.7222 7.18171 62.6428 7.28192 62.6033 7.33108C62.517 7.4384 62.4299 7.53782 62.3665 7.60902C62.0386 7.97729 61.7103 8.34522 61.3815 8.71279C61.5641 8.67232 61.7626 8.64098 61.9735 8.62586C62.5429 8.58504 63.6642 8.6328 64.7294 9.45033C65.8515 10.3115 66.1989 11.4727 66.2824 12.1939C66.4086 13.2836 66.0458 14.1428 65.9832 14.291C65.9806 14.2971 65.9785 14.302 65.977 14.3056C65.856 14.6002 65.719 14.8499 65.6233 15.0155C65.424 15.3605 65.1734 15.7327 64.9134 16.0998C64.3338 16.918 63.722 17.7174 63.0862 18.4988C66.1863 15.7558 69.26 13.0334 72.2909 10.2662C72.5321 10.0459 72.7335 9.86451 72.8905 9.72718C72.967 9.66029 73.0534 9.58587 73.139 9.51576C73.1811 9.4813 73.2429 9.43148 73.3155 9.37687L73.3183 9.37475C73.3635 9.34071 73.5358 9.21101 73.7662 9.07952L73.7713 9.07661C73.856 9.02823 74.2076 8.82721 74.6979 8.69264C74.928 8.62946 75.54 8.47815 76.3229 8.58964C77.2627 8.72346 78.532 9.27672 79.273 10.6372C79.8846 11.7602 79.7716 12.8011 79.7099 13.1856C79.662 13.4842 79.587 13.7331 79.5219 13.9133C80.0106 13.4991 80.4476 13.1335 80.8268 12.8223C81.3752 12.3722 81.8876 11.9651 82.2845 11.6852L82.2998 11.6744C82.4229 11.587 82.8522 11.2827 83.366 11.0729C83.5203 11.0099 83.8879 10.8677 84.3769 10.8015C84.7286 10.7538 86.0819 10.6066 87.37 11.5951C88.8969 12.7668 88.9855 14.4242 88.9261 15.1242C88.8685 15.8021 88.6506 16.2995 88.5727 16.4711C88.3054 17.0597 87.9075 17.5305 87.8178 17.6366C87.8127 17.6427 87.8086 17.6476 87.8055 17.6512C87.6293 17.8628 87.4201 18.095 87.1983 18.3335C86.7488 18.817 86.122 19.4599 85.3168 20.265C85.0727 20.5091 84.8287 20.7533 84.5847 20.9975C84.8564 20.7776 85.127 20.559 85.3959 20.3417C85.6709 20.1195 85.9442 19.8988 86.2153 19.6793C86.2678 19.6367 86.3668 19.5577 86.4875 19.4725C86.5449 19.4321 86.6596 19.3529 86.8094 19.2662C86.8112 19.2652 86.8137 19.2637 86.8168 19.2619C86.8916 19.2179 87.3458 18.9507 87.9776 18.814C88.2539 18.7542 89.2593 18.5534 90.4123 19.0512C91.98 19.7281 92.6779 21.1458 92.8037 22.2867C92.8542 22.7442 92.8177 23.1448 92.7616 23.4517C93.7193 22.6634 94.6822 21.8844 95.6505 21.1154C96.0331 20.8116 96.3505 20.5643 96.5968 20.3802C96.717 20.2903 96.8501 20.193 96.9809 20.104C97.0453 20.0602 97.138 19.9986 97.2463 19.9335L97.2492 19.9318C97.318 19.8904 97.5675 19.7405 97.9009 19.6105C98.0302 19.5601 98.4936 19.3804 99.1188 19.3416C99.6149 19.3109 101.717 19.3221 102.868 21.392C103.283 22.1366 103.386 22.8557 103.372 23.4308C104.808 22.1531 106.421 20.8709 107.481 20.2241C107.686 20.099 107.965 19.939 108.279 19.7989C108.283 19.7969 108.289 19.7943 108.296 19.7912C108.46 19.7162 109.305 19.3313 110.376 19.3982C110.669 19.4165 111.07 19.4766 111.508 19.6326C111.605 19.5558 111.702 19.4791 111.799 19.4025C112.539 18.82 113.133 18.3634 113.579 18.0356C113.799 17.8743 114.019 17.7179 114.222 17.585C114.224 17.5834 114.228 17.5809 114.233 17.5775C114.322 17.5173 114.814 17.1877 115.411 16.9918C115.583 16.9354 116.099 16.7724 116.778 16.7882C117.475 16.8045 119.159 17.0733 120.153 18.7772C120.979 20.1927 120.647 21.5286 120.562 21.8479C120.436 22.3147 120.254 22.6538 120.176 22.7931C119.917 23.2551 119.585 23.6227 119.501 23.7162L119.49 23.7285C119.208 24.0427 118.813 24.437 118.394 24.8439C118 25.2262 117.514 25.6882 116.949 26.218C117.022 26.2294 117.095 26.2429 117.169 26.2588C118.34 26.5087 119.579 27.3282 120.146 28.792C120.585 29.9243 120.401 30.9123 120.314 31.2897C120.208 31.7536 120.045 32.1334 119.928 32.3779C119.693 32.8722 119.381 33.3627 119.072 33.8101C120.027 34.5512 120.475 35.5277 120.679 36.1647C121.131 37.5785 120.856 38.8587 120.597 39.6372C120.324 40.4585 119.912 41.1944 119.527 41.7878C119.454 41.8993 119.38 42.0107 119.303 42.1219C119.626 41.7874 119.953 41.4542 120.284 41.1234C120.383 41.0247 120.474 40.9345 120.551 40.8602C120.588 40.8248 120.64 40.7757 120.696 40.7243C120.724 40.6992 120.77 40.6577 120.827 40.6097L120.83 40.6074C120.865 40.5784 121.01 40.456 121.207 40.3256L121.212 40.3222C121.284 40.2747 121.596 40.0675 122.038 39.9054C122.234 39.8335 122.826 39.6264 123.614 39.6651C124.571 39.7121 126.041 40.1764 126.898 41.689C127.57 42.8754 127.418 43.9855 127.364 44.3124C127.293 44.7477 127.164 45.0722 127.104 45.2143C126.977 45.516 126.841 45.7336 126.799 45.799C126.695 45.9645 126.6 46.088 126.573 46.1221L126.573 46.123C126.532 46.1759 126.496 46.2194 126.474 46.2466C126.395 46.3419 126.308 46.4392 126.252 46.5022C126.001 46.7822 125.526 47.2941 124.998 47.8597C124.53 48.3619 124.005 48.9225 123.502 49.4596C122.829 50.1779 122.196 50.8542 121.79 51.2922C121.096 52.0416 120.398 52.7893 119.698 53.5356C120.428 54.6648 120.35 55.8541 120.316 56.1795C120.251 56.7837 120.065 57.243 119.993 57.4146C119.898 57.6425 119.796 57.8368 119.718 57.9763C119.562 58.257 119.38 58.5378 119.208 58.7913C118.856 59.3094 118.369 59.9653 117.765 60.7487C116.728 62.0911 115.673 63.4202 114.603 64.7369C114.86 64.6443 115.164 64.5573 115.506 64.5046C116.115 64.4108 117.192 64.3772 118.297 65.0105C119.484 65.6905 120.044 66.7546 120.265 67.5676C120.465 68.3035 120.429 68.9396 120.39 69.2922C120.312 70.0042 120.088 70.6357 119.937 71.022C119.763 71.4667 119.554 71.9132 119.344 72.3251C119.072 72.8604 118.751 73.4316 118.415 73.9933C119.413 74.3534 120.934 75.7004 121.384 76.6165C121.543 77.2518 121.579 78.2776 121.527 78.6474C121.479 78.8692 121.371 79.2289 121.319 79.3683C121.218 79.6272 121.111 79.8174 121.073 79.8829C120.985 80.0387 120.904 80.1551 120.882 80.1879L120.881 80.1882C120.792 80.3177 120.7 80.4332 120.68 80.4588L120.677 80.4623C120.602 80.5559 120.502 80.6783 120.396 80.8061C119.962 81.3317 119.1 82.3558 118.086 83.5577C117.533 84.2132 116.932 84.9249 116.323 85.6463C115.802 86.2642 115.274 86.8892 114.765 87.4921C115.067 87.5361 115.393 87.6181 115.732 87.7574C117.107 88.3228 117.859 89.4722 118.129 90.5045C118.35 91.3494 118.247 92.0536 118.191 92.3554C118.073 92.9945 117.829 93.5149 117.718 93.7444C117.448 94.302 117.073 94.901 116.737 95.4098C116.151 96.2964 115.379 97.3611 114.629 98.3627C115.102 98.5393 115.597 98.83 116.059 99.2972C117.399 100.65 117.233 102.275 117.189 102.623C117.124 103.146 116.969 103.536 116.91 103.681C116.705 104.18 116.406 104.603 116.316 104.73L116.305 104.747C116.15 104.968 115.958 105.224 115.734 105.512C114.906 106.582 114.054 107.632 113.182 108.663C114.963 108.025 116.816 107.507 118.748 107.156C120.922 106.761 123.004 108.202 123.399 110.376C123.794 112.549 122.353 114.632 120.179 115.027C114.186 116.116 108.938 119.33 103.099 123.186C102.409 123.642 100.655 124.653 99.1574 125.099C98.7802 125.211 98.0959 125.389 97.3069 125.37C97.1724 125.366 96.9835 125.354 96.7587 125.321C96.3827 125.67 95.9956 126.021 95.6011 126.365C94.4134 127.402 93.0604 128.47 91.651 129.298C90.3127 130.083 88.5061 130.903 86.5022 130.903C85.689 130.903 83.9865 130.635 82.9251 128.961C82.0334 127.555 82.2842 126.161 82.3793 125.727C82.4942 125.202 82.6985 124.721 82.8992 124.332C81.4138 125.345 79.8447 126.26 78.1881 126.993C77.8044 127.163 77.4054 127.323 77.0126 127.446C76.7076 127.542 76.0393 127.737 75.2467 127.709C74.8319 127.695 74.0761 127.611 73.2783 127.152C73.1318 127.067 72.991 126.974 72.8567 126.873C72.395 127.026 71.4863 127.291 70.5581 127.324C70.1453 127.338 68.3595 127.393 66.9626 125.963C65.6736 124.644 65.6113 123.109 65.7937 122.046C64.4062 122.923 62.9808 123.724 61.5161 124.427C60.4605 124.934 59.4845 125.339 58.6128 125.586C58.1754 125.709 57.6597 125.824 57.1071 125.862C56.5902 125.898 55.7594 125.89 54.8661 125.523C53.8377 125.1 52.9255 124.274 52.4552 123.095C52.0435 122.063 52.1165 121.124 52.2104 120.582C52.2285 120.478 52.2496 120.375 52.2734 120.274C51.5543 120.861 50.9083 121.363 50.3491 121.766C49.7379 122.207 48.977 122.718 48.2219 123.043C47.9346 123.167 47.07 123.531 45.983 123.456C45.3502 123.413 44.4372 123.204 43.5958 122.509C42.7283 121.791 42.3257 120.878 42.1722 120.138C41.9195 118.92 42.2742 117.905 42.3794 117.606C42.5423 117.144 42.7574 116.713 42.9535 116.356C43.353 115.627 43.918 114.768 44.6031 113.803C44.9507 113.313 45.3013 112.825 45.6545 112.338C45.1877 112.64 44.7131 112.928 44.2307 113.199C43.5317 113.592 42.3784 114.106 41.2747 114.375C40.8532 114.478 39.7495 114.733 38.5535 114.451C38.3978 114.414 38.2205 114.363 38.0301 114.293C36.2882 115.716 34.4366 117.062 32.463 118.226C31.9803 118.511 31.3064 118.879 30.5793 119.088C30.2528 119.181 29.4804 119.377 28.5397 119.216C27.3281 119.008 25.9642 118.195 25.3584 116.61C24.9026 115.418 25.1256 114.378 25.2178 114.008C25.336 113.534 25.5112 113.144 25.6357 112.892C25.8909 112.376 26.2206 111.875 26.5175 111.456C26.6648 111.248 26.813 111.04 26.9621 110.833C25.8091 111.846 24.7835 112.691 24.0067 113.231C23.6798 113.458 23.1161 113.834 22.4701 114.081C22.2141 114.178 21.3977 114.481 20.358 114.353C19.7591 114.279 18.9737 114.047 18.2462 113.45C17.5026 112.839 17.0954 112.072 16.9039 111.396C16.5786 110.249 16.8436 109.288 16.9227 109.01C17.0398 108.599 17.1976 108.249 17.3165 108.008C17.5603 107.513 17.8841 106.99 18.2239 106.48C20.7078 102.754 24.17 99.2949 27.1835 96.2837C27.3642 96.1031 27.5433 95.9242 27.7205 95.7468C27.4307 95.5315 27.148 95.2622 26.8897 94.9251C26.6839 94.6565 26.5228 94.386 26.3984 94.1182C25.5749 94.1986 24.3447 94.1388 23.1715 93.3347C21.5866 92.2484 21.2195 90.6037 21.1964 89.5989C21.1746 88.6464 21.4193 87.8105 21.6247 87.2516C21.8218 86.715 22.0739 86.1935 22.3439 85.7076C22.1433 85.7582 21.907 85.8043 21.6445 85.829C21.1984 85.8709 20.2585 85.8923 19.256 85.3531C18.0663 84.7132 17.4067 83.625 17.1858 82.5922C17.1738 82.5356 17.163 82.4797 17.1536 82.4245C15.9224 83.2642 14.5249 84.1098 13.4091 84.6001C13.0093 84.7757 12.1468 85.1394 11.1699 85.1946C10.7081 85.2207 9.49446 85.2283 8.33225 84.3702C6.90387 83.3156 6.58877 81.7734 6.63735 80.7661C6.66614 80.1692 6.81347 79.6609 6.95504 79.2917C6.58072 79.2437 6.19525 79.1553 5.80442 79.0146C4.69319 78.6146 3.88586 77.7833 3.46849 76.8296C3.1138 76.0191 3.11283 75.2994 3.13331 74.9459C3.17337 74.254 3.38217 73.7181 3.44974 73.5465C3.62757 73.0948 3.86826 72.6717 4.03528 72.3903C4.40838 71.7616 4.94071 70.9724 5.52734 70.1382C5.70207 69.8897 5.88656 69.6303 6.07942 69.3616C5.81279 69.45 5.48945 69.5399 5.13441 69.5979C4.7594 69.6591 3.52826 69.8386 2.24288 69.1521C1.49133 68.7507 0.831936 68.1065 0.421694 67.2504C0.0371448 66.4479 -0.0211144 65.6864 0.00557273 65.1498C0.0541167 64.1736 0.411967 63.3815 0.62194 62.9616C2.47067 59.2641 5.13144 55.9548 7.93455 52.9809C7.91517 52.971 7.89578 52.9609 7.87638 52.9506C6.43877 52.1873 5.88656 50.9558 5.70058 49.9735C5.23366 49.9124 4.66763 49.7559 4.09179 49.3959C2.8041 48.5908 2.32098 47.3272 2.22418 46.4031C2.14239 45.6223 2.31053 45.0153 2.38626 44.7708C2.47841 44.4732 2.58695 44.2419 2.65545 44.106C2.88644 43.6478 3.18602 43.2621 3.31778 43.0935C3.50497 42.8539 3.72958 42.5864 3.97955 42.2991C4.02571 42.2461 4.07188 42.1931 4.11808 42.14C3.38121 41.0019 3.41544 39.8418 3.47372 39.321C3.5456 38.6786 3.74185 38.1571 3.86816 37.8577C4.32963 36.764 5.22523 35.5527 5.86549 34.7245C6.60501 33.768 7.43451 32.7865 8.08865 32.0315C8.41933 31.6498 8.71241 31.3178 8.93604 31.066C9.04781 30.9402 9.14248 30.8342 9.21441 30.7536L9.30328 30.654L9.33092 30.6229L9.33902 30.6138L9.34178 30.6107C10.5774 29.202 11.877 27.7905 13.206 26.3849C13.1197 25.8125 13.1524 25.3424 13.1739 25.0979C13.2277 24.4835 13.3706 23.8694 13.5301 23.3111C13.9828 21.7267 14.6449 20.1062 15.2046 18.7365C15.3092 18.4805 15.4102 18.2332 15.5056 17.9966C15.5149 17.9086 15.527 17.8204 15.5422 17.7321C15.7155 16.7241 16.1502 15.0043 16.4951 13.802C16.6523 13.2541 16.8665 12.5417 17.078 12.0451L17.0808 12.0386C17.1236 11.938 17.2749 11.5823 17.5332 11.2089C17.5353 11.2059 17.5378 11.2023 17.5406 11.1982C17.6288 11.0697 18.0709 10.4255 18.9043 9.96271C19.4102 9.68175 20.3169 9.32828 21.4612 9.50341C22.658 9.68658 23.4813 10.349 23.9501 10.9176C24.6673 11.7873 24.8029 12.7132 24.8261 12.8714C24.8269 12.8771 24.8276 12.8819 24.8282 12.8855C24.8745 13.1858 24.8786 13.4335 24.8786 13.5577C24.8787 13.8224 24.8564 14.0622 24.8401 14.2138C24.835 14.2613 24.8297 14.3086 24.8242 14.3558C24.8512 14.3268 24.8782 14.2978 24.9051 14.2688C26.8682 12.1547 30.8282 8.0421 33.7904 4.99545C35.2712 3.47242 36.5292 2.18846 37.1784 1.53961C37.3367 1.38146 37.4837 1.23599 37.5947 1.13014L37.5992 1.12583C37.6315 1.09492 37.7582 0.973754 37.9011 0.856951C37.9373 0.827412 38.0633 0.724406 38.2352 0.610799C38.3088 0.562138 38.514 0.428439 38.7983 0.30011C38.9492 0.235685 39.3353 0.102565 39.5725 0.0419187C39.9533 -0.0240438 40.9677 -0.020073 41.5841 0.111236C42.4098 0.463419 43.7206 1.67457 44.17 2.50403C44.5872 2.60353 45.0418 2.77935 45.476 3.06729ZM16.8869 13.3484C16.8869 13.3484 16.8866 13.3522 16.8858 13.3602C16.8864 13.3525 16.8869 13.3485 16.8869 13.3484ZM6.81847 36.2004C6.80955 36.2035 6.80396 36.2055 6.80188 36.2063L6.80105 36.2066C6.80686 36.2046 6.81266 36.2025 6.81847 36.2004ZM3.54263 61.7747C3.54272 61.7745 3.54765 61.7727 3.55713 61.7695C3.54729 61.7733 3.54255 61.7748 3.54263 61.7747ZM7.27899 71.3891C7.2795 71.388 7.2959 71.3821 7.32665 71.3745C7.29386 71.3864 7.27848 71.3902 7.27899 71.3891ZM19.3054 106.751C19.3055 106.751 19.3103 106.748 19.3196 106.743C19.31 106.749 19.3054 106.751 19.3054 106.751ZM117.889 40.4452C117.889 40.4454 117.883 40.4506 117.869 40.4597C117.882 40.4496 117.889 40.4451 117.889 40.4452ZM118.61 24.2739C118.688 24.2225 118.674 24.2378 118.592 24.286C118.599 24.2811 118.605 24.2771 118.61 24.2739ZM113.534 18.3875C113.531 18.3904 113.528 18.3935 113.525 18.3966C113.572 18.3399 113.584 18.332 113.534 18.3875ZM86.8971 18.2215C86.9332 18.1961 86.9496 18.1857 86.9488 18.1869C86.948 18.1881 86.9299 18.2008 86.8971 18.2215ZM81.6541 12.5365C81.7141 12.4555 81.73 12.4454 81.6594 12.5302C81.6577 12.5322 81.656 12.5343 81.6541 12.5365ZM64.3106 16.0156C64.3181 16.0098 64.3218 16.0072 64.3217 16.0073C64.3216 16.0075 64.3178 16.0104 64.3106 16.0156ZM59.9462 122.45C59.9457 122.451 59.95 122.44 59.9609 122.419C59.9522 122.44 59.9468 122.45 59.9462 122.45ZM113.846 48.028C113.511 48.3402 113.239 48.5915 113.021 48.7928C112.677 49.1103 112.468 49.3032 112.36 49.4143C110.015 51.8292 107.692 54.2649 105.384 56.7167C107.71 54.3992 110.011 52.0632 112.279 49.6975C112.806 49.1481 113.326 48.5922 113.846 48.028ZM112.513 68.0338C112.514 68.0334 112.511 68.0415 112.505 68.0586C112.51 68.0427 112.513 68.0342 112.513 68.0338ZM89.9769 128.06C89.9758 128.06 89.9832 128.045 90.002 128.013C89.9872 128.043 89.9779 128.059 89.9769 128.06ZM115.896 95.0067C115.899 95.0046 115.901 95.0035 115.901 95.0031C115.902 95.0025 115.9 95.0038 115.896 95.0067ZM70.1018 119.345C70.101 119.345 70.1039 119.344 70.1105 119.343C70.1053 119.344 70.1025 119.345 70.1018 119.345Z" fill="#34B166"/>
</svg>
